<?xml version="1.0" encoding="UTF-8"?>
<svg id="Laag_2" data-name="Laag 2" xmlns="http://www.w3.org/2000/svg" viewBox="0 0 316.23 92.46">
  <defs>
    <style>
      .cls-1 {
        fill: #000;
        stroke-width: 0px;
      }
    </style>
  </defs>
  <g id="Laag_1-2" data-name="Laag 1">
    <g>
      <g>
        <path class="cls-1" d="M0,90.95v-3.42c7.22-.78,8.01-1.31,8.01-9.84v-39.08c0-8.56-.86-9.23-8.01-9.94v-3.42h27.22v3.42c-7.19.78-8.05,1.38-8.05,9.94v39.08c0,8.5.8,9,8.05,9.84v3.42H0Z"/>
        <path class="cls-1" d="M99.77,28.66c-5.73.77-7.55,1.98-7.83,6.57-.21,3.69-.46,7.41-.46,16.42v40.34h-4.59l-38.88-51.36v23.69c0,8.9.22,13.06.46,15.99.3,4.7,2.37,6.74,9.15,7.21v3.42h-22.75v-3.42c5.43-.51,7.71-2.02,8.2-6.84.34-3.5.52-7.45.52-16.39v-24.59c0-3.16-.18-5.17-1.91-7.66-1.7-2.53-3.82-2.94-7.92-3.38v-3.42h16.56l36.59,46.9v-20.5c0-9.01-.12-12.7-.4-16.19-.28-4.42-1.98-6.29-9.55-6.8v-3.42h22.82v3.42Z"/>
        <path class="cls-1" d="M162.91,73.98c-1.29,4.98-3.7,12.52-5.14,15.92-2.5.61-9.95,2.56-16.97,2.56-23.88,0-34.49-16.99-34.49-33.63,0-20.82,14.5-35.01,36.16-35.01,8.01,0,14.89,2.02,17.46,2.39.43,4.68,1.08,11.66,1.76,16.33l-3.4.71c-1.91-7.5-4.49-11.38-9.32-13.5-2.28-1.08-5.77-1.59-8.62-1.59-14.04,0-21.24,12.27-21.24,28.42,0,18.85,8.88,31.39,22.34,31.39,8.34,0,13.32-4.55,18.21-15.32l3.25,1.34Z"/>
        <path class="cls-1" d="M220.85,74.15c-.49,2.69-3.05,13.89-3.91,16.79h-46.88v-3.36c8.47-.84,9.06-1.49,9.06-9.91v-39.07c0-8.73-1.08-9.31-7.58-9.95v-3.42h29.41c9.35,0,12.71-.1,13.94-.2.09,2.07.52,10.11.89,16.06l-3.31.51c-.83-3.44-2.18-6.87-3.55-8.8-1.6-2.48-3.12-3.12-8.12-3.12h-6.98c-3.28,0-3.59.24-3.59,3.5v21.55h9.47c5.79,0,6.55-1.52,7.84-8.59h3.34v21.94h-3.34c-1.38-7.41-2.12-8.55-7.93-8.55h-9.38v18.34c0,7.01.83,8.6,6.17,8.7h7.27c5.34,0,6.56-.78,8.59-3.47,2.12-2.65,4-6.53,5.41-9.83l3.19.87Z"/>
      </g>
      <g>
        <path class="cls-1" d="M7.3,3.85c-.36-1.45-.95-2.88-2.94-2.88-1.65,0-2.22,1.25-2.22,2.4,0,1.52.93,2.29,2.69,3.24,2.54,1.36,3.64,2.38,3.64,4.47,0,2.31-1.93,4.07-4.66,4.07-1.27,0-2.37-.37-3.24-.73-.17-.62-.42-2.11-.57-3.3l.66-.18c.42,1.47,1.36,3.39,3.56,3.39,1.52,0,2.46-1.1,2.46-2.53,0-1.69-.87-2.38-2.73-3.43C1.72,7.11.47,6.05.47,4S2.03.2,4.83.2c1.19,0,2.35.33,2.79.42.08.79.17,1.67.34,3.1l-.66.13Z"/>
        <path class="cls-1" d="M21.41,3.96c-.19-.7-.44-1.43-.68-1.83-.34-.59-.55-.75-1.72-.75h-2.12v10.72c0,1.72.17,1.96,2.18,2.09v.62h-6.16v-.62c1.97-.13,2.14-.35,2.14-2.09V1.39h-1.93c-1.16,0-1.5.13-1.86.79-.25.44-.42.97-.7,1.78h-.64c.13-1.34.25-2.73.32-3.96h.49c.32.53.55.51,1.14.51h8.38c.59,0,.76-.09,1.08-.51h.51c0,1.03.08,2.62.19,3.89l-.64.07Z"/>
        <path class="cls-1" d="M38.33,1.12c-1.33.09-1.82.44-1.86,1.45-.02.51-.06,1.43-.06,3.45v2.38c0,2.25-.25,3.96-1.48,5.3-1,1.08-2.43,1.41-3.9,1.41-1.23,0-2.54-.26-3.47-1.01-1.27-1.01-1.88-2.53-1.88-5.11V3.39c0-1.98-.17-2.11-1.86-2.27v-.62h5.57v.62c-1.69.11-1.86.29-1.86,2.27v5.5c0,3.21,1.46,4.97,4,4.97,3.01,0,3.96-1.94,3.96-5.59v-2.25c0-2.02-.06-2.86-.11-3.45-.06-.99-.55-1.36-2.12-1.45v-.62h5.08v.62Z"/>
        <path class="cls-1" d="M39.52.51h5.65v.62c-1.65.15-1.95.31-1.95,2.27v3.78c.42-.04.91-.4,1.52-1.01,1.19-1.17,2.6-2.66,3.58-3.81.64-.75.57-1.03-.34-1.17l-.59-.07v-.62h5.15v.62c-1.59.2-2.14.31-3.56,1.83-.64.64-2.29,2.31-3.64,3.7,1.61,1.98,3.96,4.8,5.06,6.01,1.08,1.21,1.36,1.39,2.67,1.54v.62h-3.39c-1.63-1.91-3.35-4.05-5.27-6.38-.49-.62-.85-.66-1.19-.64v4.18c0,1.91.19,2.07,1.95,2.22v.62h-5.65v-.62c1.74-.15,1.91-.31,1.91-2.22V3.39c0-1.98-.15-2.13-1.91-2.27v-.62Z"/>
        <path class="cls-1" d="M61.5,14.81v-.62c1.38-.18,1.55-.4,1.25-1.23-.28-.86-.7-1.96-1.14-3.34h-4.57c-.34.99-.66,1.85-.95,2.75-.47,1.43-.17,1.61,1.57,1.83v.62h-4.89v-.62c1.33-.18,1.67-.33,2.41-2.31L59.55.33l.68-.13c1.33,3.76,2.79,7.92,4.13,11.73.68,1.91.87,2.09,2.37,2.27v.62h-5.23ZM59.38,3.08c-.68,1.89-1.4,3.89-2.03,5.63h3.96l-1.93-5.63Z"/>
        <path class="cls-1" d="M73.46.51c2.99,0,4.87.62,6.18,1.91,1.04,1.06,1.8,2.6,1.8,4.71,0,2.57-1.02,4.67-2.65,5.94-1.61,1.25-3.66,1.74-6.27,1.74h-4.95v-.62c1.82-.18,1.91-.33,1.91-2.13V3.28c0-1.89-.25-1.98-1.91-2.16v-.62h5.89ZM71.32,11.88c0,1.65.68,2.11,2.27,2.11,3.81,0,5.76-2.71,5.76-6.56,0-2.4-.78-4.23-2.46-5.28-.97-.64-2.2-.88-3.62-.88-.95,0-1.46.13-1.67.31-.19.13-.28.37-.28,1.23v9.07Z"/>
        <path class="cls-1" d="M90.95.2c3.62,0,6.86,2.88,6.86,7.26,0,4.73-3.09,7.68-6.99,7.68s-7.03-3.21-7.03-7.35S86.49.2,90.95.2ZM90.53,1.01c-2.37,0-4.53,2.07-4.53,6.18s2.16,7.11,5.17,7.11c2.56,0,4.49-1.98,4.49-6.23,0-4.62-2.35-7.06-5.12-7.06Z"/>
        <path class="cls-1" d="M107.32.2c3.62,0,6.86,2.88,6.86,7.26,0,4.73-3.09,7.68-6.99,7.68s-7.03-3.21-7.03-7.35S102.85.2,107.32.2ZM106.9,1.01c-2.37,0-4.53,2.07-4.53,6.18s2.16,7.11,5.17,7.11c2.56,0,4.49-1.98,4.49-6.23,0-4.62-2.35-7.06-5.12-7.06Z"/>
        <path class="cls-1" d="M128.79,14.99c-.28,0-.51-.02-.78-.04-1.55-.11-2.37-.53-3.3-1.89-.78-1.12-1.55-2.51-2.22-3.63-.42-.7-.7-.84-1.78-.84h-.74v3.46c0,1.87.23,1.98,1.93,2.16v.62h-5.65v-.62c1.76-.2,1.91-.29,1.91-2.16V3.26c0-1.87-.23-1.94-1.91-2.14v-.62h5.4c1.55,0,2.58.2,3.39.75.87.57,1.44,1.56,1.44,2.9,0,1.89-1.16,3.08-2.73,3.78.38.68,1.29,2.16,1.93,3.15.78,1.17,1.19,1.72,1.67,2.27.57.64,1.06.88,1.55,1.01l-.08.62ZM120.98,7.83c1.1,0,1.8-.18,2.33-.64.83-.64,1.16-1.52,1.16-2.71,0-2.36-1.5-3.21-3.13-3.21-.61,0-.97.09-1.12.22-.19.15-.25.37-.25.95v5.39h1.02Z"/>
        <path class="cls-1" d="M137.33,3.85c-.36-1.45-.95-2.88-2.94-2.88-1.65,0-2.22,1.25-2.22,2.4,0,1.52.93,2.29,2.69,3.24,2.54,1.36,3.64,2.38,3.64,4.47,0,2.31-1.93,4.07-4.66,4.07-1.27,0-2.37-.37-3.24-.73-.17-.62-.42-2.11-.57-3.3l.66-.18c.42,1.47,1.36,3.39,3.56,3.39,1.52,0,2.46-1.1,2.46-2.53,0-1.69-.87-2.38-2.73-3.43-2.22-1.25-3.47-2.31-3.47-4.36s1.57-3.81,4.36-3.81c1.19,0,2.35.33,2.79.42.08.79.17,1.67.34,3.1l-.66.13Z"/>
        <path class="cls-1" d="M147.56,7.06c2.03.35,3.68,1.36,3.68,3.5,0,1.5-.8,2.68-2.05,3.39-1.1.64-2.18.86-3.66.86h-5.21v-.62c1.8-.18,1.91-.37,1.91-2.11V3.26c0-1.83-.19-1.98-1.91-2.14v-.62h5.55c1.59,0,2.58.29,3.26.77.74.53,1.25,1.34,1.25,2.46,0,2.07-1.63,3.02-2.82,3.32ZM145.12,6.8c2.33,0,3.28-.97,3.28-2.77,0-1.54-.91-2.73-2.94-2.73-.59,0-.97.07-1.19.22-.17.13-.23.37-.23,1.08v4.2h1.08ZM144.04,12.04c0,1.58.36,1.98,1.86,1.98,1.65,0,3.26-.92,3.26-3.24s-1.52-3.21-4.11-3.21h-1.02v4.47Z"/>
        <path class="cls-1" d="M163.97,11.31c-.13.57-.7,2.84-.91,3.5h-10.29v-.62c1.97-.15,2.12-.35,2.12-2.16V3.34c0-1.96-.23-2.07-1.82-2.22v-.62h6.48c1.99,0,2.82-.02,3.07-.04.02.55.11,2.2.19,3.37l-.64.11c-.19-.75-.4-1.21-.64-1.67-.34-.73-.83-.88-2.1-.88h-2.01c-.66,0-.7.07-.7.7v4.86h2.35c1.59,0,1.69-.33,1.95-1.83h.66v4.53h-.66c-.28-1.58-.44-1.8-1.97-1.8h-2.33v4.38c0,1.54.47,1.67,1.52,1.69h1.97c1.29,0,1.5-.2,1.97-.77.4-.46.85-1.36,1.14-2.02l.64.18Z"/>
        <path class="cls-1" d="M171.34.51c2.99,0,4.87.62,6.18,1.91,1.04,1.06,1.8,2.6,1.8,4.71,0,2.57-1.02,4.67-2.65,5.94-1.61,1.25-3.66,1.74-6.27,1.74h-4.95v-.62c1.82-.18,1.91-.33,1.91-2.13V3.28c0-1.89-.25-1.98-1.91-2.16v-.62h5.89ZM169.2,11.88c0,1.65.68,2.11,2.27,2.11,3.81,0,5.76-2.71,5.76-6.56,0-2.4-.78-4.23-2.46-5.28-.97-.64-2.2-.88-3.62-.88-.95,0-1.46.13-1.67.31-.19.13-.28.37-.28,1.23v9.07Z"/>
        <path class="cls-1" d="M193.93,14.99c-.28,0-.51-.02-.78-.04-1.55-.11-2.37-.53-3.3-1.89-.78-1.12-1.55-2.51-2.22-3.63-.42-.7-.7-.84-1.78-.84h-.74v3.46c0,1.87.23,1.98,1.93,2.16v.62h-5.65v-.62c1.76-.2,1.91-.29,1.91-2.16V3.26c0-1.87-.23-1.94-1.91-2.14v-.62h5.4c1.55,0,2.58.2,3.39.75.87.57,1.44,1.56,1.44,2.9,0,1.89-1.16,3.08-2.73,3.78.38.68,1.29,2.16,1.93,3.15.78,1.17,1.19,1.72,1.67,2.27.57.64,1.06.88,1.55,1.01l-.08.62ZM186.12,7.83c1.1,0,1.8-.18,2.33-.64.83-.64,1.16-1.52,1.16-2.71,0-2.36-1.5-3.21-3.13-3.21-.61,0-.97.09-1.12.22-.19.15-.25.37-.25.95v5.39h1.02Z"/>
        <path class="cls-1" d="M194.76,14.81v-.62c1.74-.2,1.91-.29,1.91-2.16V3.3c0-1.89-.17-1.98-1.91-2.18v-.62h5.67v.62c-1.76.2-1.93.29-1.93,2.18v8.74c0,1.89.17,1.96,1.93,2.16v.62h-5.67Z"/>
        <path class="cls-1" d="M207.78,1.12c-1.65.2-1.82.33-1.82,2.18v8.14c0,2.9-.45,4.42-1.86,5.74-.7.66-1.4,1.01-1.97,1.28l-.34-.66c1.21-.62,1.88-1.63,2.12-2.9.19-1.06.21-2.33.21-4.18V3.3c0-1.85-.19-2-1.93-2.18v-.62h5.59v.62Z"/>
        <path class="cls-1" d="M218.75,3.94c-.19-.62-.36-1.14-.66-1.63-.4-.75-.72-.92-1.91-.92h-2.27c-.61,0-.68.07-.68.7v5.08h2.63c1.52,0,1.63-.26,1.95-1.8h.64v4.6h-.66c-.27-1.54-.42-1.89-1.93-1.89h-2.63v3.94c0,1.91.21,2,2.14,2.18v.62h-5.89v-.62c1.72-.13,1.91-.29,1.91-2.18V3.3c0-1.91-.21-2-1.91-2.18v-.62h6.71c1.91,0,2.63-.02,2.99-.04.02.79.11,2.33.21,3.39l-.66.09Z"/>
      </g>
      <path class="cls-1" d="M302.04,28.05l-34.84,15.85c-.04-.41-.07-.83-.07-1.26,7.41-5.26,18.34-9.79,24.88-11.94,1.54-.51,2.78-2.44,2.37-4.9.89-.37,1.23-1.09.83-2.52-.36-1.29-1.68-1.84-2.84-1.53,0,0-.02,0-.03,0-1.48-1.67-3.49-2.69-5.42-2.17-.09.02-.17.05-.26.08-.26.06-.52.13-.78.2-8.07,2.22-17.25,8.71-22.59,12.66-.79.59-1.32,2.51-1.54,4.38.02,0,.03-.01.04-.02.08-.02.18-.02.25,0,1.17.16,3.07,2.99,3.57,4.43.03.59.08,1.19.14,1.78,0,.08.02.15.02.23.04.39.08.77.13,1.15.28,2.45.57,4.7.05,6.08l2.17-.86s0,0,0,0l.1-.05h.04s35.23-16.18,35.23-16.18c.12-.05.25-.08.37-.08.54-.03.83.63.98,1.13.32,1.08.34,1.44-.05,1.62l-60.31,27.9c-.89.1-1.16-.41-1.53-1.22-.28-1.14-.31-1.67-.06-1.78l21.31-9.78c.62-.27-.08-2.33-.89-5.6l-30.07,13.68,11.62,13.34,71.36-33.26-14.19-11.37Z"/>
    </g>
  </g>
</svg>