<?xml version="1.0" encoding="UTF-8"?>
<svg id="Laag_2" data-name="Laag 2" xmlns="http://www.w3.org/2000/svg" viewBox="0 0 946.38 598.4">
  <defs>
    <style>
      .cls-1 {
        fill: #000;
        stroke-width: 0px;
      }
    </style>
  </defs>
  <g id="svg14514">
    <g>
      <g>
        <path class="cls-1" d="M461.64,259.95c-4.2,0-8.39,4.2-8.39,8.39,0,5.04,3.36,8.39,8.39,8.39s8.39-3.36,8.39-8.39-3.36-8.39-8.39-8.39Z"/>
        <path class="cls-1" d="M486.82,234.76c-4.2,0-8.39,4.2-8.39,8.39,0,5.04,3.36,8.39,8.39,8.39s8.39-3.36,8.39-8.39-3.36-8.39-8.39-8.39Z"/>
        <path class="cls-1" d="M436.46,234.76c-4.2,0-8.39,4.2-8.39,8.39,0,5.04,3.36,8.39,8.39,8.39s8.39-3.36,8.39-8.39-3.36-8.39-8.39-8.39Z"/>
        <path class="cls-1" d="M411.28,259.95c-4.2,0-8.39,4.2-8.39,8.39,0,5.04,3.36,8.39,8.39,8.39s8.39-3.36,8.39-8.39-3.36-8.39-8.39-8.39Z"/>
        <path class="cls-1" d="M360.92,259.95c-4.2,0-8.39,4.2-8.39,8.39,0,5.04,3.36,8.39,8.39,8.39s8.39-3.36,8.39-8.39-3.36-8.39-8.39-8.39Z"/>
        <path class="cls-1" d="M386.1,234.76c-4.2,0-8.39,4.2-8.39,8.39,0,5.04,3.36,8.39,8.39,8.39s8.39-3.36,8.39-8.39-3.36-8.39-8.39-8.39Z"/>
        <path class="cls-1" d="M335.74,234.76c-4.2,0-8.39,4.2-8.39,8.39,0,5.04,3.36,8.39,8.39,8.39s8.39-3.36,8.39-8.39-3.36-8.39-8.39-8.39Z"/>
        <path class="cls-1" d="M310.56,259.95c-4.2,0-8.39,4.2-8.39,8.39,0,5.04,3.36,8.39,8.39,8.39s8.39-3.36,8.39-8.39-3.36-8.39-8.39-8.39Z"/>
        <path class="cls-1" d="M260.2,259.95c-4.2,0-8.39,4.2-8.39,8.39,0,5.04,3.36,8.39,8.39,8.39s8.39-3.36,8.39-8.39-3.36-8.39-8.39-8.39Z"/>
        <path class="cls-1" d="M285.38,234.76c-4.2,0-8.39,4.2-8.39,8.39,0,5.04,3.36,8.39,8.39,8.39s8.39-3.36,8.39-8.39-3.36-8.39-8.39-8.39Z"/>
        <path class="cls-1" d="M461.64,209.59c-4.2,0-8.39,4.2-8.39,8.39,0,5.04,3.36,8.39,8.39,8.39s8.39-3.36,8.39-8.39c0-5.04-3.36-8.39-8.39-8.39Z"/>
        <path class="cls-1" d="M461.64,159.22c-4.2,0-8.39,4.2-8.39,8.39,0,5.04,3.36,8.39,8.39,8.39s8.39-3.36,8.39-8.39-3.36-8.39-8.39-8.39Z"/>
        <path class="cls-1" d="M486.82,184.4c-4.2,0-8.39,4.2-8.39,8.39,0,5.04,3.36,8.39,8.39,8.39s8.39-3.36,8.39-8.39-3.36-8.39-8.39-8.39Z"/>
        <path class="cls-1" d="M436.46,184.4c-4.2,0-8.39,4.2-8.39,8.39,0,5.04,3.36,8.39,8.39,8.39s8.39-3.36,8.39-8.39-3.36-8.39-8.39-8.39Z"/>
        <path class="cls-1" d="M411.28,209.59c-4.2,0-8.39,4.2-8.39,8.39,0,5.04,3.36,8.39,8.39,8.39s8.39-3.36,8.39-8.39-3.36-8.39-8.39-8.39Z"/>
        <path class="cls-1" d="M360.92,209.59c-4.2,0-8.39,4.2-8.39,8.39,0,5.04,3.36,8.39,8.39,8.39s8.39-3.36,8.39-8.39-3.36-8.39-8.39-8.39Z"/>
        <path class="cls-1" d="M411.28,159.22c-4.2,0-8.39,4.2-8.39,8.39,0,5.04,3.36,8.39,8.39,8.39s8.39-3.36,8.39-8.39-3.36-8.39-8.39-8.39Z"/>
        <path class="cls-1" d="M360.92,159.22c-4.2,0-8.39,4.2-8.39,8.39,0,5.04,3.36,8.39,8.39,8.39s8.39-3.36,8.39-8.39-3.36-8.39-8.39-8.39Z"/>
        <path class="cls-1" d="M386.1,184.4c-4.2,0-8.39,4.2-8.39,8.39,0,5.04,3.36,8.39,8.39,8.39s8.39-3.36,8.39-8.39-3.36-8.39-8.39-8.39Z"/>
        <path class="cls-1" d="M335.74,184.4c-4.2,0-8.39,4.2-8.39,8.39,0,5.04,3.36,8.39,8.39,8.39s8.39-3.36,8.39-8.39-3.36-8.39-8.39-8.39Z"/>
        <path class="cls-1" d="M310.56,209.59c-4.2,0-8.39,4.2-8.39,8.39,0,5.04,3.36,8.39,8.39,8.39s8.39-3.36,8.39-8.39c0-5.04-3.36-8.39-8.39-8.39Z"/>
        <path class="cls-1" d="M260.2,209.59c-4.2,0-8.39,4.2-8.39,8.39,0,5.04,3.36,8.39,8.39,8.39s8.39-3.36,8.39-8.39c0-5.04-3.36-8.39-8.39-8.39Z"/>
        <path class="cls-1" d="M310.56,159.22c-4.2,0-8.39,4.2-8.39,8.39,0,5.04,3.36,8.39,8.39,8.39s8.39-3.36,8.39-8.39-3.36-8.39-8.39-8.39Z"/>
        <path class="cls-1" d="M260.2,159.22c-4.2,0-8.39,4.2-8.39,8.39,0,5.04,3.36,8.39,8.39,8.39s8.39-3.36,8.39-8.39-3.36-8.39-8.39-8.39Z"/>
        <path class="cls-1" d="M285.38,184.4c-4.2,0-8.39,4.2-8.39,8.39,0,5.04,3.36,8.39,8.39,8.39s8.39-3.36,8.39-8.39-3.36-8.39-8.39-8.39Z"/>
        <path class="cls-1" d="M461.64,108.86c-4.2,0-8.39,4.2-8.39,8.39,0,5.04,3.36,8.39,8.39,8.39s8.39-3.36,8.39-8.39-3.36-8.39-8.39-8.39Z"/>
        <path class="cls-1" d="M486.82,134.04c-4.2,0-8.39,4.2-8.39,8.39,0,5.04,3.36,8.39,8.39,8.39s8.39-3.36,8.39-8.39-3.36-8.39-8.39-8.39Z"/>
        <path class="cls-1" d="M436.46,134.04c-4.2,0-8.39,4.2-8.39,8.39,0,5.04,3.36,8.39,8.39,8.39s8.39-3.36,8.39-8.39-3.36-8.39-8.39-8.39Z"/>
        <path class="cls-1" d="M486.82,83.68c-4.2,0-8.39,4.2-8.39,8.39,0,5.04,3.36,8.39,8.39,8.39s8.39-3.36,8.39-8.39-3.36-8.39-8.39-8.39Z"/>
        <path class="cls-1" d="M436.46,83.68c-4.2,0-8.39,4.2-8.39,8.39,0,5.04,3.36,8.39,8.39,8.39s8.39-3.36,8.39-8.39-3.36-8.39-8.39-8.39Z"/>
        <path class="cls-1" d="M411.28,108.86c-4.2,0-8.39,4.2-8.39,8.39,0,5.04,3.36,8.39,8.39,8.39s8.39-3.36,8.39-8.39-3.36-8.39-8.39-8.39Z"/>
        <path class="cls-1" d="M360.92,108.86c-4.2,0-8.39,4.2-8.39,8.39,0,5.04,3.36,8.39,8.39,8.39s8.39-3.36,8.39-8.39-3.36-8.39-8.39-8.39Z"/>
        <path class="cls-1" d="M386.1,134.04c-4.2,0-8.39,4.2-8.39,8.39,0,5.04,3.36,8.39,8.39,8.39s8.39-3.36,8.39-8.39-3.36-8.39-8.39-8.39Z"/>
        <path class="cls-1" d="M335.74,134.04c-4.2,0-8.39,4.2-8.39,8.39,0,5.04,3.36,8.39,8.39,8.39s8.39-3.36,8.39-8.39-3.36-8.39-8.39-8.39Z"/>
        <path class="cls-1" d="M386.1,83.68c-4.2,0-8.39,4.2-8.39,8.39,0,5.04,3.36,8.39,8.39,8.39s8.39-3.36,8.39-8.39-3.36-8.39-8.39-8.39Z"/>
        <path class="cls-1" d="M335.74,83.68c-4.2,0-8.39,4.2-8.39,8.39,0,5.04,3.36,8.39,8.39,8.39s8.39-3.36,8.39-8.39-3.36-8.39-8.39-8.39Z"/>
        <path class="cls-1" d="M310.56,108.86c-4.2,0-8.39,4.2-8.39,8.39,0,5.04,3.36,8.39,8.39,8.39s8.39-3.36,8.39-8.39-3.36-8.39-8.39-8.39Z"/>
        <path class="cls-1" d="M260.2,108.86c-4.2,0-8.39,4.2-8.39,8.39,0,5.04,3.36,8.39,8.39,8.39s8.39-3.36,8.39-8.39-3.36-8.39-8.39-8.39Z"/>
        <path class="cls-1" d="M285.38,134.04c-4.2,0-8.39,4.2-8.39,8.39,0,5.04,3.36,8.39,8.39,8.39s8.39-3.36,8.39-8.39-3.36-8.39-8.39-8.39Z"/>
        <path class="cls-1" d="M285.38,83.68c-4.2,0-8.39,4.2-8.39,8.39,0,5.04,3.36,8.39,8.39,8.39s8.39-3.36,8.39-8.39-3.36-8.39-8.39-8.39Z"/>
        <path class="cls-1" d="M461.64,58.5c-4.2,0-8.39,4.2-8.39,8.39,0,5.04,3.36,8.39,8.39,8.39s8.39-3.36,8.39-8.39-3.36-8.39-8.39-8.39Z"/>
        <path class="cls-1" d="M461.64,8.14c-4.2,0-8.39,4.2-8.39,8.39,0,5.04,3.36,8.39,8.39,8.39s8.39-3.36,8.39-8.39c0-5.04-3.36-8.39-8.39-8.39Z"/>
        <path class="cls-1" d="M486.82,33.32c-4.2,0-8.39,4.2-8.39,8.39,0,5.04,3.36,8.39,8.39,8.39s8.39-3.36,8.39-8.39-3.36-8.39-8.39-8.39Z"/>
        <path class="cls-1" d="M436.46,33.32c-4.2,0-8.39,4.2-8.39,8.39,0,5.04,3.36,8.39,8.39,8.39s8.39-3.36,8.39-8.39-3.36-8.39-8.39-8.39Z"/>
        <path class="cls-1" d="M411.28,58.5c-4.2,0-8.39,4.2-8.39,8.39,0,5.04,3.36,8.39,8.39,8.39s8.39-3.36,8.39-8.39-3.36-8.39-8.39-8.39Z"/>
        <path class="cls-1" d="M360.92,58.5c-4.2,0-8.39,4.2-8.39,8.39,0,5.04,3.36,8.39,8.39,8.39s8.39-3.36,8.39-8.39-3.36-8.39-8.39-8.39Z"/>
        <path class="cls-1" d="M411.28,8.14c-4.2,0-8.39,4.2-8.39,8.39,0,5.04,3.36,8.39,8.39,8.39s8.39-3.36,8.39-8.39-3.36-8.39-8.39-8.39Z"/>
        <path class="cls-1" d="M360.92,8.14c-4.2,0-8.39,4.2-8.39,8.39,0,5.04,3.36,8.39,8.39,8.39s8.39-3.36,8.39-8.39-3.36-8.39-8.39-8.39Z"/>
        <path class="cls-1" d="M386.1,33.32c-4.2,0-8.39,4.2-8.39,8.39,0,5.04,3.36,8.39,8.39,8.39s8.39-3.36,8.39-8.39-3.36-8.39-8.39-8.39Z"/>
        <path class="cls-1" d="M335.74,33.32c-4.2,0-8.39,4.2-8.39,8.39,0,5.04,3.36,8.39,8.39,8.39s8.39-3.36,8.39-8.39-3.36-8.39-8.39-8.39Z"/>
        <path class="cls-1" d="M310.56,58.5c-4.2,0-8.39,4.2-8.39,8.39,0,5.04,3.36,8.39,8.39,8.39s8.39-3.36,8.39-8.39-3.36-8.39-8.39-8.39Z"/>
        <path class="cls-1" d="M260.2,58.5c-4.2,0-8.39,4.2-8.39,8.39,0,5.04,3.36,8.39,8.39,8.39s8.39-3.36,8.39-8.39-3.36-8.39-8.39-8.39Z"/>
        <path class="cls-1" d="M310.56,8.14c-4.2,0-8.39,4.2-8.39,8.39,0,5.04,3.36,8.39,8.39,8.39s8.39-3.36,8.39-8.39c0-5.04-3.36-8.39-8.39-8.39Z"/>
        <path class="cls-1" d="M260.2,8.14c-4.2,0-8.39,4.2-8.39,8.39,0,5.04,3.36,8.39,8.39,8.39s8.39-3.36,8.39-8.39c0-5.04-3.36-8.39-8.39-8.39Z"/>
        <path class="cls-1" d="M285.38,33.32c-4.2,0-8.39,4.2-8.39,8.39,0,5.04,3.36,8.39,8.39,8.39s8.39-3.36,8.39-8.39-3.36-8.39-8.39-8.39Z"/>
        <path class="cls-1" d="M503.61,8.39c0-5.04-3.36-8.39-8.39-8.39H8.39C3.36,0,0,3.36,0,8.39v486.82c0,5.04,3.36,8.39,8.39,8.39h243.41c5.04,0,8.39-3.36,8.39-8.39v-100.72h201.44c23.5,0,41.97-26.02,41.97-58.75h0V8.39h0ZM260.2,16.79h226.62v271.72c-2.29-2.38-4.77-4.43-7.4-6.12-.39-.25-.77-.5-1.16-.73-.24-.14-.49-.27-.73-.41-.33-.18-.66-.37-.99-.54-.31-.16-.63-.31-.94-.47-.25-.12-.5-.24-.75-.35-.38-.17-.76-.34-1.14-.49-.15-.06-.31-.12-.46-.18-1.96-.77-3.98-1.34-6.05-1.72-.21-.04-.42-.08-.62-.11-.37-.06-.74-.11-1.12-.16-.34-.04-.67-.07-1.01-.11-.28-.02-.57-.05-.85-.07-.65-.04-1.3-.07-1.95-.07h-201.44V16.79ZM218.23,377.7c-7.97,0-15.35-6.81-20.04-17.08-3.2-7.03-5.14-15.68-5.14-24.89,0-4.96.56-9.75,1.58-14.22,3.64-15.96,13.11-27.74,23.6-27.74h33.55s.01,0,.02,0h180.27c-7.69,10.62-12.41,25.43-12.41,41.97s4.71,31.35,12.4,41.97h-213.85ZM243.41,486.82H16.79V16.79h226.62v260.2h-25.18c-23.5,0-41.97,26.02-41.97,58.75s18.46,58.75,41.97,58.75h25.18v92.33h0ZM461.64,377.7c-7.97,0-15.36-6.81-20.04-17.08-3.2-7.03-5.14-15.68-5.14-24.89,0-4.96.56-9.75,1.58-14.22,3.64-15.95,13.09-27.73,23.58-27.74h.02c9.09,0,17.4,8.85,21.83,21.59,2.11,6.08,3.35,13.05,3.35,20.38,0,22.66-11.75,41.97-25.18,41.97Z"/>
      </g>
      <g id="layer1">
        <path id="path13027" class="cls-1" d="M634.48,231.24c-6.32,3.16-14.33,7.64-20.48,15.42-6.16,7.78-10.5,19.05-7.66,33.66l38.48,108-12.42,12.42c-7.85,7.54,3.77,19.16,11.31,11.31l59.08-59.08c4.42-4.03,9.85-2.84,12.69,0,3.53,3.52,3.61,9.08,0,12.69l-77.87,77.88-23.03-23.03c-9.3-9.3-24.59-9.3-33.89,0l-96.73,96.67c-18.55,18.55-18.55,48.76,0,67.31,18.55,18.55,48.78,18.55,67.33,0l96.67-96.67c8.97-8.97,9.2-23.5.87-32.88l77.97-77.97c9.68-9.68,9.93-25.88,0-35.31-11.35-10.78-26.06-8.92-35.31,0l-34.14,34.14-35.34-98.97c-1.34-9.85.87-15.59,4.55-20.23,3.74-4.73,9.49-8.24,15.09-11.05,73.82-36.91,213.85-84.63,277.77-106.72,4.48-1.55,7.14-.64,9,1.22,1.86,1.86,2.77,4.52,1.22,9-22.09,63.91-69.81,203.94-106.72,277.77-2.8,5.6-6.3,11.37-11.03,15.11-4.64,3.67-10.37,5.87-20.19,4.55l-77.58-27.7c-10.05-3.59-15.44,11.48-5.39,15.08l78.66,28.09c.5.18,1.01.3,1.53.37,13.84,2.03,25.11-1.69,32.89-7.84,7.78-6.16,12.26-14.18,15.42-20.5,38.05-76.1,85.48-215.89,107.53-279.69,3.16-9.14,1.91-19-5.03-25.55-8.04-7.6-17.89-7.65-25.55-5.03-63.8,22.05-203.59,69.48-279.69,107.53h0ZM597.63,429.35c2.03,0,4.04.81,5.66,2.42l33.37,33.38c3.23,3.23,3.23,8.11,0,11.34l-96.67,96.67c-12.48,12.48-32.23,12.48-44.7,0-12.48-12.48-12.48-32.18,0-44.66l96.67-96.73c1.62-1.61,3.65-2.42,5.67-2.42h0Z" vector-effect="none"/>
      </g>
    </g>
  </g>
</svg>