<?xml version="1.0" encoding="UTF-8"?>
<svg id="Laag_2" data-name="Laag 2" xmlns="http://www.w3.org/2000/svg" viewBox="0 0 753.04 700.8">
  <defs>
    <style>
      .cls-1 {
        fill: #000;
        stroke-width: 0px;
      }
    </style>
  </defs>
  <g id="svg14514">
    <g>
      <g>
        <path class="cls-1" d="M469.33,683.73h-51.2V197.33c0-5.12-3.41-8.53-8.53-8.53H68.27c-5.12,0-8.53,3.41-8.53,8.53v486.4H8.53c-5.12,0-8.53,3.41-8.53,8.53s3.41,8.53,8.53,8.53h460.8c5.12,0,8.53-3.41,8.53-8.53s-3.41-8.53-8.53-8.53ZM110.93,683.73V240h256v443.73H110.93ZM384,683.73V231.47c0-5.12-3.41-8.53-8.53-8.53H102.4c-5.12,0-8.53,3.41-8.53,8.53v452.27h-17.07V205.87h324.27v477.87h-17.07Z"/>
        <path class="cls-1" d="M341.33,436.27h-34.13c-5.12,0-8.53,3.41-8.53,8.53v8.53h-17.07c-5.12,0-8.53,3.41-8.53,8.53s3.41,8.53,8.53,8.53h17.07v8.53c0,5.12,3.41,8.53,8.53,8.53h34.13c5.12,0,8.53-3.41,8.53-8.53v-34.13c0-5.12-3.41-8.53-8.53-8.53ZM332.8,470.4h-17.07v-17.07h17.07v17.07h0Z"/>
      </g>
      <g id="layer1">
        <path id="path12997" class="cls-1" d="M425.04,0c-13.16,0-23.97,10.81-23.97,23.97v96.03c0,13.16,10.81,23.97,23.97,23.97,10.91.24,10.91-16.24,0-16-4.57,0-8.03-3.4-8.03-7.97V47.95h24.05c4.57,0,7.97,3.46,7.97,8.03v79.95c0,17.59,14.41,32.02,32,32.02s32.02-14.43,32.02-32.02v-63.95c0-4.57,3.46-8.03,8.03-8.03s7.97,3.46,7.97,8.03v7.97c0,17.59,14.43,32.02,32.02,32.02s32-14.43,32-32.02v-23.97c0-4.57,3.4-8.03,7.97-8.03h64.02c10.67,0,10.67-16.02,0-16.02h-64.02c-13.16,0-23.97,10.89-23.97,24.05v23.97c0,9-7,16-16,16s-16.02-7-16.02-16v-7.97c0-13.16-10.81-24.03-23.97-24.03s-24.05,10.87-24.05,24.03v63.95c0,9-7,16-16,16s-16-7-16-16V55.99c0-13.16-10.81-24.05-23.97-24.05h-24.05v-7.97c0-4.57,3.46-8.03,8.03-8.03h256.02c4.57,0,7.97,3.46,7.97,8.03v96.03c0,4.57-3.4,7.97-7.97,7.97h-144.05c-10.91-.24-10.91,16.24,0,16h144.05c13.16,0,23.97-10.81,23.97-23.97v-40.05h24.03c4.57,0,7.97,3.46,7.97,8.03v55.98c.43,3.56-8.12,7-11.75,8.92-45.33,23.99-136,71.98-136,71.98-3.6,1.91-7.92,3.74-12.11,7.03-4.19,3.29-8.14,9.17-8.14,16.06v39.98h-39.98c-4.42.02-7.99,3.61-7.97,8.03v32c.02,4.39,3.57,7.95,7.97,7.97h7.97v120c0,13.16,10.89,24.05,24.05,24.05h32c13.16,0,23.97-10.89,23.97-24.05v-95.95c0-10.67-16-10.67-16,0v95.95c0,4.57-3.4,8.05-7.97,8.05h-32c-4.57,0-8.05-3.48-8.05-8.05v-120h72.06c4.39-.02,7.95-3.57,7.97-7.97v-32c.02-4.42-3.55-8.01-7.97-8.03h-40.05v-39.98c0-1.97.15-2.03,2-3.48,1.85-1.46,5.52-3.2,9.75-5.44l136-71.98c3.6-1.91,7.98-3.74,12.17-7.03,4.19-3.29,8.09-9.17,8.09-16.06v-55.98c0-13.16-10.83-24.03-23.98-24.03h-24.03V23.97c0-13.16-10.81-23.97-23.97-23.97h-256.02ZM537,303.95h80.02v16h-80.02v-16Z" vector-effect="none"/>
      </g>
    </g>
  </g>
</svg>