<svg id="svg14514" height="512" viewBox="0 0 16.933333 16.933334" width="512" xmlns="http://www.w3.org/2000/svg" xmlns:svg="http://www.w3.org/2000/svg"><g id="layer1" transform="translate(0 -280.067)"><path id="path12997" d="m3.4395841 280.59684c-.4351602 0-.7927154.35755-.7927154.79271v3.17604c0 .43516.3575526.79271.7927154.79271.3606959.008.3606959-.53717 0-.52916-.1511564 0-.2656178-.1124-.2656178-.26355v-2.3828h.7953004c.1511592 0 .2635489.11445.2635515.26561v2.64429c0 .58174.4765913 1.05885 1.0583334 1.05885.581742 0 1.0588492-.47711 1.0588492-1.05885v-2.11512c0-.15116.1144588-.26561.2656179-.26561.1511564 0 .2635488.11446.2635488.26561v.26355c0 .58174.4771073 1.05885 1.0588493 1.05885s1.0583333-.47711 1.0583333-1.05885v-.79272c.0000027-.15116.1123924-.26561.2635515-.26561h2.1171824c.352864 0 .352864-.52969 0-.52969h-2.1171824c-.4351629 0-.7927102.36015-.7927181.7953v.79272c0 .29774-.2314284.52917-.5291667.52917s-.5296826-.23143-.5296826-.52917v-.26355c0-.43516-.3575553-.79478-.7927155-.79478-.4351629 0-.7953005.35963-.7953005.79478v2.11512c0 .29774-.2314284.52916-.5291666.52916-.2977383 0-.5291667-.23142-.5291667-.52916v-2.64429c-.0000027-.43515-.3575553-.7953-.7927182-.7953h-.7953004v-.26355c0-.15115.1144614-.26561.2656178-.26561h8.4671829c.151156 0 .263551.11446.263551.26561v3.17604c0 .15115-.112395.26355-.263551.26355h-4.7640507c-.3606959-.008-.3606959.53717 0 .52916h4.7640507c.435162 0 .792718-.35755.792718-.79271v-1.32447h.794783c.151156 0 .263551.11447.263551.26562v1.85156c.01421.11772-.268459.23148-.388607.29508-1.499307.79357-4.4979172 2.38073-4.4979172 2.38073-.1191736.0631-.2620089.12373-.4004945.23255-.1384829.10881-.2692321.3034-.2692321.53123v1.3224h-1.3224007c-.1461188.00053-.2641044.1195-.2635488.26561v1.05834c.0005292.14531.1182343.26297.2635488.26355h.2635488v3.96875c0 .43516.3601403.7953.7953005.7953h1.0583333c.4351629 0 .7927182-.36014.7927182-.7953v-3.17345c0-.35287-.5291667-.35287-.5291667 0v3.17345c0 .15116-.112395.26613-.2635515.26613h-1.0583333c-.1511565 0-.2661338-.11498-.2661338-.26613v-3.96875h2.383319c.145314-.00053.262969-.11824.263549-.26355v-1.05834c.000529-.14611-.11743-.26503-.263549-.26561h-1.3244671v-1.3224c0-.0653.00484-.0671.066146-.11524.06133-.0482.1825439-.10576.3224609-.17983l4.4979172-2.38074c.119171-.0631.264073-.12373.402558-.23254.138486-.10882.267685-.30341.267685-.53124v-1.85156c.000002-.43516-.358072-.79478-.793234-.79478h-.794783v-1.32241c0-.43516-.357558-.79271-.792718-.79271zm3.7031322 10.05262h2.646352v.52916h-2.646352z" font-variant-ligatures="normal" font-variant-position="normal" font-variant-caps="normal" font-variant-numeric="normal" font-variant-alternates="normal" font-feature-settings="normal" text-indent="0" text-align="start" text-decoration-line="none" text-decoration-style="solid" text-decoration-color="rgb(0,0,0)" text-transform="none" text-orientation="mixed" white-space="normal" shape-padding="0" isolation="auto" mix-blend-mode="normal" solid-color="rgb(0,0,0)" solid-opacity="1" vector-effect="none"/></g></svg>