<?xml version="1.0" encoding="UTF-8"?>
<svg id="Laag_2" data-name="Laag 2" xmlns="http://www.w3.org/2000/svg" viewBox="0 0 425.17 492.91">
  <defs>
    <style>
      .cls-1, .cls-2 {
        fill: #000;
        stroke-width: 0px;
      }

      .cls-2 {
        fill-rule: evenodd;
      }
    </style>
  </defs>
  <g id="Layer_1" data-name="Layer 1">
    <g id="Icons">
      <g>
        <path class="cls-2" d="M251.51,130.43c-.35,3.29-2.43,6.79-4,10.02-18.4,37.04,33.48,16.2,34.48,25.07,3.35,13.54-19.18,33.92-25.76,41.66-14.59,15.46-9.87,23.94-34.66,18.63-9.43-2.38-27.87-10.64-31.03-15.36,1.21-3.52,4.38-6.38,6.32-9.81,5.97-11.22,2-26.04,6.09-37.83,10.14-4.93,17.53-9.23,16.13-22.06-2.18-4.57-8.2-4.44-11.21-7.07,3.49-22.9-16.7-25.53-32.78-25.35-4.85-.39-12.34-4.31-17.62-1.34-11.54,5.87-7.99,42.9-10.33,53.29-1.88,9.71-6.62,23.44-10.22,34.98-3.82,10.94-6.48,22.8-13.94,31.94-20.71,24.01-24.82,26.47-33.97,49.86-6.48,23.02,17.64,39.18,39.24,42.03,10.11,1.28,14.11-.31,26.55-1-3.74,2.13-9.05,1.74-13.77,2.15-14.49.57-21.43,2.47-30.3,10.34-17.54,15.25,4.02,30.4-18.99,19.89-16.54-6.43-32.98-17.41-47.71-16.9-9.99.02-19.23,6.6-25.4,15.7-4.24,7.56.21,10.25,7.09,14.27,39.3,21.12,32.42,5.22,49.18,5.64,7.9,1.26,28.35,8.13,39.69,9.87,14.82,2.67,7.3-20.82,20.48-10.61,2.03,1.4,4.25,2.56,6.65,2.87,6.84.88,10.79-6.98,16.92-10.73,6.44-4.04-.12,17.58,13.18,17.28,8.96.93,13.37-5.85,20.31-9.86,4.12,7.05,2.84,17.11,6.31,24.83,11.95,24.34,39.62,4.89,45.79,5.23,4.55,3.24,17.94,13.8,23.91,19.86-2.46,5.17-6.43,9.5-6.27,15.37-.45,19.88-4.38,19.17-7.75,30.2-3.63,10.77,4.18,21.15,13.8,25.33,10.7,4.33,22.9-.66,32.55-8.12,24.31-16.89,2.74-33.32-12.84-44.33,5.62-2.2,12.98-1.21,18.68-4.35,13.96-10.59-9.68-23.68,7.85-36.23,20.99-16.61,18.52-25.21,4.9-46.79-10.88-15.68-17.62-26.59-22.46-42.43,2.11-3.54,7.36-13.53,9.9-14.27,11.27.57,21.12,8.34,32.53,10.25,9,1.34,14.58-5.48,20.48-8.99,4.79-2.65,10.58-1.94,14.98-4.62,18.94-14.29-3.01-27.34-3.16-29.2,9.47-16.62,27.41-14.67,35.9-33.38,5.49-12.7,4.88-27.29-4.4-31.26-9.38-4.4-23.82.36-28.03-9.84-2.32-5.93,1.35-13-.41-19.96,28.16,4.27,34.83-.7,34.37-28.64,12.54-29.37,12.14-19.6,10.89-47.44,2.29-19.2,8.3-27.2-7.75-40.23-7.71-6.26-17.6-9.13-24.79-16.34-16.96-29.14-36.72-13.52-61.52-10.48-19.93,5.21-42.24,14.39-62.81,17.94-6.14,1.48-14.54,4.09-20.36,8.1-20.99,14.13-22.55,45.87-22.61,72.32.52,7.5,28.56,8.37,31.71,9.91h0ZM171.22,369.64c-3.32-25.19-14.02-19.93-28.11-6.39-3.23,0-6.08-3.99-9.68-4.84-14.77-3.08-15.07,11.28-16.83,12.76-10.59-1.34-31.38-8.15-39.99-9.75-12.34-2.46-18,9.07-28.73,3.58-10.7-4.49-15.68-6.44-22.63-11.27,20.45-30.41,52.17,6.25,77.35,8.22,18.4-3.71-1.74-19.02,18.82-29.43,8.1-5.36,19.26-3.44,30.45-5.2,5.16.15,24.48-12.16,16.22-17.11-3.85-1.62-10.37,0-15.56.05-42.46,6.63-58.71-16.28-56.41-28.11,13.03-41.27,36.51-39.37,46.28-77.92,4.47-13.91,10.14-30.2,12.55-42.18,2.42-13.37-.07-51.58,8.85-48.07,16.02,4.6,22.94.81,30.81,5.18,14.17,9.52-5.19,17.74,16.68,24.9-.73,10.3-12.37,8.65-15.56,15.34-3.21,8.52-2.37,19.54-3.6,29.11,0,10.28-10.73,15.47-9.52,23.35,2.09,8.52,17.26,13.73,19.88,15.3,11.78,5.36,24.15,9.61,36.96,7.58,12.53-2.48,15.76-16.57,23.06-22.59,10.12-11.1,25.95-26.4,27.71-41.55.87-7.7-1.86-13.37-9.14-15.05-8.97-1.91-16.9.93-25.43.08-14.63-.47,16.11-27.86-1.66-32.81-7.86-1.92-18.3-2.37-26.38-5.22,1.66-82.69,28.67-60.87,82.39-82.56,8.37-3.28,18.15-5.36,26.49-6.73,12.39-2.63,29.96-9.89,37.83.27,10.52,16.88,18.67,16.97,30.92,25.39,15.24,10.51,8,18.96,6.63,31.95-.6,6.09.58,11.91.51,17.97.53,12.7-11.04,21.89-11.8,34.22,1.33,26.25-7.25,20.58-26.92,19.06-3.54-.15-6.88,1.96-7.27,5.66-.43,4.18,1.26,7.17.11,11.74-1.35,11.04.61,18.64,10.6,23.44,13.13,6.48,28.58-3.52,25.2,16.74-3.69,25.86-32.22,21.84-39.06,44.45-.93,9.32,17.9,13.32,7.86,22.41-1.29.96-2.61,1.24-4.2,1.6-15.44,1.94-17.05,10.42-25.26,11.48-12.41-.73-33.37-17.39-42.41-6.82-6.23,7.95-12.06,16.86-10.36,21.39,12.79,39.02,41.35,57.81,30.17,71.09-7.77,9.04-21.56,15.68-19.69,28.15.54,6.27,4.46,13.61,3.29,16.37-8.2,3.56-24.56,1.21-24.2,12.65.73,4.32,7.26,7.05,9.64,8.95,3.81,2.99,11.27,8.56,14.33,14.59,3.81,6.73-4.69,11.42-9.34,15.21-8.96,6.25-20.54,10-28.95-.13-8.16-9.51,4.53-20.59,4.76-29.79.77-5.57.18-10.92,1.61-16.35,2.65-5.51,7.6-10.16,4.98-15.48-4.75-6.89-26.98-23.46-28.68-24.2-12.38-2.06-26.43,14.15-38.96,2.85-2.62-2.95-3.17-6.55-3.9-10.53-6.62-46.31-21.63-8.89-32.71-12.97h0ZM46.6,397.35c1.76,12.78,12.4,17.07,22.58,14.86,5.46-1.77,8.74-7.16,13.97-9.64,35.21-12.24,16.82-24.08,10.97-25.2-9.84-1.57-18.19-4.25-22.86-3.24-5.61,1.04-10.08,3.89-15.47,4.17-14.88-.8-26.77-15.73-39.41-9.7-6.61,2.92-13.91,6.13-13.88,8.83-.28,10.98,8.45,34.26,22.64,27.07,2.57-1.61,3.62-3.7,5.26-6.42,3.2-5.16,12.96-1.31,16.2-.73ZM95.88,387.16c-7.96,6.92-18.27,6.75-25.26,14.81-4.97,5.59-12.9,1.92-14.78-1.03-2.39-9.83-2.76-10.52-10.9-12.25-20.94-4.9-20.71,7.1-24.2,9.1-5.96.83-9.82-14.23-10.07-17.52,3.69-1.79,8.93-5.43,13.32-5.13,9.67,2.58,17.12,8.71,27.34,10.79,15.46,1.94,18.1-7.69,32.03-2.34,4.36,1.11,9.44.33,12.53,3.57h0ZM50.02,327.26c2.74,8.35,18.58-3.87,27.71,8.54,1.84,1.38,3.61,1.95,6.04,1.98,15.5.26,20.83-7.91,7.42-16.89-2.95-2.74-5.11-7.24-9.34-8.55-4.4-1.67-8.99-.15-13.83-.81-14.26-4.96-21.48,2.34-17.99,15.73h0ZM89.11,329.44c-14.07,2.42-3.14-9.58-31.9-7.25-1.2-7.33,5.9-3.19,9.59-2.77,3.96.71,7.52-.18,11.49.21,4.58,1.85,6.28,7.41,10.82,9.81h0ZM199.66,203.18c-3.62,5.67,2.82,6.61,5.79,8.26,4.55,2.28,9.34,5.18,12.66,6.3,10.72,6.18,16.36,6.06,23.94-1.81,3.25-3.92,2.26-9.95,6.32-13.32,3.3-4.07,7.17-5.59,10.6-8.01,4.98-3.84,8.34-12.52,6.27-19.29-3.53-11.44-19.51-8.92-28.02-5.13-4.73,2.38-6.52,6.99-10.93,9.89-4.87,2.15-8.57,5-11.99,9.1-4.95,4.62-10.08,8.91-14.63,14h0ZM209.4,204.59c5.87-5.02,11.03-11.21,17.29-15.89,9.26-3.88,9.79-8.92,14.49-11.56,9.7-3.51,21.35-4.29,14.94,8.7-1.66,3.17-5.08,4.02-8.13,6.2-3.75,2.99-7.41,6.84-9.61,11.01-2.1,9.22-5.58,14.33-14.48,8.62-4.91-2.27-8.72-3.84-14.5-7.09ZM153.97,95.59c.45,4.95,5.08,4.47,7.31,2.84,13.75-6.38,26.01-10.01,21.04-24.53-1.14-3.93-2.85-11.43-8.02-13.4-7.68-2.37-10.03,6.87-11.52,10.85-6.18,7.88-8.7,15.03-8.81,24.24h0ZM172.16,69.07c6.85,15.51,2,14.03-9.47,19.98,1.98-9.28,7.36-11.98,9.47-19.98ZM175.49,47.69c-2.49,3.03.09,5.97,2.8,7.75,8.07,6.15,26.1-3.99,26.78-7.14,2.77-7.81-5.17-15.42-12.83-13.41-9.16,1.71-12.39,7.65-16.75,12.8h0ZM197.57,44.92c-4.57,2.13-9.06,4.9-13.2,4.42,2.82-4.5,11.65-9.93,13.2-4.42ZM244.29,25.6c7.68-5.25-1.51-13.14-7.78-11.28-4.57.74-6.97,3.28-10.99,4.53-8.96,1.64-19.1,5.34-23.45,12.4-1.42,5.05,8.25,7.44,10.94,8.74,15.44,4.85,24.41-.54,31.29-14.39ZM236.85,22.43c-5.12,11.58-12.68,13.59-23.54,9.15,7.17-4.9,16.08-4.48,23.54-9.15ZM252.21,13.06c-8.27,2.69,1.18,12.45,4.92,14.8,6.71,3.98,16.03,1.75,21.75,1.4,17.68-4.39,16.75-20.85-2.19-17.34-8.2.48-16.28-.75-24.47,1.15h0ZM297.38,18.34c.88,6.82,7.4,2.46,12.04,2.74,8.25-.47,15.16.72,20.74-5.18,7.86-14.86-13.46-11.93-15.71-12.52-15.41-3.2-16.92,2.46-17.07,14.96ZM281.54,19.81c-5.04,3.12-19.53,3.26-21.55.21,7.17-.29,14.03.25,21.55-.21ZM322.86,11.63c-5.22,2.18-10.76.98-17.41,1.89.08-.78.34-2.05.81-3.04,5.74.35,10.28,1.35,16.6,1.15Z"/>
        <path class="cls-1" d="M276.48,492.91c-4.04,0-7.25-.87-9.5-1.78-10.52-4.57-19.4-16.07-15.23-28.44,1.1-3.62,2.31-6.1,3.37-8.28,2.21-4.55,3.95-8.14,4.25-21.12-.11-4.88,2.12-8.68,4.27-12.36.5-.86.99-1.68,1.44-2.51-6.06-5.8-17.08-14.5-21.58-17.8-1.25.25-3.63,1.16-5.77,1.98-10.97,4.2-31.38,12.03-41.53-8.66-1.8-4-2.42-8.33-3.01-12.53-.5-3.52-.98-6.88-2.08-9.77-1.07.76-2.11,1.57-3.13,2.36-4.45,3.47-9.05,7.05-16.26,6.36-.06,0-.12,0-.18,0-9.61,0-10.97-9.38-11.7-14.45-.13-.9-.29-2.02-.47-2.82-1.71,1.16-3.3,2.7-4.85,4.19-3.51,3.39-7.48,7.24-13.12,6.51-2.49-.32-4.96-1.36-7.75-3.29l-.11-.08c-2.96-2.29-3.91-2.06-3.95-2.05-.56.16-1.4,2.36-1.9,3.68-1.58,4.17-4.23,11.15-13.54,9.47-3.31-.51-7.4-1.45-11.7-2.56,2.22,1.91,3.98,4.43,4.2,7.42.51,6.89-7.07,13.12-22.52,18.51-2.02.98-3.77,2.52-5.62,4.14-2.49,2.18-5.06,4.44-8.53,5.56l-.24.07c-6.48,1.41-12.88.34-17.57-2.94-3.98-2.78-6.63-7.02-7.73-12.31-.22-.06-.45-.12-.69-.18-3.33-.88-9.54-2.51-11.21.17l-.52.86c-1.41,2.37-2.75,4.61-5.54,6.35l-.19.11c-4.56,2.31-9.15,2.15-13.27-.45C4.3,400.77-.2,385.69,0,377.37c-.05-4.04,5.77-6.82,15.28-11.02,2.49-1.19,4.94-1.68,7.36-1.68h.06c-6.03-3.62-11.23-7.74-6.26-16.62l.11-.18c7.11-10.5,17.38-16.78,27.46-16.8,1.94-.07,3.9.05,5.87.31-.97-.74-1.75-1.82-2.25-3.35l-.04-.15c-1.95-7.48-.88-13.58,3.03-17.18,3.95-3.65,10.32-4.22,17.95-1.62,1.67.2,3.35.12,5.11.03,2.9-.14,5.9-.28,8.96.86,3.54,1.12,5.79,3.88,7.77,6.3.8.98,1.55,1.91,2.33,2.65,9.04,6.12,9.05,11.32,8.25,13.88-1.54,4.91-7.84,7.61-17.28,7.47-2.98-.04-5.22-.78-7.49-2.48l-.3-.22-.22-.3c-4.22-5.73-10.07-5.17-15.73-4.62-1.02.1-2.07.2-3.11.25,6.82,1.97,13.82,5.28,21.07,8.71,4.82,2.28,9.8,4.63,14.7,6.53l.13.06c4.72,2.15,6.98,2.93,8.07,3.17-.02-.48-.06-1.08-.1-1.56-.35-4.54-1.01-12.99,8.34-21.11,4.52-4.01,8.65-6.54,13.18-8.15-13.55-3.1-25.7-10.65-31.93-20.11-4.82-7.31-6.11-15.63-3.74-24.06l.08-.23c7.97-20.36,12.21-25.2,26.29-41.26,2.39-2.73,5.08-5.79,8.12-9.32,5.59-6.85,8.45-15.71,11.21-24.27.73-2.26,1.48-4.59,2.27-6.86.76-2.45,1.61-5.08,2.46-7.75,3.06-9.55,6.23-19.43,7.67-26.87.66-2.92.83-8.21,1.03-14.34.53-15.97,1.18-35.84,10.57-40.68,4.51-2.51,9.94-1.09,14.31.05,1.71.45,3.32.87,4.59.99,9.82-.11,23.67.74,30.87,9.03,3.81,4.38,5.32,10.3,4.5,17.63.76.4,1.69.75,2.65,1.11,2.83,1.06,6.36,2.38,8.13,6.09l.18.38.05.42c1.61,14.71-7.82,19.84-16.56,24.11-1.43,4.69-1.62,9.9-1.82,15.39-.23,6.29-.47,12.76-2.69,18.66,2.65-2.7,5.42-5.21,8.12-7.66,1.29-1.17,2.58-2.34,3.86-3.53,3.68-4.36,7.58-7.33,12.6-9.58,1.65-1.12,2.93-2.58,4.27-4.12,1.84-2.11,3.74-4.29,6.75-5.8l.11-.05c3.73-1.66,8.36-2.93,12.9-3.28-2.61-.92-4.8-2.36-6.25-4.57-3.02-4.59-2.24-11.36,2.41-20.71.29-.58.6-1.19.91-1.81.9-1.76,1.81-3.56,2.36-5.24-1.31-.21-3.07-.45-4.69-.67-14.24-1.91-26.07-4.04-26.54-10.92v-.18c.05-28.31,1.94-59.74,23.71-74.39,6.17-4.25,14.92-6.95,21.17-8.46l.16-.03c12.42-2.14,25.65-6.43,38.45-10.57,3.83-1.24,7.56-2.45,11.22-3.59-.8.02-1.62.05-2.44.1h-.15s-.15,0-.15,0c-1.04-.06-2.44.23-3.78.52-2.64.56-5.63,1.19-7.99-.47-1.43-1.01-2.31-2.68-2.6-4.96l-.02-.17v-.18c.08-6.84.47-12.77,4.5-16,3.16-2.54,7.96-2.96,15.58-1.38h.06c.3.05,1.19.05,1.91.05,4.64,0,13.27.02,16.38,5.19.48.8.8,1.67.96,2.6l2.05-.06-1.96.82c.17,2.19-.5,4.72-1.99,7.54l-.16.3-.23.25c-.4.42-.8.81-1.21,1.17,3.82-.74,7.53-1.69,11.16-2.62,17.14-4.4,33.34-8.56,47.16,14.92,3.73,3.65,8.21,6.12,12.95,8.72,3.86,2.12,7.85,4.31,11.43,7.22,14,11.36,12.51,19.7,10.25,32.34-.52,2.93-1.12,6.25-1.56,9.92l.2,4.28c.81,17.27.82,17.6-4.67,29.33-1.57,3.34-3.7,7.89-6.42,14.23.2,15.02-1.85,23.02-7.02,27.54-5.69,4.97-14.89,5.16-26.91,3.56.15,2.57-.15,5.06-.43,7.34-.39,3.23-.76,6.28.21,8.77,1.93,4.66,6.56,5.28,13.95,5.9,4.36.37,8.87.74,12.81,2.59,3.45,1.47,6.14,4.35,7.71,8.3,2.74,6.87,1.94,16.92-2.08,26.22-4.82,10.62-12.38,15.02-19.7,19.27-5.82,3.38-11.34,6.59-15.42,12.88.2.19.42.39.62.58,3.52,3.28,10.07,9.38,9.66,17.25-.25,4.88-3.17,9.45-8.68,13.61l-.21.14c-2.62,1.6-5.51,2.14-8.3,2.66-2.45.46-4.77.9-6.78,2.01-1.29.77-2.67,1.79-4.13,2.88-4.76,3.54-10.15,7.56-17.93,6.39-5.53-.93-10.6-3.09-15.51-5.19-5.47-2.34-10.64-4.55-16.08-4.98-1.74,1.48-5.5,8.08-6.97,10.66-.28.5-.55.96-.79,1.38,4.55,14.43,10.72,24.74,21.8,40.69l.06.09c13.98,22.15,17.13,32.21-5.46,50.08l-.1.07c-7.75,5.55-6.11,10.62-4.02,17.04,1.89,5.82,4.24,13.06-3.78,19.15l-.3.2c-3.61,1.99-7.59,2.48-11.43,2.96-.88.11-1.75.22-2.59.34,10.57,7.81,20.46,16.82,20.42,27.13-.03,6.48-4.05,12.56-11.97,18.07-10.3,7.95-18.96,10.21-25.46,10.21ZM244.07,395.56c.1,0,.2,0,.29,0l.72.04.59.42c4.42,3.15,18,13.81,24.24,20.14l1.23,1.25-.75,1.58c-.75,1.57-1.61,3.04-2.44,4.47-1.98,3.37-3.68,6.28-3.59,9.76v.06s0,.06,0,.06c-.32,14.11-2.37,18.35-4.75,23.25-1.03,2.12-2.09,4.31-3.11,7.62-3.24,9.61,3.98,18.65,12.4,22.3,11.8,4.78,24.93-3.87,30.02-7.81l.1-.08c6.53-4.54,9.85-9.25,9.87-14.02.04-9.34-11.71-18.42-22.73-26.21l-3.79-2.68,4.32-1.69c2.77-1.08,5.81-1.46,8.75-1.83,3.46-.43,6.74-.84,9.48-2.29,4.78-3.71,3.89-7.38,1.9-13.5-2.16-6.66-4.86-14.95,5.81-22.62,19.19-15.19,17.95-21.81,4.32-43.41-11.62-16.74-17.99-27.47-22.76-43.08l-.32-1.06.57-.95c.35-.6.8-1.38,1.31-2.27,4.72-8.29,7.43-12.36,10.04-13.13l.41-.12.42.02c6.59.33,12.64,2.92,18.49,5.42,4.63,1.98,9.43,4.03,14.32,4.85,5.69.86,9.8-2.22,14.17-5.46,1.5-1.11,3.04-2.26,4.62-3.2,2.78-1.54,5.61-2.07,8.34-2.59,2.41-.45,4.69-.88,6.52-1.96,4.2-3.2,6.42-6.49,6.59-9.79.29-5.54-5.15-10.61-8.07-13.33-1.77-1.65-2.66-2.48-2.77-3.79l-.06-.77.38-.67c4.81-8.45,11.59-12.39,18.15-16.2,6.94-4.04,13.5-7.85,17.64-16.97,3.49-8.08,4.27-16.66,2-22.34-1.08-2.72-2.81-4.6-5.12-5.59-3.21-1.51-7.27-1.85-11.18-2.17-7.02-.59-14.97-1.25-18.18-9.01-1.45-3.71-.98-7.53-.54-11.23.38-3.17.75-6.17.02-9.07l-.92-3.65,3.72.56c14.54,2.21,22.13,1.65,26.2-1.9,3.99-3.49,5.53-10.51,5.3-24.23v-.53s.2-.49.2-.49c2.85-6.68,5.07-11.42,6.7-14.88q4.97-10.61,4.21-26.97l-.22-4.7.02-.2c.47-3.9,1.08-7.36,1.63-10.42,2.15-12.03,3.23-18.07-8.48-27.57-3.23-2.62-6.85-4.61-10.68-6.72-4.93-2.71-10.03-5.51-14.3-9.79l-.23-.23-.16-.28c-11.95-20.53-24.46-17.32-41.76-12.88-5.45,1.4-11.09,2.85-17.12,3.6-7.61,1.99-15.44,4.53-23.72,7.21-12.93,4.19-26.31,8.52-39.06,10.73-5.83,1.41-13.91,3.89-19.45,7.71-19.72,13.27-21.46,43.14-21.53,70.13.06.28.68,1.88,6.98,3.59,4.72,1.28,10.55,2.06,15.23,2.69,4.63.62,6.9.94,8.1,1.52l1.57.77-.19,1.74c-.33,3.15-1.87,6.17-3.36,9.1-.3.59-.6,1.18-.88,1.75-3.69,7.42-4.62,12.86-2.72,15.75,3,4.54,13.2,3.97,21.4,3.51,8.19-.46,15.28-.86,16.02,4.25,2.95,12.5-11.92,28.31-21.77,38.78-1.85,1.97-3.45,3.67-4.55,4.96l-.09.1c-3.82,4.05-6.33,7.68-8.34,10.6-6.21,9-9.75,12.81-28.66,8.76-8.96-2.26-28.77-10.72-32.58-16.42l-.69-1.03.4-1.17c.85-2.48,2.43-4.56,3.96-6.56.95-1.25,1.85-2.43,2.55-3.66,3-5.63,3.24-12.42,3.51-19.61.22-5.98.44-12.17,2.4-17.81l.34-.98.93-.45c9.79-4.76,15.79-8.26,14.78-19.07-.98-1.64-2.94-2.38-5.19-3.22-1.83-.68-3.72-1.39-5.23-2.71l-1.03-.9.21-1.35c1.01-6.63-.01-11.59-3.12-15.17-5.87-6.75-18.31-7.4-27.16-7.3h-.11s-.11,0-.11,0c-1.72-.14-3.59-.63-5.56-1.14-3.69-.97-7.87-2.06-10.63-.51l-.09.05c-6.81,3.46-7.46,23.29-7.89,36.42-.21,6.38-.39,11.89-1.14,15.2-1.48,7.65-4.69,17.68-7.8,27.37-.85,2.66-1.69,5.28-2.48,7.8-.8,2.29-1.54,4.59-2.26,6.82-2.9,9-5.9,18.32-12.14,25.95-3.1,3.59-5.79,6.66-8.19,9.4-13.96,15.93-17.73,20.23-25.35,39.67-1.95,7.04-.9,13.71,3.14,19.83,6.33,9.6,19.69,17.03,34.05,18.92,6.42.81,10.13.43,15.74-.15,2.86-.3,6.11-.63,10.35-.87l10.61-.59-9.23,5.26c-3.36,1.91-7.44,2.09-11.39,2.27-1.19.05-2.31.1-3.4.2h-.12c-14.8.59-20.7,2.59-28.74,9.72-7.47,6.49-6.98,12.8-6.65,16.97.2,2.53.38,4.92-1.61,6.32-2.13,1.49-5,.85-13.35-2.96-5.04-1.96-10.08-4.34-14.95-6.65-11.31-5.35-22.02-10.4-31.69-10.06-8.48.01-17.18,5.44-23.35,14.51-2.76,4.97-1.46,6.31,6.22,10.8,25.51,13.71,30.22,11.26,35.67,8.43,2.96-1.54,6.32-3.28,12.31-3.13l.33.03c3.69.59,9.65,2.25,16.55,4.18,7.98,2.23,17.02,4.75,23.12,5.69,5.05.91,6.29-1.67,8.05-6.31,1.1-2.89,2.23-5.88,5.22-6.72,3-.85,6.17,1.21,8.31,2.87,2.09,1.43,3.84,2.2,5.5,2.41,3.26.42,5.92-2.16,9.01-5.14,1.92-1.86,3.91-3.78,6.3-5.24,1.89-1.18,3.35-.94,4.24-.53,2.31,1.07,2.71,3.81,3.21,7.28,1.01,7,2.24,10.16,6.75,10.16.07,0,.15,0,.23,0h.16s.16.01.16.01c5.3.55,8.78-2.17,12.82-5.32,1.86-1.45,3.77-2.94,5.99-4.22l2.15-1.24,1.26,2.15c2.45,4.19,3.16,9.16,3.84,13.97.57,4.03,1.12,7.83,2.59,11.1,7.48,15.23,21.5,11.38,35.22,6.12,3.56-1.37,6.19-2.37,8.14-2.37ZM36.38,392.94c3.13,0,6.36.85,8.63,1.45.84.22,1.57.41,2.04.5l1.79.32.25,1.8c.65,4.75,2.65,8.31,5.93,10.61,3.52,2.46,8.44,3.25,13.52,2.18,2.44-.83,4.49-2.62,6.66-4.53,2.06-1.81,4.2-3.68,6.89-4.96l.25-.1c17.87-6.21,19.46-11.49,19.31-13.47-.25-3.34-5.39-6.42-7.99-6.91-3.19-.51-6.33-1.16-9.1-1.73-5.43-1.12-10.12-2.09-12.76-1.52-2.31.43-4.44,1.19-6.51,1.93-2.92,1.04-5.95,2.12-9.37,2.3h-.13s-.13,0-.13,0c-6.81-.36-12.77-3.33-18.53-6.2-7.23-3.6-13.47-6.7-19.66-3.75l-.15.07c-3.98,1.75-11.32,5-12.31,6.69-.1,7.28,3.95,20.19,10.67,24.44,2.6,1.64,5.29,1.73,8.24.27,1.71-1.1,2.54-2.5,3.8-4.62l.55-.92c1.83-2.96,4.92-3.84,8.11-3.84ZM5.01,377.4s0,.05,0,.07c0-.02,0-.05,0-.07ZM79.5,334c1.3.91,2.5,1.26,4.3,1.29,7.64.13,11.81-1.96,12.43-3.97.06-.18.09-.37.09-.58l-6.79,1.17c-6.71,1.15-9.01-.59-11.53-3.19-2.28-2.35-5.12-5.29-20.6-4.03l-2.3.19-.37-2.27c-.17-1.02-.68-4.14,1.45-6.03,2.25-2,5.49-1.07,8.34-.25.94.27,1.91.55,2.56.62l.15.02c1.92.34,3.81.25,5.8.16,1.74-.08,3.54-.17,5.49.02l.36.04.33.14c2.98,1.21,4.92,3.59,6.63,5.69,1.39,1.71,2.7,3.32,4.42,4.23l6.04,3.19c-.15-1.72-1.9-4.36-6.52-7.46l-.31-.25c-1.07-1-2.02-2.16-2.93-3.28-1.7-2.08-3.3-4.05-5.44-4.71l-.15-.05c-2.12-.8-4.39-.7-7.02-.57-2,.1-4.06.2-6.26-.1l-.48-.12c-5.92-2.06-10.59-1.89-13.17.49-2.47,2.28-3.04,6.6-1.6,12.16.51,1.44,1.81,1.64,7.09,1.14,5.97-.57,14.11-1.35,19.99,6.32ZM77.83,322.17c.39.23.75.47,1.1.71-.35-.28-.72-.52-1.1-.71ZM193.46,210.01c4.35,4.08,19.96,11.17,28.73,13.38,16.35,3.5,17.99,1.13,23.41-6.73,2.1-3.05,4.71-6.84,8.78-11.15,1.18-1.38,2.8-3.1,4.67-5.1,8.03-8.53,22.97-24.42,20.53-34.29l-.02-.07c-1.37-.78-7.04-.46-10.83-.25-2.75.15-5.7.31-8.59.31.04.02.09.04.13.06,3.64,1.65,6.19,4.56,7.38,8.42,2.52,8.25-1.74,17.85-7.13,22.01l-.09.06c-1.06.74-2.14,1.4-3.19,2.04-2.49,1.51-4.84,2.94-6.91,5.5l-.35.35c-1.61,1.33-2.17,3.42-2.83,5.85-.63,2.32-1.34,4.95-3.16,7.14l-.13.14c-8.2,8.5-14.98,9.11-26.78,2.36-2.36-.83-5.21-2.36-8.22-3.98-1.49-.8-3.02-1.62-4.51-2.37l-.1-.05c-.45-.25-1.09-.52-1.77-.8-2.33-.97-5.24-2.17-6.14-5.04-.17-.53-.25-1.09-.25-1.66-1.01,1.32-1.97,2.59-2.63,3.87ZM206.62,209.23c1.54.77,3.09,1.6,4.59,2.41,2.92,1.57,5.68,3.05,7.7,3.73l.45.2c9.95,5.74,14.25,5.48,20.82-1.3,1.09-1.36,1.6-3.22,2.13-5.2.75-2.77,1.6-5.89,4.27-8.22,2.59-3.12,5.49-4.89,8.05-6.44,1-.61,1.95-1.19,2.85-1.82,3.99-3.11,7.17-10.65,5.37-16.55-.77-2.51-2.3-4.26-4.67-5.33-5.42-2.46-14.1-.83-19.89,1.73-2.1,1.07-3.53,2.71-5.17,4.6-1.55,1.78-3.15,3.61-5.46,5.12l-.36.2c-4.43,1.95-7.85,4.55-11.09,8.42l-.21.22c-1.33,1.24-2.68,2.46-4.03,3.68-3.65,3.31-7.1,6.43-10.31,10-.55.91-.62,1.44-.56,1.61.2.64,2.21,1.47,3.28,1.92.76.31,1.54.64,2.23,1.02ZM299.89,18.18c.13.82.35,1.25.51,1.36.57.4,2.67-.04,4.06-.34,1.62-.34,3.29-.7,4.97-.62,1.54-.08,3.02-.11,4.45-.14,6.06-.12,10.48-.21,14.24-4.01.43-.85.84-1.81,1.08-2.73l-5.36,2.24c-3.67,1.54-7.31,1.6-11.16,1.66-2.21.04-4.49.07-6.88.4l-3.14.43.31-3.15c.1-1.03.43-2.59,1.04-3.87l.73-1.52,1.68.1c2.13.13,4.09.35,5.99.55,3.35.37,6.51.72,10.38.59l6.35-.2c-.03-.06-.06-.12-.1-.18-1.66-2.75-8.98-2.77-12.11-2.77-1.61,0-2.39-.01-3.03-.16-5.83-1.21-9.55-1.08-11.38.39-2.08,1.67-2.54,5.66-2.62,11.98ZM315.08.96h.01s0,0-.01,0ZM276.81,484.85c-5.66,0-10.66-2.38-14.61-7.14-6.22-7.25-2.32-15.33.82-21.82,1.69-3.51,3.29-6.82,3.37-9.64l.02-.28c.29-2.11.38-4.18.47-6.37.14-3.32.28-6.75,1.2-10.27l.16-.45c.75-1.56,1.64-3.01,2.5-4.41,2.32-3.76,3.69-6.22,2.57-8.73-4.45-6.21-24.26-21.15-27.33-23.05-4.11-.52-8.7,1.29-13.54,3.22-8.23,3.26-17.55,6.96-26.28-.91l-.19-.2c-2.95-3.32-3.68-7.3-4.38-11.14l-.13-.7c-2.39-16.7-5.68-20.38-7.44-21.08-2.28-.91-5.88,1.9-9.35,4.63-4.37,3.42-9.32,7.31-14.31,5.46l-1.42-.52-.2-1.5c-1.5-11.34-4.3-14.6-6.39-15.33-4.38-1.54-12.09,5.21-17.51,10.41l-.72.7h-1s0,0,0,0c-2.53,0-4.64-1.49-6.5-2.81-1.32-.93-2.56-1.82-3.75-2.1-8.56-1.78-10.92,3.04-12.76,8.58-.55,1.67-.96,2.88-1.88,3.66l-.84.71-1.09-.14c-6.41-.81-16.33-3.54-25.08-5.94-5.97-1.64-11.62-3.19-15.06-3.83-5.03-1-8.74.65-12.67,2.39-4.65,2.06-9.93,4.4-16.66,1.01l-2-.84c-9.23-3.86-14.31-5.99-21.01-10.65l-2.02-1.41,1.37-2.04c14.75-21.95,35.3-11.67,53.42-2.6,8.8,4.4,17.9,8.96,25.85,9.69,6.51-1.39,6.43-3.84,6.27-9.1-.18-5.87-.43-13.9,11.45-19.98,5.96-3.89,13.07-4.23,20.58-4.59,3.52-.17,7.16-.35,10.73-.91l.23-.04h.23s.04,0,.05,0c2.95,0,14.24-6.59,15.54-11.03.13-.45.24-.81-.58-1.35-2.03-.76-5.47-.41-8.8-.08-1.8.18-3.66.36-5.42.39-30.48,4.71-45.57-5.51-51.85-12.03-5.61-5.82-8.38-13.12-7.22-19.06l.07-.28c6.63-21.01,15.82-31.02,24.71-40.7,8.62-9.4,16.77-18.27,21.53-37.08l.04-.15c.84-2.61,1.72-5.3,2.61-8.04,3.9-11.94,7.94-24.28,9.86-33.87.71-3.95.99-10.44,1.28-17.31.76-18,1.56-29.14,6.25-32.19,1.35-.88,2.97-1.04,4.56-.45,7.63,2.18,12.98,2.38,17.71,2.55,4.86.18,9.05.33,13.52,2.82l.18.11c7.63,5.12,7.07,10.5,6.67,14.42-.43,4.14-.71,6.87,9.4,10.18l1.85.61-.14,1.95c-.53,7.44-5.75,9.92-9.94,11.91-2.59,1.23-4.83,2.3-5.81,4.24-1.95,5.25-2.29,11.82-2.63,18.18-.18,3.35-.36,6.82-.77,10.11-.06,5.94-3.11,10.24-5.8,14.04-2.21,3.12-4.13,5.82-3.76,8.66,1.51,5.74,11.25,10.16,15.94,12.3,1.17.53,2.03.92,2.63,1.26,10.47,4.76,22.86,9.33,35.42,7.33,6.94-1.38,10.78-7.22,14.5-12.87,2.26-3.44,4.4-6.69,7.23-9.06,1.13-1.24,2.34-2.54,3.58-3.88,9.76-10.49,21.91-23.56,23.38-36.15.78-6.89-1.65-11.04-7.22-12.32-4.65-.99-9.04-.59-13.69-.16-3.65.33-7.42.68-11.35.3-2.72-.1-4.62-1.03-5.65-2.74-2.04-3.4.33-8.25,3.08-13.86,2.36-4.83,5.31-10.83,3.94-13.88-.18-.41-.74-1.64-3.54-2.42-2.98-.73-6.45-1.24-10.13-1.79-5.59-.83-11.36-1.69-16.41-3.48l-1.7-.6.04-1.81c1.28-63.68,18.09-67.5,48.61-74.43,10.27-2.33,21.91-4.98,35.35-10.4,7.11-2.79,16.18-5.09,26.96-6.87,2.17-.46,4.5-1.07,6.97-1.71,11.51-2.99,25.84-6.72,33.3,2.9l.15.21c7.21,11.57,13.06,14.77,20.47,18.82,3.04,1.66,6.19,3.38,9.74,5.82,13.11,9.05,11.21,17.38,9.19,26.21-.59,2.56-1.19,5.22-1.49,8.07-.33,3.33-.08,6.6.18,10.07.18,2.46.37,5.01.34,7.61.29,7.36-3.02,13.47-6.21,19.38-2.69,4.97-5.23,9.67-5.58,14.89.56,11.22-.63,17.12-4.09,20.35-3.9,3.65-9.6,2.97-17.48,2.02-2.41-.29-5.13-.61-8.05-.84-1.99-.08-4.33.96-4.59,3.43-.15,1.49.03,2.87.22,4.34.28,2.15.6,4.59-.13,7.59-1.35,11.23,1.16,16.86,9.22,20.73,4.12,2.03,8.66,2.28,12.67,2.5,4.88.27,9.49.52,12.25,3.97,2.16,2.7,2.69,6.81,1.67,12.94-2.12,14.85-11.76,20.57-21.09,26.1-7.71,4.57-14.99,8.89-17.97,18.4-.12,2.65,2.39,5.02,5.05,7.53,2.87,2.71,5.83,5.5,5.8,9.3-.02,2.41-1.26,4.69-3.78,6.97l-.19.15c-1.69,1.25-3.4,1.64-5.05,2.01l-.33.06c-8.26,1.04-12.19,4.07-15.66,6.74-2.81,2.16-5.46,4.21-9.59,4.74l-.23.03h-.23c-4.86-.3-10.5-2.64-16.46-5.11-9.45-3.92-19.23-7.98-23.86-2.63-10.4,13.28-10.43,17.66-9.95,18.92l.04.1c5.61,17.12,14.34,30.31,21.35,40.9,9.14,13.82,15.75,23.8,8.36,32.57-2.32,2.7-5.1,5.15-7.78,7.53-6.42,5.67-12.49,11.03-11.35,18.64l.02.16c.22,2.58,1.13,5.53,1.93,8.14,1.21,3.95,2.17,7.08,1.17,9.43l-.39.92-.92.4c-2.78,1.21-6.27,1.78-9.65,2.34-8.88,1.46-13.1,2.71-13.05,7.74.49,2.07,3.83,4.13,6.05,5.5,1.04.64,1.94,1.19,2.65,1.76l.7.55c4.17,3.25,11.13,8.67,14.27,14.82,4.26,7.61-2.97,13.03-7.75,16.62-.79.59-1.54,1.16-2.21,1.7l-.15.11c-6.26,4.37-12.28,6.55-17.7,6.55ZM271.38,446.53c-.14,3.85-2.03,7.76-3.86,11.54-3.49,7.23-5.34,11.94-1.5,16.41,7.62,9.18,18.08,4.95,25.55-.24.7-.57,1.48-1.15,2.29-1.76,5.9-4.42,8.22-6.95,6.37-10.21l-.05-.1c-2.63-5.17-9.06-10.19-12.91-13.19l-.73-.57c-.49-.39-1.31-.89-2.17-1.43-3.23-1.99-7.65-4.72-8.39-9.07l-.03-.34c-.32-10.14,9.41-11.74,17.23-13.03,2.62-.43,5.13-.84,7.17-1.5-.16-1.3-.86-3.56-1.35-5.18-.87-2.82-1.84-6.01-2.12-9.09-1.49-10.25,6.2-17.05,12.99-23.05,2.56-2.26,5.2-4.6,7.28-7.02,4.74-5.63.27-12.99-8.72-26.58-7.17-10.84-16.1-24.33-21.92-42.06-1.73-4.73,1.59-12.06,10.75-23.75l.07-.08c6.99-8.17,19.01-3.18,29.61,1.22,5.46,2.26,10.62,4.41,14.6,4.71,2.66-.41,4.47-1.8,6.95-3.71,3.76-2.89,8.43-6.5,17.96-7.72,1.37-.31,2.26-.52,3.05-1.07.95-.87,2.02-2.11,2.04-3.22.02-1.61-2.14-3.64-4.23-5.61-3.16-2.98-7.09-6.69-6.58-11.88l.09-.48c3.49-11.54,12.03-16.61,20.28-21.51,8.7-5.16,16.91-10.04,18.7-22.57.76-4.56.54-7.58-.63-9.05-1.36-1.7-4.73-1.89-8.62-2.1-4.26-.23-9.57-.53-14.58-3-12.62-6.05-13.14-16.53-11.98-25.98l.06-.31c.54-2.16.32-3.89.06-5.89-.21-1.6-.44-3.42-.23-5.5.5-4.8,4.63-8.11,9.86-7.91,3.11.24,5.9.57,8.35.87,6.54.78,11.27,1.35,13.47-.71,2.18-2.03,2.97-7.3,2.5-16.59v-.14s0-.14,0-.14c.39-6.37,3.33-11.82,6.18-17.1,3.01-5.58,5.86-10.85,5.61-16.86v-.07s0-.07,0-.07c.03-2.41-.14-4.75-.33-7.24-.26-3.52-.53-7.17-.16-10.95.33-3.17,1-6.1,1.59-8.68,1.97-8.64,3.17-13.85-7.15-20.97-3.34-2.3-6.37-3.95-9.31-5.56-7.71-4.22-14.38-7.86-22.25-20.45-5.47-6.89-17.45-3.78-28.02-1.03-2.55.66-4.95,1.29-7.25,1.77l-.11.02c-10.47,1.72-19.21,3.93-25.98,6.59-13.78,5.56-25.63,8.26-36.08,10.63-29.57,6.71-43.23,9.82-44.67,67.8,4.23,1.27,9.07,1.99,13.78,2.69,3.8.57,7.38,1.1,10.66,1.9,3.44.96,5.71,2.71,6.83,5.21,2.32,5.18-1.04,12.06-4.01,18.12-1.37,2.79-3.91,7.98-3.29,9.08.07.07.52.29,1.61.32h.17c3.48.36,6.88.05,10.48-.28,4.82-.44,9.79-.9,15.23.26,8.14,1.87,12.17,8.35,11.1,17.78-1.65,14.23-14.42,27.95-24.68,38.98-1.28,1.37-2.51,2.7-3.67,3.97l-.26.25c-2.31,1.91-4.28,4.9-6.37,8.07-4.08,6.21-8.71,13.24-17.8,15.04-14.01,2.22-27.31-2.67-38.48-7.75l-.25-.13c-.36-.21-1.29-.64-2.27-1.08-5.86-2.66-16.76-7.62-18.75-15.77l-.04-.22c-.75-4.87,1.97-8.71,4.6-12.42,2.4-3.38,4.88-6.88,4.88-11.32l.02-.32c.4-3.15.58-6.58.76-9.89.36-6.78.72-13.79,2.98-19.79l.08-.19c1.72-3.61,5.17-5.25,8.22-6.7,3.54-1.68,5.94-2.97,6.79-5.91-10.92-4.1-11.37-9.11-10.79-14.74.38-3.64.65-6.28-4.39-9.69-3.39-1.85-6.67-1.97-11.19-2.14-4.78-.17-10.73-.39-19-2.77l-.22-.08c-.13-.05-.19-.05-.19-.05-2.79,1.39-3.56,19.5-3.92,28.21-.3,7.05-.58,13.71-1.36,18.04-1.99,9.93-6.08,22.41-10.02,34.48-.88,2.7-1.75,5.36-2.58,7.94-5.08,19.98-13.63,29.29-22.68,39.16-8.5,9.26-17.28,18.83-23.58,38.68-.76,4.28,1.55,9.96,5.94,14.5,9.57,9.93,26.94,13.77,47.66,10.53l.36-.03c1.58-.01,3.32-.19,5.15-.37,4.04-.4,8.22-.82,11.4.51l.32.16c2.73,1.64,3.81,4.24,2.96,7.14-1.91,6.52-14.89,14.5-20.27,14.62-3.77.58-7.48.76-11.07.93-6.86.33-13.34.64-18.19,3.85l-.25.15c-9.17,4.64-9.01,9.88-8.83,15.42.17,5.35.38,12.01-10.62,14.23l-.34.07-.35-.03c-9.01-.7-18.68-5.54-28.04-10.23-17.16-8.59-33.41-16.72-45.57-1.11,5.28,3.41,9.83,5.32,17.97,8.73l2.26.95c4.65,2.38,7.92.93,12.44-1.08,4.26-1.89,9.09-4.03,15.64-2.73,3.62.67,9.36,2.25,15.44,3.92,7.8,2.14,16.55,4.55,22.62,5.54.07-.2.13-.4.19-.58,1.47-4.41,4.9-14.74,18.59-11.89,2.2.52,3.99,1.78,5.56,2.9.97.69,1.96,1.39,2.79,1.71,7.43-7.03,15.14-12.96,21.71-10.65,4.82,1.69,7.83,7.27,9.42,17.51,2.29-.25,5.26-2.58,8.15-4.85,4.59-3.6,9.34-7.33,14.3-5.34,5.09,2.04,8.33,9.74,10.52,24.96l.1.56c.65,3.55,1.16,6.36,3.11,8.62,6.39,5.66,13.16,2.99,20.98-.12,5.42-2.15,11.03-4.37,16.61-3.44l.3.05.28.12c2.08.9,24.66,17.71,29.74,25.07l.19.32c2.54,5.16-.25,9.7-2.72,13.71-.75,1.22-1.53,2.48-2.15,3.74-.74,2.92-.86,5.86-.98,8.97-.09,2.17-.18,4.41-.49,6.72ZM114.73,369.55h0,0ZM64.17,407.38c-.32,0-.64-.01-.96-.04-4.32-.34-8.03-2.8-9.47-5.05l-.22-.35-.1-.4q-2.17-8.95-8.99-10.39c-14.26-3.33-17.2,1.6-19.35,5.2-.87,1.46-1.69,2.83-3.08,3.63l-.42.24-.48.07c-1.21.17-3.06.04-5.02-1.54-5.12-4.13-7.69-15.68-7.89-18.26l-.13-1.69,1.53-.74c.77-.38,1.65-.85,2.57-1.36,3.51-1.92,7.88-4.3,12.01-4.02l.47.08c4.7,1.25,8.87,3.29,12.91,5.26,4.65,2.27,9.04,4.41,14.19,5.47,6.45.79,10.44-.61,14.28-1.96,4.81-1.69,9.78-3.44,18.09-.3,1.18.29,2.45.43,3.8.58,3.3.37,7.05.78,9.79,3.65l1.81,1.89-1.98,1.72c-3.95,3.43-8.31,5.21-12.53,6.93-4.67,1.9-9.08,3.7-12.48,7.63-2.19,2.46-5.12,3.77-8.35,3.77ZM58.16,399.87c.85.98,3.04,2.3,5.45,2.49,2.07.17,3.81-.52,5.16-2.04,4.17-4.81,9.34-6.92,14.35-8.96,2.9-1.18,5.69-2.32,8.26-3.95-1.18-.33-2.55-.48-4.02-.65-1.51-.17-3.06-.34-4.61-.73l-.28-.09c-6.68-2.56-10.26-1.3-14.78.29-3.91,1.38-8.31,2.92-15.1,2.36,2.97,1.81,3.98,4.79,5.58,11.28ZM13.41,381.68c.73,3.68,2.97,10.88,5.8,13.16.26.21.47.33.64.4.29-.39.64-.99.93-1.46,3.11-5.21,7.58-10.46,21.13-8.23-2.26-.95-4.42-2.01-6.55-3.05-3.92-1.91-7.63-3.72-11.76-4.86-2.67-.07-6.19,1.87-9.05,3.43-.39.21-.77.42-1.14.62ZM230.38,216.59c-2.28,0-4.81-.9-7.67-2.71-.96-.44-1.88-.86-2.78-1.27-3.64-1.65-7.07-3.21-11.75-5.83l-3.12-1.75,2.72-2.33c2.4-2.05,4.65-4.27,7.02-6.62,3.26-3.22,6.63-6.55,10.39-9.37l.25-.18.28-.12c5.1-2.14,7.18-4.56,9.19-6.9,1.39-1.61,2.82-3.28,5.04-4.53l.37-.17c5.17-1.87,14.44-4.34,18.48.18,2.34,2.61,2.19,6.64-.45,11.98-1.51,2.88-4.01,4.26-6.21,5.49-.94.52-1.82,1.01-2.66,1.61-3.83,3.07-6.93,6.57-8.75,9.9-1.1,4.73-2.95,10.26-7.35,12.05-.95.39-1.96.59-3.02.59ZM213.72,204.09c3.04,1.59,5.6,2.75,8.28,3.97.96.44,1.94.88,2.96,1.35l.3.17c1.89,1.21,4.51,2.51,6.25,1.8,1.77-.73,3.27-3.71,4.44-8.87l.07-.32.15-.29c2.72-5.16,7.08-9.27,10.26-11.8l.1-.08c1.09-.78,2.16-1.37,3.19-1.95,1.9-1.05,3.39-1.88,4.18-3.39,1.52-3.08,1.97-5.49,1.18-6.38-1.18-1.32-5.96-1.35-12.85,1.11-1.36.81-2.32,1.93-3.53,3.33-2.13,2.48-4.78,5.56-10.76,8.13-3.4,2.58-6.57,5.71-9.63,8.74-1.5,1.48-3.03,3-4.6,4.46ZM157.84,102.07c-.91,0-1.84-.17-2.71-.56-1.22-.55-3.31-2.02-3.64-5.69v-.13s-.01-.13-.01-.13c.11-9.72,2.84-17.35,9.1-25.44.1-.26.19-.55.3-.85,1.47-4.2,4.91-14.03,14.17-11.17l.15.05c5.94,2.26,8.01,9.65,9.26,14.07l.26.91c5.16,15.17-6.24,20.29-18.32,25.71-1.26.57-2.55,1.14-3.85,1.75-1.25.85-2.95,1.47-4.7,1.47ZM156.48,95.48c.09.8.33,1.29.71,1.46.63.28,1.85.03,2.62-.53l.43-.25c1.39-.64,2.77-1.26,4.11-1.86,13.07-5.86,19.19-9.15,15.61-19.59l-.04-.12-.28-1c-.98-3.49-2.62-9.31-6.15-10.72-.51-.15-.99-.23-1.43-.23l2.4,5.43c6.17,13.96,3.53,16.66-5.59,20.81-1.49.68-3.17,1.44-5.01,2.4l-4.7,2.44,1.1-5.18c1.15-5.41,3.42-8.86,5.42-11.9,1.65-2.5,3.2-4.87,4.08-8.2l1.52-5.73c-2.46.48-3.99,3.42-5.67,8.23-.16.47-.32.91-.46,1.29l-.14.36-.24.31c-5.75,7.33-8.15,13.89-8.28,22.59ZM172.1,75.77c-.72,1.28-1.49,2.46-2.25,3.62-1.03,1.57-2.04,3.1-2.89,4.86,3.42-1.56,5.24-2.45,5.7-3.71.38-1.04.06-2.82-.55-4.77ZM184.92,59.88c-2.84,0-5.7-.62-8.07-2.39-1.96-1.3-4.35-3.44-4.79-6.34-.19-1.23-.08-3.11,1.51-5.04l.02-.03c.68-.8,1.33-1.63,1.99-2.45,3.55-4.48,7.57-9.55,16.13-11.17,2.58-.66,5.27-.46,7.74.48-.08-.73-.01-1.52.23-2.36l.1-.34.18-.3c5.38-8.71,17.89-12.2,24.98-13.52,1.41-.45,2.64-1.11,3.93-1.81,1.94-1.04,4.14-2.23,7.12-2.73,3.62-1,7.93.31,10.77,2.95.49-1.42,1.71-3.17,4.7-4.14l.21-.06c5.59-1.3,11.09-1.21,16.4-1.13,2.74.04,5.57.08,8.33-.07,11.33-2.05,16.49,2.47,17.47,6.99,1.19,5.52-3.36,12.53-14.37,15.27l-.45.07c-1.08.07-2.34.21-3.68.36-5.66.64-13.41,1.51-19.5-2.1-1.49-.94-4.44-3.4-6.64-6.38-.56,1.33-1.55,2.57-2.95,3.64-7.82,15.37-18.33,20.03-34,15.11l-.34-.14c-.39-.19-1.12-.46-1.88-.75-.84-.32-1.83-.69-2.86-1.14,1.16,2.75,1.29,5.8.29,8.69-.99,3.43-8.04,7.15-12.64,8.85-2.48.92-6.17,1.98-9.91,1.99ZM177.42,49.29c-.49.6-.44.95-.42,1.1.12.82,1.17,1.98,2.66,2.96l.15.1c2.41,1.84,6.14,1.57,8.85,1.03,6.72-1.35,13.08-5.49,14.02-6.91l.04-.11c.93-2.62.31-5.37-1.7-7.56-2.16-2.35-5.28-3.35-8.13-2.6l-.18.04c-6.78,1.26-9.76,5.02-13.21,9.38-.68.86-1.37,1.72-2.08,2.56ZM213.92,37.65c13.29,4.13,21.45.31,28.14-13.16l.29-.58.54-.37c2.47-1.69,1.82-3.05,1.57-3.56-.45-.96-1.46-1.88-2.66-2.53l-2.66,6c-5.4,12.19-14.15,15.61-26.77,10.45l-4.3-1.76,3.83-2.62c4.03-2.76,8.47-3.95,12.76-5.1,3.89-1.04,7.56-2.03,10.87-4.1l5.3-3.32c-1.19-.45-2.48-.61-3.6-.28l-.31.07c-2.23.36-3.83,1.22-5.7,2.23-1.49.8-3.03,1.63-4.95,2.22l-.29.07c-10.37,1.89-18.17,5.84-21.53,10.87,0,1.84,5.31,3.85,7.36,4.63.82.31,1.54.58,2.11.85ZM220,31.02c4.38.79,7.73-.18,10.49-3.07-1.51.48-3.03.88-4.53,1.29-2.06.55-4.05,1.09-5.96,1.78ZM252.88,15.47c-1.38.47-1.44.99-1.46,1.16-.29,2.32,4.18,7.32,7.03,9.11,4.59,2.73,11.1,1.99,16.33,1.4,1.31-.15,2.55-.29,3.69-.37,7.53-1.93,10.56-5.98,10.55-8.66l-6.17,3.82c-5.47,3.39-21.72,4.33-24.95-.53l-2.46-3.7,4.44-.18c3.32-.13,6.61-.09,9.79-.06,3.78.05,7.69.09,11.71-.15l7.36-.45c-1.01-2.16-4.87-3.75-11.62-2.5l-.31.04c-3,.18-5.97.13-8.85.09-5.21-.08-10.13-.16-15.09.98ZM185.34,51.9c-.42,0-.83-.02-1.25-.07l-3.94-.45,2.11-3.36c2.35-3.74,8.51-8.53,13.24-7.85,2.21.32,3.85,1.81,4.49,4.09l.57,2.04-1.93.9c-.81.38-1.62.78-2.42,1.17-3.53,1.74-7.18,3.54-10.87,3.54Z"/>
      </g>
    </g>
  </g>
</svg>