<svg id="Layer_1" enable-background="new 0 0 500 500" height="512" viewBox="0 0 500 500" width="512" xmlns="http://www.w3.org/2000/svg"><path clip-rule="evenodd" d="m250.01 153.69c47.81 0 91.1 19.38 122.43 50.72 31.33 31.33 50.72 74.62 50.72 122.44s-19.38 91.1-50.72 122.43-74.62 50.71-122.43 50.71-91.1-19.38-122.44-50.71c-31.33-31.33-50.71-74.62-50.71-122.43s19.38-91.1 50.71-122.44c31.34-31.34 74.63-50.72 122.44-50.72zm-164.94-94.79c-.66-2.09-2.28-3.84-4.53-4.56-3.67-1.18-7.6.84-8.78 4.51l-12.57 38.96-40.44-.08c-2.33-.17-4.7.84-6.17 2.87-2.27 3.13-1.57 7.5 1.56 9.76l33.17 24-12.73 38.92.02.01c-.66 2.05-.37 4.38.99 6.26 2.27 3.11 6.62 3.8 9.73 1.53l33.09-24.14 32.66 23.82c1.79 1.52 4.3 2.1 6.69 1.32 3.67-1.19 5.68-5.14 4.48-8.8l-12.73-38.92 33.17-24-.01-.01c1.75-1.27 2.88-3.32 2.88-5.65 0-3.85-3.12-6.97-6.97-6.97l-40.95.08zm.83 48.02-7.5-23.22-7.5 23.22c-.9 2.81-3.53 4.84-6.64 4.84l-24.42-.05 19.78 14.31c2.39 1.73 3.5 4.86 2.54 7.82l-7.59 23.22 19.62-14.31c2.39-1.81 5.77-1.94 8.32-.08l19.73 14.39-7.51-22.96c-1.06-2.87-.14-6.2 2.46-8.08l19.78-14.31-24.09.05c-3.08.15-5.99-1.77-6.98-4.84zm342.37-48.02c-.66-2.09-2.28-3.84-4.53-4.56-3.67-1.18-7.6.84-8.78 4.51l-12.57 38.96-40.44-.08c-2.33-.17-4.7.84-6.17 2.87-2.27 3.13-1.57 7.5 1.56 9.76l33.17 24-12.73 38.92.02.01c-.66 2.05-.37 4.38.99 6.26 2.27 3.11 6.62 3.8 9.73 1.53l33.09-24.14 32.66 23.82c1.79 1.52 4.3 2.1 6.69 1.32 3.67-1.19 5.68-5.14 4.48-8.8l-12.73-38.92 33.17-24-.01-.01c1.75-1.27 2.88-3.32 2.88-5.65 0-3.85-3.12-6.97-6.97-6.97l-40.95.08zm.84 48.02-7.5-23.22-7.5 23.22c-.9 2.81-3.53 4.84-6.64 4.84l-24.42-.05 19.78 14.31c2.39 1.73 3.5 4.86 2.54 7.82l-7.59 23.22 19.62-14.31c2.39-1.81 5.77-1.94 8.32-.08l19.73 14.39-7.51-22.96c-1.06-2.87-.14-6.2 2.46-8.08l19.78-14.31-24.09.05c-3.09.15-6-1.77-6.98-4.84zm-172.44-102.01 12.56 38.91 40.95-.08c3.85 0 6.97 3.12 6.97 6.97 0 2.32-1.14 4.38-2.88 5.65l.01.01-33.17 24 12.73 38.92c1.19 3.67-.81 7.61-4.48 8.8-2.39.78-4.9.19-6.69-1.32l-32.66-23.82-33.09 24.14c-3.11 2.27-7.47 1.58-9.73-1.53-1.37-1.88-1.66-4.21-.99-6.26l-.02-.01 12.73-38.92-33.17-24c-3.13-2.27-3.82-6.64-1.56-9.76 1.47-2.03 3.84-3.04 6.17-2.87l40.44.08 12.58-38.96c1.18-3.67 5.11-5.69 8.78-4.51 2.24.72 3.86 2.47 4.52 4.56zm.84 48.02-7.5-23.22-7.5 23.22c-.9 2.81-3.53 4.84-6.64 4.84l-24.41-.05 19.78 14.31c2.39 1.73 3.5 4.86 2.54 7.82l-7.59 23.22 19.62-14.31c2.39-1.81 5.77-1.94 8.32-.08l19.73 14.39-7.51-22.96c-1.06-2.87-.14-6.2 2.46-8.08l19.78-14.31-24.09.05c-3.1.14-6.01-1.77-6.99-4.84zm-45.82 245.35.14 90.65h91.05c3.04 0 5.82-1.02 7.96-2.77 2.15-1.76 3.71-4.26 4.32-7.22l13.53-65.89c.4-1.94.38-3.8-.05-5.53s-1.27-3.39-2.53-4.93c-1.24-1.53-2.69-2.68-4.29-3.44-1.59-.76-3.41-1.14-5.42-1.14h-47.82c-3.87 0-7-3.13-7-7 0-1.01.21-1.96.6-2.83l1.52-4.32c7.58-21.58 11.6-33.03 1.06-42.82-1.06-.99-2.22-1.65-3.42-1.98s-2.55-.35-3.98-.04-2.65.88-3.6 1.67c-.96.8-1.74 1.88-2.29 3.22l-18.79 44.98c-3.78 9.04-12.87 9.68-20.99 9.39zm-13.8 96.69-.16-103.31c-1.37-7.36-13.77-9.06-13.77 3.91v96.49c0 11.71 10.8 13.58 13.93 2.91zm104.99 7.96c6.32 0 12.16-2.19 16.77-5.94 4.59-3.75 7.91-9.04 9.19-15.25l13.53-65.89c.82-4 .76-7.92-.16-11.66-.92-3.73-2.68-7.23-5.26-10.4-2.59-3.18-5.67-5.61-9.16-7.27s-7.32-2.51-11.38-2.51h-37.97c8.49-24.38 12.11-38.09-4.16-53.2-2.71-2.52-5.86-4.27-9.27-5.21s-7-1.04-10.6-.26c-3.61.78-6.83 2.36-9.56 4.63-2.72 2.26-4.86 5.16-6.29 8.58l-18.79 44.98c-.46 1.11-5.49.92-9.81.7-8.76-19.64-40.01-15.43-40.01 11.35v96.49c0 25.89 29.73 32.66 39.82 10.86zm-52.87-220.02c-39.74 0-75.73 16.11-101.77 42.16-26.05 26.05-42.16 62.03-42.16 101.77s16.11 75.73 42.16 101.77c26.05 26.05 62.03 42.16 101.77 42.16s75.73-16.11 101.77-42.16c26.05-26.05 42.16-62.03 42.16-101.77s-16.11-75.73-42.16-101.77c-26.04-26.05-62.03-42.16-101.77-42.16zm91.87 52.06c-23.51-23.51-55.99-38.06-91.87-38.06s-68.36 14.54-91.88 38.06c-23.51 23.51-38.06 55.99-38.06 91.87s14.54 68.36 38.06 91.88c23.51 23.51 56 38.06 91.88 38.06s68.36-14.54 91.87-38.06c23.51-23.51 38.06-56 38.06-91.88s-14.54-68.36-38.06-91.87zm20.67-20.67c-28.8-28.8-68.59-46.61-112.54-46.61s-83.74 17.81-112.54 46.61-46.61 68.59-46.61 112.54 17.81 83.74 46.61 112.54 68.59 46.61 112.54 46.61 83.74-17.81 112.54-46.61 46.61-68.59 46.61-112.54-17.81-83.74-46.61-112.54z" fill="#000" fill-rule="evenodd"/></svg>