<?xml version="1.0" encoding="UTF-8"?>
<svg id="Laag_2" data-name="Laag 2" xmlns="http://www.w3.org/2000/svg" viewBox="0 0 787.67 556.86">
  <defs>
    <style>
      .cls-1 {
        fill: #000;
        stroke-width: 0px;
      }
    </style>
  </defs>
  <g id="svg14514">
    <g>
      <g id="layer1">
        <path id="path12997" class="cls-1" d="M23.97,76.86c-13.16,0-23.97,10.81-23.97,23.97v96.03c0,13.16,10.81,23.97,23.97,23.97,10.91.24,10.91-16.24,0-16-4.57,0-8.03-3.4-8.03-7.97v-72.05h24.05c4.57,0,7.97,3.46,7.97,8.03v79.95c0,17.59,14.41,32.02,32,32.02s32.02-14.43,32.02-32.02v-63.95c0-4.57,3.46-8.03,8.03-8.03s7.97,3.46,7.97,8.03v7.97c0,17.59,14.43,32.02,32.02,32.02s32-14.43,32-32.02v-23.97c0-4.57,3.4-8.03,7.97-8.03h64.02c10.67,0,10.67-16.02,0-16.02h-64.02c-13.16,0-23.97,10.89-23.97,24.05v23.97c0,9-7,16-16,16s-16.02-7-16.02-16v-7.97c0-13.16-10.81-24.03-23.97-24.03s-24.05,10.87-24.05,24.03v63.95c0,9-7,16-16,16s-16-7-16-16v-79.95c0-13.16-10.81-24.05-23.97-24.05H15.94v-7.97c0-4.57,3.46-8.03,8.03-8.03h256.02c4.57,0,7.97,3.46,7.97,8.03v96.03c0,4.57-3.4,7.97-7.97,7.97h-144.05c-10.91-.24-10.91,16.24,0,16h144.05c13.16,0,23.97-10.81,23.97-23.97v-40.05h24.03c4.57,0,7.97,3.46,7.97,8.03v55.98c.43,3.56-8.12,7-11.75,8.92-45.33,23.99-136,71.98-136,71.98-3.6,1.91-7.92,3.74-12.11,7.03-4.19,3.29-8.14,9.17-8.14,16.06v39.98h-39.98c-4.42.02-7.99,3.61-7.97,8.03v32c.02,4.39,3.57,7.95,7.97,7.97h7.97v120c0,13.16,10.89,24.05,24.05,24.05h32c13.16,0,23.97-10.89,23.97-24.05v-95.95c0-10.67-16-10.67-16,0v95.95c0,4.57-3.4,8.05-7.97,8.05h-32c-4.57,0-8.05-3.48-8.05-8.05v-120h72.06c4.39-.02,7.95-3.57,7.97-7.97v-32c.02-4.42-3.55-8.01-7.97-8.03h-40.05v-39.98c0-1.97.15-2.03,2-3.48,1.85-1.46,5.52-3.2,9.75-5.44l136-71.98c3.6-1.91,7.98-3.74,12.17-7.03,4.19-3.29,8.09-9.17,8.09-16.06v-55.98c0-13.16-10.83-24.03-23.98-24.03h-24.03v-39.98c0-13.16-10.81-23.97-23.97-23.97H23.97ZM135.94,380.81h80.02v16h-80.02v-16Z" vector-effect="none"/>
      </g>
      <g id="layer1-2" data-name="layer1">
        <path id="path13027" class="cls-1" d="M475.76,109.09c-6.32,3.16-14.33,7.64-20.48,15.42-6.16,7.78-10.5,19.05-7.66,33.66l38.48,108-12.42,12.42c-7.85,7.54,3.77,19.16,11.31,11.31l59.08-59.08c4.42-4.03,9.85-2.84,12.69,0,3.53,3.52,3.61,9.08,0,12.69l-77.87,77.88-23.03-23.03c-9.3-9.3-24.59-9.3-33.89,0l-96.73,96.67c-18.55,18.55-18.55,48.76,0,67.31,18.55,18.55,48.78,18.55,67.33,0l96.67-96.67c8.97-8.97,9.2-23.5.87-32.88l77.97-77.97c9.68-9.68,9.93-25.88,0-35.31-11.35-10.78-26.06-8.92-35.31,0l-34.14,34.14-35.34-98.97c-1.34-9.85.87-15.59,4.55-20.23,3.74-4.73,9.49-8.24,15.09-11.05,73.82-36.91,213.85-84.63,277.77-106.72,4.48-1.55,7.14-.64,9,1.22,1.86,1.86,2.77,4.52,1.22,9-22.09,63.91-69.81,203.94-106.72,277.77-2.8,5.6-6.3,11.37-11.03,15.11-4.64,3.67-10.37,5.87-20.19,4.55l-77.58-27.7c-10.05-3.59-15.44,11.48-5.39,15.08l78.66,28.09c.5.18,1.01.3,1.53.37,13.84,2.03,25.11-1.69,32.89-7.84,7.78-6.16,12.26-14.18,15.42-20.5,38.05-76.1,85.48-215.89,107.53-279.69,3.16-9.14,1.91-19-5.03-25.55-8.04-7.6-17.89-7.65-25.55-5.03-63.8,22.05-203.59,69.48-279.69,107.53h0ZM438.92,307.2c2.03,0,4.04.81,5.66,2.42l33.37,33.38c3.23,3.23,3.23,8.11,0,11.34l-96.67,96.67c-12.48,12.48-32.23,12.48-44.7,0-12.48-12.48-12.48-32.18,0-44.66l96.67-96.73c1.62-1.61,3.65-2.42,5.67-2.42h0Z" vector-effect="none"/>
      </g>
    </g>
  </g>
</svg>