<svg id="svg14514" height="512" viewBox="0 0 16.933333 16.933334" width="512" xmlns="http://www.w3.org/2000/svg" xmlns:svg="http://www.w3.org/2000/svg"><g id="layer1" transform="translate(0 -280.067)"><path id="path13027" d="m5.9670767 284.32791c-.2090632.10454-.4738185.25266-.6774762.51004-.2036604.25738-.3472418.63019-.2532142 1.11311l1.2727887 3.57188-.4108265.41083c-.2596541.24937.1247617.63378.3741368.37413l1.953887-1.95388c.1461744-.13331.3257048-.0939.4196107 0 .1165913.11659.1194541.30016 0 .41961l-2.5755521 2.57555-.7617116-.76171c-.3077051-.3077-.8131546-.3077-1.1208623 0l-3.19928674 3.19722c-.6134399.61344-.61343805 1.61279 0 2.22622.61343704.61343 1.61329734.61344 2.22673654 0l3.1972224-3.19722c.2966456-.29665.3042735-.77726.028938-1.08727l2.5786556-2.57865c.3202782-.32028.3284326-.85598 0-1.16789-.3754702-.35658-.8620416-.29517-1.1678893 0l-1.1291279 1.12913-1.1689213-3.27319c-.044431-.32591.028699-.51544.1503786-.66921.1237086-.15634.3138355-.27267.4991947-.36535 2.4414665-1.22073 7.0727014-2.79884 9.1865184-3.5295.148021-.0512.236112-.0212.297656.0403.06154.0615.09147.14964.04031.29766-.730663 2.11384-2.308781 6.74507-3.529499 9.18651-.09268.18537-.208495.376-.364837.49972-.153474.12143-.342905.19425-.66766.15038l-2.5657335-.91623c-.3324542-.11886-.5107357.37982-.1782841.49868l2.6013906.92914c.01643.006.03339.01.05064.0124.457616.0671.830411-.0558 1.08779-.25941.257378-.20366.405513-.46893.510045-.678 1.258422-2.51686 2.826996-7.13997 3.556373-9.25008.104455-.3022.06308-.62822-.166399-.84491-.266007-.25118-.591831-.25294-.84491-.1664-2.110123.72937-6.7332302 2.29796-9.2500818 3.55637zm-1.218528 6.55205c.06703 0 .1336279.0267.1870684.0801l1.1038073 1.10381c.106889.10689.106889.26828 0 .37517l-3.1972198 3.19722c-.4126204.41262-1.0658476.41261-1.4784633 0-.41261805-.41262-.41261805-1.06429 0-1.47691l3.1972205-3.19929c.05344-.0534.1205574-.0801.1875869-.0801z" font-variant-ligatures="normal" font-variant-position="normal" font-variant-caps="normal" font-variant-numeric="normal" font-variant-alternates="normal" font-feature-settings="normal" text-indent="0" text-align="start" text-decoration-line="none" text-decoration-style="solid" text-decoration-color="#4d81fe" text-transform="none" text-orientation="mixed" white-space="normal" shape-padding="0" isolation="auto" mix-blend-mode="normal" solid-color="#4d81fe" solid-opacity="1" vector-effect="none"/></g></svg>