<?xml version="1.0" encoding="UTF-8"?>
<svg id="Laag_2" data-name="Laag 2" xmlns="http://www.w3.org/2000/svg" viewBox="0 0 894.65 615.1">
  <defs>
    <style>
      .cls-1 {
        fill: #000;
        stroke-width: 0px;
      }
    </style>
  </defs>
  <g id="svg14514">
    <g>
      <g id="layer1">
        <path id="path13027" class="cls-1" d="M582.75,247.94c-6.32,3.16-14.33,7.64-20.48,15.42-6.16,7.78-10.5,19.05-7.66,33.66l38.48,108-12.42,12.42c-7.85,7.54,3.77,19.16,11.31,11.31l59.08-59.08c4.42-4.03,9.85-2.84,12.69,0,3.53,3.52,3.61,9.08,0,12.69l-77.87,77.88-23.03-23.03c-9.3-9.3-24.59-9.3-33.89,0l-96.73,96.67c-18.55,18.55-18.55,48.76,0,67.31,18.55,18.55,48.78,18.55,67.33,0l96.67-96.67c8.97-8.97,9.2-23.5.87-32.88l77.97-77.97c9.68-9.68,9.93-25.88,0-35.31-11.35-10.78-26.06-8.92-35.31,0l-34.14,34.14-35.34-98.97c-1.34-9.85.87-15.59,4.55-20.23,3.74-4.73,9.49-8.24,15.09-11.05,73.82-36.91,213.85-84.63,277.77-106.72,4.48-1.55,7.14-.64,9,1.22,1.86,1.86,2.77,4.52,1.22,9-22.09,63.91-69.81,203.94-106.72,277.77-2.8,5.6-6.3,11.37-11.03,15.11-4.64,3.67-10.37,5.87-20.19,4.55l-77.58-27.7c-10.05-3.59-15.44,11.48-5.39,15.08l78.66,28.09c.5.18,1.01.3,1.53.37,13.84,2.03,25.11-1.69,32.89-7.84,7.78-6.16,12.26-14.18,15.42-20.5,38.05-76.1,85.48-215.89,107.53-279.69,3.16-9.14,1.91-19-5.03-25.55-8.04-7.6-17.89-7.65-25.55-5.03-63.8,22.05-203.59,69.48-279.69,107.53h0ZM545.9,446.05c2.03,0,4.04.81,5.66,2.42l33.37,33.38c3.23,3.23,3.23,8.11,0,11.34l-96.67,96.67c-12.48,12.48-32.23,12.48-44.7,0-12.48-12.48-12.48-32.18,0-44.66l96.67-96.73c1.62-1.61,3.65-2.42,5.67-2.42h0Z" vector-effect="none"/>
      </g>
      <path class="cls-1" d="M494.64,138.85h-112.81v-60.75c0-5.21-3.47-8.68-8.68-8.68h-173.56V8.68c0-5.21-3.47-8.68-8.68-8.68H8.68C3.47,0,0,3.47,0,8.68v416.54c0,5.21,3.47,8.68,8.68,8.68h485.97c5.21,0,8.68-3.47,8.68-8.68V147.53c0-5.21-3.47-8.68-8.68-8.68ZM373.15,347.12h-52.07v-52.07h104.14v52.07h-52.07ZM251.66,347.12h-52.07v-52.07h104.14v52.07h-52.07ZM130.17,347.12h-52.07v-52.07h104.14v52.07h-52.07ZM17.36,347.12v-52.07h43.39v52.07H17.36ZM69.42,86.78h52.07v52.07H17.36v-52.07h52.07ZM251.66,156.2h52.07v52.07h-104.14v-52.07h52.07ZM433.9,225.63h52.07v52.07h-104.14v-52.07h52.07ZM364.48,277.7h-104.14v-52.07h104.14v52.07ZM190.91,277.7h-52.07v-52.07h104.14v52.07h-52.07ZM69.42,277.7H17.36v-52.07h104.14v52.07h-52.07ZM17.36,156.2h43.39v52.07H17.36s0-52.07,0-52.07ZM182.24,208.27h-104.14v-52.07h104.14v52.07h0ZM442.58,295.05h43.39v52.07h-43.39v-52.07ZM485.97,208.27h-43.39v-52.07h43.39v52.07ZM425.22,208.27h-104.14v-52.07h104.14v52.07ZM364.48,138.85h-104.14v-52.07h104.14v52.07h0ZM242.98,138.85h-104.14v-52.07h104.14v52.07ZM182.24,69.42h-104.14V17.36h104.14v52.07h0ZM17.36,17.36h43.39v52.07H17.36s0-52.07,0-52.07ZM17.36,364.47h104.14v52.07H17.36v-52.07ZM138.85,364.47h104.14v52.07h-104.14v-52.07ZM260.34,364.47h104.14v52.07h-104.14v-52.07ZM485.97,416.54h-104.14v-52.07h104.14v52.07h0Z"/>
    </g>
  </g>
</svg>