<?xml version="1.0" encoding="UTF-8"?>
<svg id="Laag_2" data-name="Laag 2" xmlns="http://www.w3.org/2000/svg" viewBox="0 0 23.45 26.67">
  <defs>
    <style>
      .cls-1 {
        fill: #fff;
        stroke-width: 0px;
      }
    </style>
  </defs>
  <g id="Laag_1-2" data-name="Laag 1">
    <path class="cls-1" d="M5.13,26.67c-.16,0-.31-.03-.46-.1-.51-.22-1.01-.47-1.49-.75-1.02-.59-1.97-1.3-2.82-2.11-.41-.39-.48-1.02-.18-1.49L9.56,7.57c.16-.28.37-.69.43-1,.1-.49,0-.87-.3-1.19-.82-.87-3.02-1.25-5.36-.92-.6.08-1.21-.29-1.4-.87-.09-.25-.27-1.13.92-1.82,4.08-2.35,9.14-2.35,13.21,0,.29.17.58.35.86.54.39.26.56.75.43,1.21-.04.14-.03.19-.03.19.06.09.57.31,1.71.2.35-.03.7.05,1.01.22l1.83,1.05c.26.15.45.39.53.69.08.29.04.6-.11.86l-2.54,4.4c-.15.26-.4.45-.69.53-.29.08-.6.04-.86-.11l-1.83-1.06c-.31-.18-.55-.44-.7-.76-.48-1.04-.93-1.38-1.04-1.38,0,0-.04.01-.12.09-.06.05-.11.12-.15.21L6.18,26.04c-.21.4-.62.63-1.05.63ZM1.59,22.81c.71.65,1.49,1.23,2.34,1.72.34.2.7.38,1.06.55L14.05,7.94c.12-.23.27-.42.44-.59.54-.52,1.08-.55,1.44-.48.98.18,1.69,1.31,2.12,2.23.02.04.05.07.08.09l1.51.88,2.18-3.77-1.51-.87s-.08-.04-.13-.03c-1.02.09-2.36.04-3.01-.75-.21-.25-.41-.67-.32-1.27-.17-.11-.35-.22-.53-.32-3.5-2.02-7.82-2.08-11.38-.18,2.14-.16,4.59.14,5.84,1.47.64.68.88,1.55.68,2.51-.1.51-.37,1.03-.62,1.48L1.59,22.81ZM22,5.99s0,0,0,0h0ZM17.08,3.54s0,0,0,0c0,0,0,0,0,0Z"/>
  </g>
</svg>