<?xml version="1.0" encoding="UTF-8"?>
<svg id="Laag_2" data-name="Laag 2" xmlns="http://www.w3.org/2000/svg" viewBox="0 0 500 500">
  <defs>
    <style>
      .cls-1 {
        fill: none;
      }

      .cls-1, .cls-2 {
        stroke-width: 0px;
      }

      .cls-2 {
        fill: #4d81fe;
      }
    </style>
  </defs>
  <g id="Laag_1-2" data-name="Laag 1">
    <g>
      <rect class="cls-1" width="500" height="500"/>
      <g id="svg14514">
        <g>
          <g>
            <path class="cls-2" d="M244.72,232.06c-1.92,0-3.83,1.92-3.83,3.83,0,2.3,1.54,3.83,3.83,3.83s3.83-1.54,3.83-3.83-1.54-3.83-3.83-3.83Z"/>
            <path class="cls-2" d="M256.22,220.55c-1.92,0-3.83,1.92-3.83,3.83,0,2.3,1.54,3.83,3.83,3.83s3.83-1.54,3.83-3.83-1.54-3.83-3.83-3.83Z"/>
            <path class="cls-2" d="M233.21,220.55c-1.92,0-3.83,1.92-3.83,3.83,0,2.3,1.54,3.83,3.83,3.83s3.83-1.54,3.83-3.83-1.54-3.83-3.83-3.83Z"/>
            <path class="cls-2" d="M221.7,232.06c-1.92,0-3.83,1.92-3.83,3.83,0,2.3,1.54,3.83,3.83,3.83s3.83-1.54,3.83-3.83-1.54-3.83-3.83-3.83Z"/>
            <path class="cls-2" d="M198.68,232.06c-1.92,0-3.83,1.92-3.83,3.83,0,2.3,1.54,3.83,3.83,3.83s3.83-1.54,3.83-3.83-1.54-3.83-3.83-3.83Z"/>
            <path class="cls-2" d="M210.19,220.55c-1.92,0-3.83,1.92-3.83,3.83,0,2.3,1.54,3.83,3.83,3.83s3.83-1.54,3.83-3.83-1.54-3.83-3.83-3.83Z"/>
            <path class="cls-2" d="M187.18,220.55c-1.92,0-3.83,1.92-3.83,3.83,0,2.3,1.54,3.83,3.83,3.83s3.83-1.54,3.83-3.83-1.54-3.83-3.83-3.83Z"/>
            <path class="cls-2" d="M175.67,232.06c-1.92,0-3.83,1.92-3.83,3.83,0,2.3,1.54,3.83,3.83,3.83s3.83-1.54,3.83-3.83-1.54-3.83-3.83-3.83Z"/>
            <path class="cls-2" d="M152.65,232.06c-1.92,0-3.83,1.92-3.83,3.83,0,2.3,1.54,3.83,3.83,3.83s3.83-1.54,3.83-3.83-1.54-3.83-3.83-3.83Z"/>
            <path class="cls-2" d="M164.16,220.55c-1.92,0-3.83,1.92-3.83,3.83,0,2.3,1.54,3.83,3.83,3.83s3.83-1.54,3.83-3.83-1.54-3.83-3.83-3.83Z"/>
            <path class="cls-2" d="M244.72,209.05c-1.92,0-3.83,1.92-3.83,3.83,0,2.3,1.54,3.83,3.83,3.83s3.83-1.54,3.83-3.83-1.54-3.83-3.83-3.83Z"/>
            <path class="cls-2" d="M244.72,186.02c-1.92,0-3.83,1.92-3.83,3.83,0,2.3,1.54,3.83,3.83,3.83s3.83-1.54,3.83-3.83-1.54-3.83-3.83-3.83Z"/>
            <path class="cls-2" d="M256.22,197.53c-1.92,0-3.83,1.92-3.83,3.83,0,2.3,1.54,3.83,3.83,3.83s3.83-1.54,3.83-3.83-1.54-3.83-3.83-3.83Z"/>
            <path class="cls-2" d="M233.21,197.53c-1.92,0-3.83,1.92-3.83,3.83,0,2.3,1.54,3.83,3.83,3.83s3.83-1.54,3.83-3.83-1.54-3.83-3.83-3.83Z"/>
            <path class="cls-2" d="M221.7,209.05c-1.92,0-3.83,1.92-3.83,3.83,0,2.3,1.54,3.83,3.83,3.83s3.83-1.54,3.83-3.83-1.54-3.83-3.83-3.83Z"/>
            <path class="cls-2" d="M198.68,209.05c-1.92,0-3.83,1.92-3.83,3.83,0,2.3,1.54,3.83,3.83,3.83s3.83-1.54,3.83-3.83-1.54-3.83-3.83-3.83Z"/>
            <path class="cls-2" d="M221.7,186.02c-1.92,0-3.83,1.92-3.83,3.83,0,2.3,1.54,3.83,3.83,3.83s3.83-1.54,3.83-3.83-1.54-3.83-3.83-3.83Z"/>
            <path class="cls-2" d="M198.68,186.02c-1.92,0-3.83,1.92-3.83,3.83,0,2.3,1.54,3.83,3.83,3.83s3.83-1.54,3.83-3.83-1.54-3.83-3.83-3.83Z"/>
            <path class="cls-2" d="M210.19,197.53c-1.92,0-3.83,1.92-3.83,3.83,0,2.3,1.54,3.83,3.83,3.83s3.83-1.54,3.83-3.83-1.54-3.83-3.83-3.83Z"/>
            <path class="cls-2" d="M187.18,197.53c-1.92,0-3.83,1.92-3.83,3.83,0,2.3,1.54,3.83,3.83,3.83s3.83-1.54,3.83-3.83-1.54-3.83-3.83-3.83Z"/>
            <path class="cls-2" d="M175.67,209.05c-1.92,0-3.83,1.92-3.83,3.83,0,2.3,1.54,3.83,3.83,3.83s3.83-1.54,3.83-3.83-1.54-3.83-3.83-3.83Z"/>
            <path class="cls-2" d="M152.65,209.05c-1.92,0-3.83,1.92-3.83,3.83,0,2.3,1.54,3.83,3.83,3.83s3.83-1.54,3.83-3.83-1.54-3.83-3.83-3.83Z"/>
            <path class="cls-2" d="M175.67,186.02c-1.92,0-3.83,1.92-3.83,3.83,0,2.3,1.54,3.83,3.83,3.83s3.83-1.54,3.83-3.83-1.54-3.83-3.83-3.83Z"/>
            <path class="cls-2" d="M152.65,186.02c-1.92,0-3.83,1.92-3.83,3.83,0,2.3,1.54,3.83,3.83,3.83s3.83-1.54,3.83-3.83-1.54-3.83-3.83-3.83Z"/>
            <path class="cls-2" d="M164.16,197.53c-1.92,0-3.83,1.92-3.83,3.83,0,2.3,1.54,3.83,3.83,3.83s3.83-1.54,3.83-3.83-1.54-3.83-3.83-3.83Z"/>
            <path class="cls-2" d="M244.72,163.01c-1.92,0-3.83,1.92-3.83,3.83,0,2.3,1.54,3.83,3.83,3.83s3.83-1.54,3.83-3.83-1.54-3.83-3.83-3.83Z"/>
            <path class="cls-2" d="M256.22,174.52c-1.92,0-3.83,1.92-3.83,3.83,0,2.3,1.54,3.83,3.83,3.83s3.83-1.54,3.83-3.83-1.54-3.83-3.83-3.83Z"/>
            <path class="cls-2" d="M233.21,174.52c-1.92,0-3.83,1.92-3.83,3.83,0,2.3,1.54,3.83,3.83,3.83s3.83-1.54,3.83-3.83-1.54-3.83-3.83-3.83Z"/>
            <path class="cls-2" d="M256.22,151.5c-1.92,0-3.83,1.92-3.83,3.83,0,2.3,1.54,3.83,3.83,3.83s3.83-1.54,3.83-3.83-1.54-3.83-3.83-3.83Z"/>
            <path class="cls-2" d="M233.21,151.5c-1.92,0-3.83,1.92-3.83,3.83,0,2.3,1.54,3.83,3.83,3.83s3.83-1.54,3.83-3.83-1.54-3.83-3.83-3.83Z"/>
            <path class="cls-2" d="M221.7,163.01c-1.92,0-3.83,1.92-3.83,3.83,0,2.3,1.54,3.83,3.83,3.83s3.83-1.54,3.83-3.83-1.54-3.83-3.83-3.83Z"/>
            <path class="cls-2" d="M198.68,163.01c-1.92,0-3.83,1.92-3.83,3.83,0,2.3,1.54,3.83,3.83,3.83s3.83-1.54,3.83-3.83-1.54-3.83-3.83-3.83Z"/>
            <path class="cls-2" d="M210.19,174.52c-1.92,0-3.83,1.92-3.83,3.83,0,2.3,1.54,3.83,3.83,3.83s3.83-1.54,3.83-3.83-1.54-3.83-3.83-3.83Z"/>
            <path class="cls-2" d="M187.18,174.52c-1.92,0-3.83,1.92-3.83,3.83,0,2.3,1.54,3.83,3.83,3.83s3.83-1.54,3.83-3.83-1.54-3.83-3.83-3.83Z"/>
            <path class="cls-2" d="M210.19,151.5c-1.92,0-3.83,1.92-3.83,3.83,0,2.3,1.54,3.83,3.83,3.83s3.83-1.54,3.83-3.83-1.54-3.83-3.83-3.83Z"/>
            <path class="cls-2" d="M187.18,151.5c-1.92,0-3.83,1.92-3.83,3.83,0,2.3,1.54,3.83,3.83,3.83s3.83-1.54,3.83-3.83-1.54-3.83-3.83-3.83Z"/>
            <path class="cls-2" d="M175.67,163.01c-1.92,0-3.83,1.92-3.83,3.83,0,2.3,1.54,3.83,3.83,3.83s3.83-1.54,3.83-3.83-1.54-3.83-3.83-3.83Z"/>
            <path class="cls-2" d="M152.65,163.01c-1.92,0-3.83,1.92-3.83,3.83,0,2.3,1.54,3.83,3.83,3.83s3.83-1.54,3.83-3.83-1.54-3.83-3.83-3.83Z"/>
            <path class="cls-2" d="M164.16,174.52c-1.92,0-3.83,1.92-3.83,3.83,0,2.3,1.54,3.83,3.83,3.83s3.83-1.54,3.83-3.83-1.54-3.83-3.83-3.83Z"/>
            <path class="cls-2" d="M164.16,151.5c-1.92,0-3.83,1.92-3.83,3.83,0,2.3,1.54,3.83,3.83,3.83s3.83-1.54,3.83-3.83-1.54-3.83-3.83-3.83Z"/>
            <path class="cls-2" d="M244.72,139.99c-1.92,0-3.83,1.92-3.83,3.83,0,2.3,1.54,3.83,3.83,3.83s3.83-1.54,3.83-3.83-1.54-3.83-3.83-3.83Z"/>
            <path class="cls-2" d="M244.72,116.98c-1.92,0-3.83,1.92-3.83,3.83,0,2.3,1.54,3.83,3.83,3.83s3.83-1.54,3.83-3.83-1.54-3.83-3.83-3.83Z"/>
            <path class="cls-2" d="M256.22,128.48c-1.92,0-3.83,1.92-3.83,3.83,0,2.3,1.54,3.83,3.83,3.83s3.83-1.54,3.83-3.83-1.54-3.83-3.83-3.83Z"/>
            <path class="cls-2" d="M233.21,128.48c-1.92,0-3.83,1.92-3.83,3.83,0,2.3,1.54,3.83,3.83,3.83s3.83-1.54,3.83-3.83-1.54-3.83-3.83-3.83Z"/>
            <path class="cls-2" d="M221.7,139.99c-1.92,0-3.83,1.92-3.83,3.83,0,2.3,1.54,3.83,3.83,3.83s3.83-1.54,3.83-3.83-1.54-3.83-3.83-3.83Z"/>
            <path class="cls-2" d="M198.68,139.99c-1.92,0-3.83,1.92-3.83,3.83,0,2.3,1.54,3.83,3.83,3.83s3.83-1.54,3.83-3.83-1.54-3.83-3.83-3.83Z"/>
            <path class="cls-2" d="M221.7,116.98c-1.92,0-3.83,1.92-3.83,3.83,0,2.3,1.54,3.83,3.83,3.83s3.83-1.54,3.83-3.83-1.54-3.83-3.83-3.83Z"/>
            <path class="cls-2" d="M198.68,116.98c-1.92,0-3.83,1.92-3.83,3.83,0,2.3,1.54,3.83,3.83,3.83s3.83-1.54,3.83-3.83-1.54-3.83-3.83-3.83Z"/>
            <path class="cls-2" d="M210.19,128.48c-1.92,0-3.83,1.92-3.83,3.83,0,2.3,1.54,3.83,3.83,3.83s3.83-1.54,3.83-3.83-1.54-3.83-3.83-3.83Z"/>
            <path class="cls-2" d="M187.18,128.48c-1.92,0-3.83,1.92-3.83,3.83,0,2.3,1.54,3.83,3.83,3.83s3.83-1.54,3.83-3.83-1.54-3.83-3.83-3.83Z"/>
            <path class="cls-2" d="M175.67,139.99c-1.92,0-3.83,1.92-3.83,3.83,0,2.3,1.54,3.83,3.83,3.83s3.83-1.54,3.83-3.83-1.54-3.83-3.83-3.83Z"/>
            <path class="cls-2" d="M152.65,139.99c-1.92,0-3.83,1.92-3.83,3.83,0,2.3,1.54,3.83,3.83,3.83s3.83-1.54,3.83-3.83-1.54-3.83-3.83-3.83Z"/>
            <path class="cls-2" d="M175.67,116.98c-1.92,0-3.83,1.92-3.83,3.83,0,2.3,1.54,3.83,3.83,3.83s3.83-1.54,3.83-3.83-1.54-3.83-3.83-3.83Z"/>
            <path class="cls-2" d="M152.65,116.98c-1.92,0-3.83,1.92-3.83,3.83,0,2.3,1.54,3.83,3.83,3.83s3.83-1.54,3.83-3.83-1.54-3.83-3.83-3.83Z"/>
            <path class="cls-2" d="M164.16,128.48c-1.92,0-3.83,1.92-3.83,3.83,0,2.3,1.54,3.83,3.83,3.83s3.83-1.54,3.83-3.83-1.54-3.83-3.83-3.83Z"/>
            <path class="cls-2" d="M263.9,117.09c0-2.3-1.54-3.83-3.83-3.83H37.57c-2.3,0-3.83,1.54-3.83,3.83v222.49c0,2.3,1.54,3.83,3.83,3.83h111.25c2.3,0,3.83-1.54,3.83-3.83v-46.03h92.06c10.74,0,19.18-11.89,19.18-26.85h0V117.09h0ZM152.65,120.93h103.57v124.18c-1.05-1.09-2.18-2.02-3.38-2.8-.18-.11-.35-.23-.53-.33-.11-.06-.22-.12-.33-.19-.15-.08-.3-.17-.45-.25-.14-.07-.29-.14-.43-.21-.11-.05-.23-.11-.34-.16-.17-.08-.35-.16-.52-.22-.07-.03-.14-.05-.21-.08-.9-.35-1.82-.61-2.77-.79-.1-.02-.19-.04-.28-.05-.17-.03-.34-.05-.51-.07-.16-.02-.31-.03-.46-.05-.13,0-.26-.02-.39-.03-.3-.02-.59-.03-.89-.03h-92.06v-118.91h0ZM133.47,285.88c-3.64,0-7.02-3.11-9.16-7.81-1.46-3.21-2.35-7.17-2.35-11.38,0-2.27.26-4.46.72-6.5,1.66-7.29,5.99-12.68,10.79-12.68h97.73c-3.51,4.85-5.67,11.62-5.67,19.18s2.15,14.33,5.67,19.18h-97.74,0ZM144.98,335.75H41.41V120.93h103.57v118.92h-11.51c-10.74,0-19.18,11.89-19.18,26.85s8.44,26.85,19.18,26.85h11.51v42.2h0ZM244.72,285.88c-3.64,0-7.02-3.11-9.16-7.81-1.46-3.21-2.35-7.17-2.35-11.38,0-2.27.26-4.46.72-6.5,1.66-7.29,5.98-12.67,10.78-12.68h0c4.15,0,7.95,4.04,9.98,9.87.96,2.78,1.53,5.96,1.53,9.31,0,10.36-5.37,19.18-11.51,19.18h0Z"/>
          </g>
          <g id="layer1">
            <path id="path13027" class="cls-2" d="M323.71,218.94c-2.89,1.44-6.55,3.49-9.36,7.05-2.82,3.56-4.8,8.71-3.5,15.38l17.59,49.36-5.68,5.68c-3.59,3.45,1.72,8.76,5.17,5.17l27-27c2.02-1.84,4.5-1.3,5.8,0,1.61,1.61,1.65,4.15,0,5.8l-35.59,35.59-10.53-10.53c-4.25-4.25-11.24-4.25-15.49,0l-44.21,44.18c-8.48,8.48-8.48,22.28,0,30.76s22.29,8.48,30.77,0l44.18-44.18c4.1-4.1,4.2-10.74.4-15.03l35.63-35.63c4.42-4.42,4.54-11.83,0-16.14-5.19-4.93-11.91-4.08-16.14,0l-15.6,15.6-16.15-45.23c-.61-4.5.4-7.13,2.08-9.25,1.71-2.16,4.34-3.77,6.9-5.05,33.74-16.87,97.74-38.68,126.95-48.77,2.05-.71,3.26-.29,4.11.56s1.27,2.07.56,4.11c-10.1,29.21-31.91,93.21-48.77,126.95-1.28,2.56-2.88,5.2-5.04,6.91-2.12,1.68-4.74,2.68-9.23,2.08l-35.46-12.66c-4.59-1.64-7.06,5.25-2.46,6.89l35.95,12.84c.23.08.46.14.7.17,6.33.93,11.48-.77,15.03-3.58,3.56-2.82,5.6-6.48,7.05-9.37,17.39-34.78,39.07-98.67,49.14-127.83,1.44-4.18.87-8.68-2.3-11.68-3.67-3.47-8.18-3.5-11.68-2.3-29.16,10.08-93.05,31.75-127.83,49.14h0ZM306.87,309.48c.93,0,1.85.37,2.59,1.11l15.25,15.26c1.48,1.48,1.48,3.71,0,5.18l-44.18,44.18c-5.7,5.7-14.73,5.7-20.43,0-5.7-5.7-5.7-14.71,0-20.41l44.18-44.21c.74-.74,1.67-1.11,2.59-1.11h0Z" vector-effect="none"/>
          </g>
        </g>
      </g>
    </g>
  </g>
</svg>