<?xml version="1.0" encoding="UTF-8"?>
<svg id="Laag_2" data-name="Laag 2" xmlns="http://www.w3.org/2000/svg" viewBox="0 0 500 500">
  <defs>
    <style>
      .cls-1 {
        fill: none;
      }

      .cls-1, .cls-2 {
        stroke-width: 0px;
      }

      .cls-2 {
        fill: #4d81fe;
      }
    </style>
  </defs>
  <g id="Laag_1-2" data-name="Laag 1">
    <g>
      <rect class="cls-1" width="500" height="500"/>
      <g>
        <g>
          <path class="cls-2" d="M405.52,406.27h-50.37V87.26c0-3.29-2.47-6.06-5.75-6.43l-170.08-19.2c-3.55-.4-6.75,2.15-7.15,5.71-.03.24-.04.48-.04.72v12.72h-73.64c-3.57,0-6.47,2.9-6.47,6.47v319.01h-50.37c-3.57,0-6.47,2.9-6.47,6.47s2.9,6.47,6.47,6.47h130.48v12.72c0,3.57,2.9,6.47,6.47,6.47.25,0,.49-.01.74-.04l169.71-19.15h56.48c3.57,0,6.47-2.9,6.47-6.47s-2.9-6.47-6.47-6.47h-.01ZM104.96,93.73h67.17v16.64h-44.06c-3.57,0-6.47,2.9-6.47,6.47v289.43h-16.64V93.73ZM134.54,406.27V123.31h37.59v282.96h-37.59ZM185.07,75.31l157.14,17.75v313.91l-157.14,17.75V75.31Z"/>
          <path class="cls-2" d="M178.65,440.4h-.06c-4.65,0-8.45-3.8-8.45-8.47v-10.72H41.65c-4.67,0-8.47-3.8-8.47-8.47s3.8-8.47,8.47-8.47h48.37V87.26c0-4.67,3.8-8.47,8.47-8.47h71.64v-10.72c0-.32.02-.63.05-.95.52-4.64,4.73-7.99,9.37-7.47l170.08,19.2c4.29.48,7.52,4.1,7.52,8.41v317.01h48.38c4.67,0,8.47,3.8,8.47,8.47s-3.8,8.47-8.47,8.47h-56.37l-169.6,19.14c-.3.04-.61.05-.92.05ZM41.65,408.27c-2.47,0-4.47,2.01-4.47,4.47s2.01,4.47,4.47,4.47h132.48v14.72c0,2.46,2.01,4.47,4.47,4.47.18,0,.34,0,.51-.03l169.83-19.17h56.59c2.46,0,4.47-2.01,4.47-4.47s-2.01-4.47-4.47-4.47h-52.38V87.26c0-2.28-1.71-4.19-3.97-4.44l-170.08-19.2c-1.19-.13-2.35.2-3.29.95-.93.74-1.52,1.81-1.66,2.99-.02.16-.03.33-.03.5v14.72h-75.64c-2.46,0-4.47,2.01-4.47,4.47v321.01h-52.37ZM183.07,426.95V73.07l161.14,18.2v317.48l-161.14,18.2ZM187.07,77.55v344.92l153.14-17.29V94.84l-153.14-17.29ZM174.13,408.27h-41.59V121.31h41.59v286.96ZM136.54,404.27h33.59V125.31h-33.59v278.96ZM123.6,408.27h-20.64V91.73h71.17v20.64h-46.06c-2.47,0-4.47,2.01-4.47,4.47v291.43ZM106.96,404.27h12.64V116.84c0-4.67,3.8-8.47,8.47-8.47h42.06v-12.64h-63.17v308.54Z"/>
        </g>
        <path class="cls-2" d="M212.96,230.74c-10.63,0-19.26,8.62-19.26,19.26s8.62,19.26,19.26,19.26,19.26-8.62,19.26-19.26h0c-.01-10.63-8.63-19.24-19.26-19.26ZM212.96,256.32c-3.49,0-6.32-2.83-6.32-6.32s2.83-6.32,6.32-6.32,6.32,2.83,6.32,6.32c0,3.49-2.83,6.31-6.32,6.32Z"/>
      </g>
    </g>
  </g>
</svg>