<?xml version="1.0" encoding="UTF-8"?>
<svg id="Laag_2" data-name="Laag 2" xmlns="http://www.w3.org/2000/svg" viewBox="0 0 500 500">
  <defs>
    <style>
      .cls-1 {
        fill: none;
      }

      .cls-1, .cls-2 {
        stroke-width: 0px;
      }

      .cls-2 {
        fill: #4d81fe;
      }
    </style>
  </defs>
  <g id="Laag_1-2" data-name="Laag 1">
    <g>
      <rect class="cls-1" y="0" width="500" height="500"/>
      <g>
        <g>
          <path class="cls-2" d="M237.09,321.66H35.84c-6.31,0-11.44-5.13-11.44-11.44v-113.28c0-2.48,2.01-4.49,4.49-4.49s4.49,2.01,4.49,4.49v113.28c0,1.35,1.1,2.46,2.46,2.46h201.24c1.35,0,2.46-1.1,2.46-2.46V108.98c0-1.35-1.1-2.46-2.46-2.46H35.84c-.63,0-1.23.24-1.69.68-.28.27-.76.86-.76,1.78v71.59c0,2.48-2.01,4.49-4.49,4.49s-4.49-2.01-4.49-4.49v-71.59c0-3.12,1.3-6.14,3.56-8.29,2.14-2.03,4.94-3.15,7.88-3.15h201.24c6.31,0,11.44,5.13,11.44,11.44v201.24c0,6.31-5.13,11.44-11.44,11.44Z"/>
          <rect class="cls-2" x="24.31" y="159.67" width="9.18" height="40.16"/>
        </g>
        <g>
          <path class="cls-2" d="M53.9,127.89c-1.53-2-1.01-4.76,1.16-6.17,1.27-.82,2.89-1.03,4.35-.56l1.8-5.14c-5.62-1.7-11.67,1.1-13.52,6.26-1.05,2.92-.55,6.12,1.35,8.66l4.86-3.05Z"/>
          <path class="cls-2" d="M120.92,137.63c.6,0,1.2-.05,1.79-.15,4.07-.8,7.27-3.69,8.2-7.41l-5.72-1.32c-.39,1.67-1.78,2.99-3.58,3.41-2.52.24-4.85-1.26-5.47-3.52l-5.65,1.53c1.32,4.31,5.55,7.33,10.42,7.46Z"/>
          <path class="cls-2" d="M86.09,157.69c1.82.36,3.26,1.63,3.72,3.29.25,2.31-1.38,4.45-3.83,5.02l1.67,5.19c5.36-1.35,8.78-6.16,7.95-11.21-.87-3.74-4.02-6.67-8.07-7.53l-1.44,5.25Z"/>
          <path class="cls-2" d="M73.35,207.4c1.79,1.13,3.9,1.73,6.07,1.72,2.17,0,4.29-.59,6.1-1.71l-3.31-4.48c-2.18,1.4-5.18.92-6.71-1.08-.89-1.16-1.12-2.64-.62-3.98l-5.6-1.65c-1.44,4.14.2,8.66,4.06,11.17Z"/>
          <path class="cls-2" d="M115.45,188.83c.99.27,2.02.4,3.06.4,3.48-.02,6.76-1.5,8.91-4.02l-4.6-3.38c-1.73,2.16-5.03,2.62-7.38,1.03-1.55-1.05-2.35-2.79-2.1-4.54l-5.89-.42c-.46,4.92,2.87,9.47,8.01,10.92Z"/>
          <rect class="cls-2" x="110.38" y="153.76" width="5.89" height="5.41"/>
          <rect class="cls-2" x="51.46" y="148.35" width="5.89" height="5.41"/>
          <rect class="cls-2" x="45.57" y="191.65" width="5.89" height="5.41"/>
          <rect class="cls-2" x="107.43" y="202.47" width="5.89" height="5.41"/>
          <rect class="cls-2" x="83.87" y="115.88" width="5.89" height="5.41"/>
          <path class="cls-2" d="M56.72,173.61c-1.1-.29-2.02-.99-2.53-1.93-.52-1.89.3-3.88,2.06-4.97l-3.66-4.24c-3.84,2.57-5.39,7.15-3.83,11.26,1.15,2.4,3.38,4.23,6.1,5.01,1.2.37,2.46.56,3.73.56,2.17,0,4.3-.54,6.17-1.56l-2.98-4.67c-1.52.84-3.36,1.04-5.05.53Z"/>
          <path class="cls-2" d="M229.53,133.51c1.9-2.53,2.4-5.74,1.35-8.66-1.85-5.16-7.91-7.96-13.52-6.26l1.8,5.14c1.47-.47,3.09-.26,4.35.56,2.17,1.41,2.69,4.17,1.16,6.17l4.86,3.05Z"/>
          <path class="cls-2" d="M160.65,145.2l1.91-5.12c-2.43-.66-3.96-2.86-3.6-5.17.53-1.64,2.03-2.85,3.86-3.14l-1.19-5.3c-4.09.7-7.37,3.52-8.41,7.22-.14.54-.22,1.08-.24,1.63-.07,4.48,3.04,8.48,7.67,9.88Z"/>
          <path class="cls-2" d="M197.38,160.09c-3.48-2.09-7.97-2.14-11.51-.13-4.53,2.95-5.95,8.55-3.3,13.04l5.23-2.49c-1.25-2.02-.7-4.58,1.29-6.01,1.62-.84,3.62-.77,5.16.18l3.12-4.59Z"/>
          <path class="cls-2" d="M211.62,202.83l-5.8-.89c-.23,1.4-1.17,2.62-2.53,3.27-2.36,1.13-5.27.29-6.5-1.87l-5.18,2.59c1.04,1.75,2.63,3.17,4.56,4.09,1.92.92,4.11,1.28,6.26,1.03,4.68-.6,8.4-3.93,9.19-8.21Z"/>
          <path class="cls-2" d="M171.13,180.48l-5.89.42c.25,1.75-.55,3.49-2.1,4.54-2.35,1.59-5.65,1.13-7.38-1.03l-4.6,3.38c2.15,2.52,5.43,3.99,8.91,4.02,1.03,0,2.06-.13,3.06-.4,5.14-1.45,8.48-6,8.01-10.92Z"/>
          <rect class="cls-2" x="162.29" y="156.33" width="5.89" height="5.41"/>
          <rect class="cls-2" x="221.22" y="150.92" width="5.89" height="5.41"/>
          <rect class="cls-2" x="227.11" y="196.65" width="5.89" height="5.41"/>
          <rect class="cls-2" x="165.24" y="205.04" width="5.89" height="5.41"/>
          <rect class="cls-2" x="188.81" y="118.45" width="5.89" height="5.41"/>
          <path class="cls-2" d="M216.8,175.65l-2.98,4.67c1.87,1.01,4,1.55,6.17,1.56,1.27,0,2.53-.19,3.73-.56,2.73-.78,4.95-2.61,6.1-5.01,1.56-4.12,0-8.69-3.83-11.26l-3.66,4.24c1.76,1.09,2.59,3.08,2.06,4.97-.51.94-1.43,1.64-2.53,1.93-1.69.51-3.53.31-5.05-.53Z"/>
          <rect class="cls-2" x="136.92" y="157.12" width="5.89" height="5.41"/>
          <rect class="cls-2" x="139.57" y="118.23" width="5.89" height="5.41"/>
          <rect class="cls-2" x="136.92" y="208.17" width="5.89" height="5.41"/>
          <path class="cls-2" d="M51.58,218.97c-1.53-2-1.01-4.76,1.16-6.17,1.27-.82,2.89-1.03,4.35-.56l1.8-5.14c-5.62-1.7-11.67,1.1-13.52,6.26-1.05,2.92-.55,6.12,1.35,8.66l4.86-3.05Z"/>
          <path class="cls-2" d="M118.6,228.71c.6,0,1.2-.05,1.79-.15,4.07-.8,7.27-3.69,8.2-7.41l-5.72-1.32c-.39,1.67-1.78,2.99-3.58,3.41-2.52.24-4.85-1.26-5.47-3.52l-5.65,1.53c1.32,4.31,5.55,7.33,10.42,7.46Z"/>
          <path class="cls-2" d="M83.78,248.76c1.82.36,3.26,1.63,3.72,3.29.25,2.31-1.38,4.45-3.83,5.02l1.67,5.19c5.36-1.35,8.78-6.16,7.95-11.21-.87-3.74-4.02-6.67-8.07-7.53l-1.44,5.25Z"/>
          <path class="cls-2" d="M71.03,298.48c1.79,1.13,3.9,1.73,6.07,1.72,2.17,0,4.29-.59,6.1-1.71l-3.31-4.48c-2.18,1.4-5.18.92-6.71-1.08-.89-1.16-1.12-2.64-.62-3.98l-5.6-1.65c-1.44,4.14.2,8.66,4.06,11.17Z"/>
          <path class="cls-2" d="M113.13,279.91c.99.27,2.02.4,3.06.4,3.48-.02,6.76-1.5,8.91-4.02l-4.6-3.38c-1.73,2.16-5.03,2.62-7.38,1.03-1.55-1.05-2.35-2.79-2.1-4.54l-5.89-.42c-.46,4.92,2.87,9.47,8.01,10.92Z"/>
          <rect class="cls-2" x="108.06" y="244.84" width="5.89" height="5.41"/>
          <rect class="cls-2" x="49.14" y="239.43" width="5.89" height="5.41"/>
          <rect class="cls-2" x="43.25" y="282.72" width="5.89" height="5.41"/>
          <rect class="cls-2" x="105.12" y="293.55" width="5.89" height="5.41"/>
          <rect class="cls-2" x="74.27" y="219.11" width="5.89" height="5.41"/>
          <path class="cls-2" d="M54.4,264.69c-1.1-.29-2.02-.99-2.53-1.93-.52-1.89.3-3.88,2.06-4.97l-3.66-4.24c-3.84,2.57-5.39,7.15-3.83,11.26,1.15,2.4,3.38,4.23,6.1,5.01,1.2.37,2.46.56,3.73.56,2.17,0,4.3-.54,6.17-1.56l-2.98-4.67c-1.52.84-3.36,1.04-5.05.53Z"/>
          <path class="cls-2" d="M227.22,224.58c1.9-2.53,2.4-5.74,1.35-8.66-1.85-5.16-7.91-7.96-13.52-6.26l1.8,5.14c1.47-.47,3.09-.26,4.35.56,2.17,1.41,2.69,4.17,1.16,6.17l4.86,3.05Z"/>
          <path class="cls-2" d="M158.33,236.27l1.91-5.12c-2.43-.66-3.96-2.86-3.6-5.17.53-1.64,2.03-2.85,3.86-3.14l-1.19-5.3c-4.09.7-7.37,3.52-8.41,7.22-.14.54-.22,1.08-.24,1.63-.07,4.48,3.04,8.48,7.67,9.88Z"/>
          <path class="cls-2" d="M195.06,251.16c-3.48-2.09-7.97-2.14-11.51-.13-4.53,2.95-5.95,8.55-3.3,13.04l5.23-2.49c-1.25-2.02-.7-4.58,1.29-6.01,1.62-.84,3.62-.77,5.16.18l3.12-4.59Z"/>
          <path class="cls-2" d="M209.31,293.91l-5.8-.89c-.23,1.4-1.17,2.62-2.53,3.27-2.36,1.13-5.27.29-6.5-1.87l-5.18,2.59c1.04,1.75,2.63,3.17,4.56,4.09,1.92.92,4.11,1.28,6.26,1.03,4.68-.6,8.4-3.93,9.19-8.21Z"/>
          <path class="cls-2" d="M168.82,271.55l-5.89.42c.25,1.75-.55,3.49-2.1,4.54-2.35,1.59-5.65,1.13-7.38-1.03l-4.6,3.38c2.15,2.52,5.43,3.99,8.91,4.02,1.03,0,2.06-.13,3.06-.4,5.14-1.45,8.48-6,8.01-10.92Z"/>
          <rect class="cls-2" x="159.98" y="247.41" width="5.89" height="5.41"/>
          <rect class="cls-2" x="218.9" y="241.99" width="5.89" height="5.41"/>
          <rect class="cls-2" x="224.79" y="285.29" width="5.89" height="5.41"/>
          <rect class="cls-2" x="162.92" y="296.11" width="5.89" height="5.41"/>
          <rect class="cls-2" x="188.48" y="221.68" width="5.89" height="5.41"/>
          <path class="cls-2" d="M214.48,266.72l-2.98,4.67c1.87,1.01,4,1.55,6.17,1.56,1.27,0,2.53-.19,3.73-.56,2.73-.78,4.95-2.61,6.1-5.01,1.56-4.12,0-8.69-3.83-11.26l-3.66,4.24c1.76,1.09,2.59,3.08,2.06,4.97-.51.94-1.43,1.64-2.53,1.93-1.69.51-3.53.31-5.05-.53Z"/>
          <rect class="cls-2" x="134.61" y="248.2" width="5.89" height="5.41"/>
          <rect class="cls-2" x="134.61" y="299.25" width="5.89" height="5.41"/>
          <rect class="cls-2" x="192.03" y="184.86" width="5.89" height="5.41"/>
        </g>
        <g id="layer1">
          <path id="path13027" class="cls-2" d="M284.12,234.66c-2.89,1.44-6.55,3.49-9.36,7.05-2.82,3.56-4.8,8.71-3.5,15.38l17.59,49.36-5.68,5.68c-3.59,3.45,1.72,8.76,5.17,5.17l27-27c2.02-1.84,4.5-1.3,5.8,0,1.61,1.61,1.65,4.15,0,5.8l-35.59,35.59-10.53-10.53c-4.25-4.25-11.24-4.25-15.49,0l-44.21,44.18c-8.48,8.48-8.48,22.28,0,30.76s22.29,8.48,30.77,0l44.18-44.18c4.1-4.1,4.2-10.74.4-15.03l35.63-35.63c4.42-4.42,4.54-11.83,0-16.14-5.19-4.93-11.91-4.08-16.14,0l-15.6,15.6-16.15-45.23c-.61-4.5.4-7.13,2.08-9.25,1.71-2.16,4.34-3.77,6.9-5.05,33.74-16.87,97.74-38.68,126.95-48.77,2.05-.71,3.26-.29,4.11.56s1.27,2.07.56,4.11c-10.1,29.21-31.91,93.21-48.77,126.95-1.28,2.56-2.88,5.2-5.04,6.91-2.12,1.68-4.74,2.68-9.23,2.08l-35.46-12.66c-4.59-1.64-7.06,5.25-2.46,6.89l35.95,12.84c.23.08.46.14.7.17,6.33.93,11.48-.77,15.03-3.58,3.56-2.82,5.6-6.48,7.05-9.37,17.39-34.78,39.07-98.67,49.14-127.83,1.44-4.18.87-8.68-2.3-11.68-3.67-3.47-8.18-3.5-11.68-2.3-29.16,10.08-93.05,31.75-127.83,49.14h0ZM267.28,325.2c.93,0,1.85.37,2.59,1.11l15.25,15.26c1.48,1.48,1.48,3.71,0,5.18l-44.18,44.18c-5.7,5.7-14.73,5.7-20.43,0-5.7-5.7-5.7-14.71,0-20.41l44.18-44.21c.74-.74,1.67-1.11,2.59-1.11h0Z" vector-effect="none"/>
        </g>
      </g>
    </g>
  </g>
</svg>