<?xml version="1.0" encoding="UTF-8"?>
<svg id="Laag_2" data-name="Laag 2" xmlns="http://www.w3.org/2000/svg" viewBox="0 0 500 500">
  <defs>
    <style>
      .cls-1 {
        fill: none;
      }

      .cls-1, .cls-2 {
        stroke-width: 0px;
      }

      .cls-2 {
        fill: #4d81fe;
      }
    </style>
  </defs>
  <g id="Laag_1-2" data-name="Laag 1">
    <rect class="cls-1" y="0" width="500" height="500"/>
    <path class="cls-2" d="M52.43,369.83v58.09c0,2.51,2.03,4.54,4.54,4.54,0,0,117.37,0,119.83,0,2.91.06,3.93-2.27,3.93-2.27l171.91-297.75c.4-.69.61-1.47.61-2.27v-58.09c0-.79-.2-1.57-.61-2.27-.81-1.4-2.31-2.27-3.93-2.27h-119.83c-1.62,0-3.12.87-3.93,2.27L53.04,367.56s-.61.84-.61,2.27ZM146.6,223.66c7.69-8.27,52.11-56.29,70.39-80.94,17.14-23.11,49.59-58.22,56.94-66.1h34.33c-10.88,10.29-22.78,20.81-35.27,31.84-43.88,38.74-93.61,82.65-114.87,133.3-22.73,54.16-61,107.52-72.92,123.53h-20.37l81.77-141.63ZM159.05,365.29c8.95-11.91,19.04-27.54,29.71-44.07,17.76-27.51,37.23-57.67,57.58-80.92l-72.17,125h-15.13ZM263.27,210.97c-29.64,24.01-57.51,67.18-82.13,105.32-10.87,16.84-21.14,32.75-30.06,44.5-1.15,1.51-2.31,3.01-3.48,4.5h-22.39c14.61-15.12,31.92-39.88,58.94-83.8,36.98-60.09,58.81-89.71,80.55-109.3,20.9-18.83,32.08-29.23,41.06-37.58,1.18-1.1,2.32-2.16,3.45-3.21l-45.94,79.56ZM324.17,105.48c-10.21,9.1-44.7,41.18-65.55,59.97-22.44,20.22-44.72,50.38-82.2,111.28-30.66,49.82-49.02,75.12-64.34,88.55h-15.61c15.12-20.79,49.03-69.99,70.03-120.02,20.46-48.74,69.36-91.92,112.51-130.01,15.16-13.38,29.47-26.02,42.23-38.5l-.14-.14h19.76l-16.67,28.87ZM261.57,76.61c-12.32,13.4-37.4,41.18-51.87,60.7-9.53,12.85-26.76,32.67-41.84,49.53l63.64-110.23h30.07ZM61.51,374.36h15.92c-4.73,6.02-10.8,14.76-15.92,25.37v-25.37ZM89.26,374.36h14.39c-2.69,5.13-5.74,12.07-7.94,20.57-2.37,9.14-3.31,18.7-2.85,28.45h-30.31c5.64-23.37,20.85-42.36,26.71-49.02h0ZM104.5,397.21c2.67-10.31,6.74-18.12,9.55-22.84h30c-4.44,17.43-10.44,28.69-14.93,37.09-2.45,4.6-4.45,8.34-5.59,11.93h-21.59c-.46-8.99.38-17.78,2.55-26.18h0ZM137.14,415.73c4.9-9.17,11.52-21.61,16.27-41.37h18.85v49.02h-39.01c.98-2.21,2.33-4.74,3.88-7.65ZM181.34,410.98v-39.94L344.16,89.01v39.94l-162.83,282.03Z"/>
  </g>
</svg>