<?xml version="1.0" encoding="UTF-8"?>
<svg id="Laag_2" data-name="Laag 2" xmlns="http://www.w3.org/2000/svg" viewBox="0 0 500 500">
  <defs>
    <style>
      .cls-1 {
        fill: none;
      }

      .cls-1, .cls-2 {
        stroke-width: 0px;
      }

      .cls-2 {
        fill: #4d81fe;
      }
    </style>
  </defs>
  <g id="Laag_1-2" data-name="Laag 1">
    <g>
      <rect class="cls-1" width="500" height="500"/>
      <g>
        <path class="cls-2" d="M348.11,94.13H51.22c-4.1,0-7.42,3.32-7.42,7.42v296.89c0,4.1,3.32,7.42,7.42,7.42h296.89c4.1,0,7.42-3.32,7.42-7.42V101.56c0-4.1-3.32-7.42-7.42-7.42ZM192.24,391.02H58.64v-141.02h133.6v141.02ZM192.24,235.16H58.64v-126.18h133.6v126.18ZM340.69,391.02h-133.6v-141.02h133.6v141.02ZM340.69,235.16h-133.6v-126.18h133.6v126.18Z"/>
        <path class="cls-2" d="M75.64,155.68l29.69-29.69,10.5,10.5-29.69,29.69-10.5-10.5Z"/>
        <path class="cls-2" d="M75.64,192.79l66.79-66.79,10.5,10.5-66.79,66.79-10.5-10.5Z"/>
      </g>
    </g>
  </g>
</svg>