<?xml version="1.0" encoding="UTF-8"?>
<svg id="Laag_2" data-name="Laag 2" xmlns="http://www.w3.org/2000/svg" viewBox="0 0 500 500">
  <defs>
    <style>
      .cls-1 {
        fill: none;
      }

      .cls-1, .cls-2 {
        stroke-width: 0px;
      }

      .cls-2 {
        fill: #4d81fe;
      }
    </style>
  </defs>
  <g id="Laag_1-2" data-name="Laag 1">
    <g>
      <rect class="cls-1" width="500" height="500"/>
      <g>
        <g>
          <path class="cls-2" d="M439.42,474.03H64.56c-4.31,0-7.78-3.47-7.78-7.78v-238.5c0-4.31,3.47-7.78,7.78-7.78s7.78,3.47,7.78,7.78v230.72h359.31v-230.72c0-4.31,3.47-7.78,7.78-7.78s7.78,3.47,7.78,7.78v238.5c0,4.31-3.5,7.78-7.78,7.78Z"/>
          <path class="cls-2" d="M249.99,49.53c1.69,0,3.4.55,4.8,1.65l214.88,169.02c1.78,1.39,3.99,2.01,6.22,1.75s4.25-1.39,5.64-3.14c2.88-3.66,2.24-8.98-1.43-11.83L249.99,25.97,19.88,206.99c-1.78,1.39-2.88,3.4-3.14,5.64s.36,4.44,1.75,6.22c2.88,3.66,8.17,4.28,11.83,1.43L245.19,51.25c1.39-1.17,3.11-1.72,4.8-1.72h0Z"/>
        </g>
        <path class="cls-2" d="M399.27,162.71c-4.31,0-7.78-3.47-7.78-7.78v-89.41h-38.56v46.83c0,4.31-3.47,7.78-7.78,7.78s-7.78-3.47-7.78-7.78v-54.6c0-4.31,3.47-7.78,7.78-7.78h54.12c4.31,0,7.78,3.47,7.78,7.78v97.18c0,4.31-3.47,7.78-7.78,7.78Z"/>
        <g>
          <path class="cls-2" d="M334.42,431.32c-1.98,0-3.99-.75-5.51-2.27l-108.91-108.95c-7.65,3.31-15.94,5.02-24.34,5.02-16.33,0-31.72-6.35-43.26-17.92-23.85-23.85-23.85-62.7,0-86.55,11.57-11.57,26.93-17.92,43.26-17.92s31.72,6.35,43.26,17.92c9.82,9.82,16.04,22.81,17.56,36.59,1.13,10.5-.52,21.32-4.67,31.01l24.5,24.5,21.29-21.29c1.46-1.46,3.43-2.27,5.51-2.27s4.05.81,5.51,2.27l19.54,19.54c3.05,3.05,3.05,7.97,0,10.99l-21.29,21.29,8.49,8.49,21.29-21.29c1.46-1.46,3.43-2.27,5.51-2.27s4.05.81,5.51,2.27l19.54,19.54c3.05,3.05,3.05,7.97,0,10.99l-21.29,21.29,14.84,14.84c1.46,1.46,2.27,3.43,2.27,5.51s-.81,4.05-2.27,5.51l-20.84,20.84c-1.52,1.56-3.5,2.33-5.51,2.33h0ZM221.56,302.9c2.01,0,4.02.78,5.51,2.27l107.36,107.36,9.85-9.85-14.84-14.84c-1.46-1.46-2.27-3.43-2.27-5.51s.81-4.05,2.27-5.51l21.29-21.29-8.55-8.55-21.29,21.29c-3.05,3.05-7.97,3.05-10.99,0l-19.48-19.48c-3.05-3.05-3.05-7.97,0-10.99l21.29-21.29-8.55-8.55-21.29,21.29c-3.05,3.05-7.97,3.05-10.99,0l-33.96-33.9c-2.46-2.46-2.98-6.22-1.3-9.27,4.54-8.17,6.45-17.82,5.44-27.12-1.13-10.27-5.77-19.96-13.09-27.29-8.62-8.62-20.09-13.38-32.28-13.38s-23.66,4.76-32.28,13.38c-17.79,17.79-17.79,46.76,0,64.55,8.62,8.62,20.09,13.38,32.28,13.38,7.74,0,15.39-1.98,22.13-5.7,1.17-.68,2.46-1,3.73-1h0Z"/>
          <path class="cls-2" d="M195.67,296.58c-8.72,0-16.92-3.4-23.07-9.56s-9.56-14.36-9.56-23.07,3.4-16.92,9.56-23.07c12.74-12.74,33.41-12.74,46.14,0,6.16,6.16,9.56,14.36,9.56,23.07s-3.4,16.92-9.56,23.07-14.36,9.56-23.07,9.56ZM195.67,246.87c-4.37,0-8.75,1.65-12.09,4.99-3.24,3.24-4.99,7.52-4.99,12.09s1.78,8.85,4.99,12.09c3.24,3.24,7.52,4.99,12.09,4.99s8.85-1.78,12.09-4.99c3.24-3.24,4.99-7.52,4.99-12.09s-1.78-8.85-4.99-12.09c-3.34-3.34-7.71-4.99-12.09-4.99Z"/>
        </g>
      </g>
    </g>
  </g>
</svg>