<?xml version="1.0" encoding="UTF-8"?>
<svg id="Laag_2" data-name="Laag 2" xmlns="http://www.w3.org/2000/svg" viewBox="0 0 500 500">
  <defs>
    <style>
      .cls-1 {
        fill: none;
      }

      .cls-1, .cls-2 {
        stroke-width: 0px;
      }

      .cls-2 {
        fill: #4d81fe;
      }
    </style>
  </defs>
  <g id="Laag_1-2" data-name="Laag 1">
    <g>
      <rect class="cls-1" width="500" height="500"/>
      <g>
        <g>
          <path class="cls-2" d="M425.48,445.33H74.7c-10.99,0-19.94-8.94-19.94-19.94v-197.46c0-4.32,3.5-7.83,7.83-7.83s7.83,3.5,7.83,7.83v197.46c0,2.36,1.92,4.28,4.28,4.28h350.78c2.36,0,4.28-1.92,4.28-4.28V74.61c0-2.36-1.92-4.28-4.28-4.28H74.7c-1.1,0-2.15.42-2.95,1.18-.49.47-1.33,1.5-1.33,3.1v124.78c0,4.32-3.5,7.83-7.83,7.83s-7.83-3.5-7.83-7.83v-124.78c0-5.43,2.26-10.7,6.2-14.45,3.74-3.54,8.61-5.48,13.73-5.48h350.78c10.99,0,19.94,8.94,19.94,19.94v350.78c0,10.99-8.94,19.94-19.94,19.94Z"/>
          <path class="cls-2" d="M425.48,445.33h-175.39c-4.32,0-7.83-3.5-7.83-7.83v-34.73c0-4.32,3.5-7.83,7.83-7.83s7.83,3.5,7.83,7.83v26.9h167.56c2.36,0,4.28-1.92,4.28-4.28v-189.63h-171.84v140.2c0,4.32-3.5,7.83-7.83,7.83s-7.83-3.5-7.83-7.83v-148.02c0-4.32,3.5-7.83,7.83-7.83h187.5c4.32,0,7.83,3.5,7.83,7.83v197.46c0,10.99-8.94,19.94-19.94,19.94Z"/>
          <path class="cls-2" d="M437.59,235.76h-187.5c-1.91,0-3.75-.7-5.18-1.96L61.18,71.7c-1.65-1.45-2.61-3.53-2.65-5.73-.04-2.2.85-4.31,2.44-5.82,3.72-3.53,8.6-5.47,13.72-5.47h252.51c2.62,0,5.06,1.31,6.51,3.48l42.11,63.12c2.4,3.6,1.43,8.46-2.17,10.86s-8.46,1.43-10.86-2.17l-39.79-59.63H83.29l169.76,149.78h169.91l-45.49-68.18c-2.4-3.6-1.43-8.46,2.17-10.86,3.6-2.4,8.46-1.43,10.86,2.17l53.62,80.36c1.6,2.4,1.75,5.49.39,8.04s-4.01,4.14-6.9,4.14Z"/>
          <path class="cls-2" d="M312.59,235.76c-2.03,0-4.06-.79-5.6-2.35L145.2,67.97c-3.02-3.09-2.97-8.05.12-11.07,3.09-3.02,8.05-2.97,11.07.12l161.79,165.43c3.02,3.09,2.97,8.05-.12,11.07-1.52,1.49-3.5,2.23-5.47,2.23Z"/>
          <path class="cls-2" d="M375.09,235.76c-2.26,0-4.5-.97-6.05-2.85L232.95,67.47c-2.75-3.34-2.27-8.27,1.07-11.02,3.34-2.75,8.27-2.27,11.02,1.07l136.09,165.43c2.75,3.34,2.27,8.27-1.07,11.02-1.46,1.2-3.22,1.78-4.97,1.78Z"/>
          <path class="cls-2" d="M364.43,126.11H125.81c-4.32,0-7.83-3.5-7.83-7.83s3.5-7.83,7.83-7.83h238.61c4.32,0,7.83,3.5,7.83,7.83s-3.5,7.83-7.83,7.83Z"/>
          <path class="cls-2" d="M401.16,181.16h-212.95c-4.32,0-7.83-3.5-7.83-7.83s3.5-7.83,7.83-7.83h212.95c4.32,0,7.83,3.5,7.83,7.83s-3.5,7.83-7.83,7.83Z"/>
        </g>
        <rect class="cls-2" x="54.59" y="162.98" width="16" height="70"/>
        <rect class="cls-2" x="242.34" y="355.98" width="15.5" height="70"/>
        <rect class="cls-2" x="378.63" y="114.51" width="15.63" height="73.56" transform="translate(-19.18 239.02) rotate(-33.58)"/>
      </g>
    </g>
  </g>
</svg>