<?xml version="1.0" encoding="UTF-8"?>
<svg id="Laag_2" data-name="Laag 2" xmlns="http://www.w3.org/2000/svg" viewBox="0 0 500 500">
  <defs>
    <style>
      .cls-1 {
        fill: none;
      }

      .cls-1, .cls-2 {
        stroke-width: 0px;
      }

      .cls-2 {
        fill: #4d81fe;
      }
    </style>
  </defs>
  <g id="Laag_1-2" data-name="Laag 1">
    <g>
      <rect class="cls-1" width="500" height="500"/>
      <g>
        <g>
          <path class="cls-2" d="M439.42,474.03H64.56c-4.31,0-7.78-3.47-7.78-7.78v-238.5c0-4.31,3.47-7.78,7.78-7.78s7.78,3.47,7.78,7.78v230.72h359.31v-230.72c0-4.31,3.47-7.78,7.78-7.78s7.78,3.47,7.78,7.78v238.5c0,4.31-3.5,7.78-7.78,7.78Z"/>
          <path class="cls-2" d="M249.99,49.53c1.69,0,3.4.55,4.8,1.65l214.88,169.02c1.78,1.39,3.99,2.01,6.22,1.75s4.25-1.39,5.64-3.14c2.88-3.66,2.24-8.98-1.43-11.83L249.99,25.97,19.88,206.99c-1.78,1.39-2.88,3.4-3.14,5.64s.36,4.44,1.75,6.22c2.88,3.66,8.17,4.28,11.83,1.43L245.19,51.25c1.39-1.17,3.11-1.72,4.8-1.72h0Z"/>
        </g>
        <path class="cls-2" d="M399.27,162.71c-4.31,0-7.78-3.47-7.78-7.78v-89.41h-38.56v46.83c0,4.31-3.47,7.78-7.78,7.78s-7.78-3.47-7.78-7.78v-54.6c0-4.31,3.47-7.78,7.78-7.78h54.12c4.31,0,7.78,3.47,7.78,7.78v97.18c0,4.31-3.47,7.78-7.78,7.78Z"/>
        <g>
          <g>
            <path class="cls-2" d="M333.76,421.08c-9.59,0-18.63-3.73-25.44-10.53l-68.47-68.47c-3.05-3.05-3.05-7.97,0-10.99s7.97-3.05,10.99,0l68.47,68.47c3.86,3.86,8.98,5.99,14.42,5.99s10.56-2.14,14.42-5.99,5.99-8.98,5.99-14.42-2.14-10.56-5.99-14.42l-68.44-68.54c-3.05-3.05-3.05-7.97,0-10.99,3.05-3.05,7.97-3.05,10.99,0l68.47,68.47c6.81,6.81,10.53,15.81,10.53,25.44s-3.73,18.63-10.53,25.44-15.81,10.53-25.41,10.53Z"/>
            <path class="cls-2" d="M335.25,394.38c-1.98,0-3.99-.75-5.51-2.27l-68.73-68.73c-3.05-3.05-3.05-7.97,0-10.99,3.05-3.05,7.97-3.05,10.99,0l68.73,68.73c3.05,3.05,3.05,7.97,0,10.99-1.49,1.52-3.47,2.27-5.48,2.27Z"/>
            <path class="cls-2" d="M230.71,307.7c-1.98,0-3.99-.75-5.51-2.27l-65.72-65.72-10.37-4.41c-.81-.32-1.52-.81-2.17-1.39l-.87-.78c-.65-.58-1.17-1.26-1.59-2.01l-6.38-11.54c-.81-1.49-1.13-3.18-.91-4.86l.29-2.17c.23-1.69,1-3.21,2.2-4.41l17.08-17.08c1.2-1.2,2.75-1.98,4.41-2.2l2.17-.29c1.69-.23,3.37.06,4.86.91l11.54,6.38c.75.42,1.43.94,2.01,1.59l.78.87c.58.65,1.04,1.36,1.39,2.17l4.41,10.37,65.72,65.69c3.05,3.05,3.05,7.97,0,10.99-3.05,3.05-7.97,3.05-10.99,0l-66.79-66.75c-.71-.71-1.26-1.52-1.65-2.46l-4.18-9.85-5.8-3.21-10.73,10.73,3.21,5.8,9.85,4.21c.91.39,1.75.94,2.46,1.65l66.75,66.75c3.05,3.05,3.05,7.97,0,10.99-1.49,1.52-3.5,2.3-5.48,2.3h0Z"/>
          </g>
          <path class="cls-2" d="M186.22,420.95c-5.9,0-11.76-1-17.37-3.01-2.4-.87-4.21-2.85-4.89-5.31s-.06-5.09,1.59-7.03l20.97-24.73-11.57-11.57-24.73,20.97c-1.94,1.65-4.57,2.24-7.03,1.59s-4.44-2.5-5.31-4.89c-3.24-9.04-3.89-18.79-1.88-28.19,2.07-9.69,6.87-18.5,13.9-25.54,7.03-7.03,15.85-11.83,25.54-13.9,7.74-1.65,15.75-1.52,23.36.39l69.99-69.99c-1.91-7.62-2.07-15.62-.39-23.36,2.07-9.69,6.87-18.5,13.9-25.54s15.85-11.83,25.54-13.9c9.4-2.01,19.15-1.36,28.19,1.88,2.4.87,4.21,2.85,4.89,5.31.65,2.46.06,5.09-1.59,7.03l-20.97,24.73,11.57,11.57,24.73-20.97c1.94-1.65,4.57-2.24,7.03-1.59s4.44,2.5,5.31,4.89c3.24,9.04,3.89,18.79,1.88,28.19-2.07,9.69-6.87,18.5-13.9,25.54s-15.85,11.83-25.54,13.9c-7.74,1.65-15.75,1.52-23.36-.39l-69.99,69.99c1.91,7.62,2.07,15.62.39,23.36-2.07,9.69-6.87,18.5-13.9,25.54s-15.85,11.83-25.54,13.9c-3.6.75-7.23,1.13-10.82,1.13h0ZM186.09,405.4h.03c9.37,0,18.6-3.66,25.44-10.47,9.75-9.75,13.06-24.47,8.39-37.46-1-2.82-.32-5.99,1.81-8.13l76.61-76.57c2.14-2.14,5.28-2.85,8.13-1.81,12.99,4.67,27.71,1.36,37.46-8.39,6.84-6.84,10.5-16.07,10.47-25.47l-19.93,16.92c-3.08,2.62-7.68,2.43-10.53-.42l-21.71-21.71c-2.85-2.85-3.05-7.45-.42-10.53l16.92-19.93h-.03c-9.37,0-18.6,3.66-25.44,10.47-9.75,9.75-13.06,24.47-8.39,37.46,1,2.82.29,5.99-1.81,8.13l-76.57,76.61c-2.14,2.14-5.28,2.85-8.13,1.81-12.99-4.67-27.71-1.36-37.46,8.39-6.84,6.84-10.5,16.07-10.47,25.47l19.93-16.92c3.08-2.62,7.68-2.43,10.53.42l21.71,21.71c2.85,2.85,3.05,7.45.42,10.53l-16.95,19.9Z"/>
        </g>
      </g>
    </g>
  </g>
</svg>