<?xml version="1.0" encoding="UTF-8"?>
<svg id="Laag_2" data-name="Laag 2" xmlns="http://www.w3.org/2000/svg" viewBox="0 0 500 500">
  <defs>
    <style>
      .cls-1 {
        fill: none;
      }

      .cls-1, .cls-2 {
        stroke-width: 0px;
      }

      .cls-2 {
        fill: #4d81fe;
      }
    </style>
  </defs>
  <g id="Laag_1-2" data-name="Laag 1">
    <g>
      <rect class="cls-1" width="500" height="500"/>
      <g id="svg14514">
        <g>
          <g id="layer1">
            <path id="path12997" class="cls-2" d="M46.83,156.18c-6.13,0-11.16,5.03-11.16,11.16v44.7c0,6.13,5.03,11.16,11.16,11.16,5.08.11,5.08-7.56,0-7.45-2.13,0-3.74-1.58-3.74-3.71v-33.54h11.19c2.13,0,3.71,1.61,3.71,3.74v37.22c0,8.19,6.71,14.9,14.9,14.9s14.9-6.72,14.9-14.9v-29.77c0-2.13,1.61-3.74,3.74-3.74s3.71,1.61,3.71,3.74v3.71c0,8.19,6.72,14.9,14.9,14.9s14.9-6.72,14.9-14.9v-11.16c0-2.13,1.58-3.74,3.71-3.74h29.8c4.97,0,4.97-7.46,0-7.46h-29.8c-6.13,0-11.16,5.07-11.16,11.19v11.16c0,4.19-3.26,7.45-7.45,7.45s-7.46-3.26-7.46-7.45v-3.71c0-6.13-5.03-11.19-11.16-11.19s-11.19,5.06-11.19,11.19v29.77c0,4.19-3.26,7.45-7.45,7.45s-7.45-3.26-7.45-7.45v-37.22c0-6.13-5.03-11.19-11.16-11.19h-11.19v-3.71c0-2.13,1.61-3.74,3.74-3.74h119.17c2.13,0,3.71,1.61,3.71,3.74v44.7c0,2.13-1.58,3.71-3.71,3.71h-67.05c-5.08-.11-5.08,7.56,0,7.45h67.05c6.13,0,11.16-5.03,11.16-11.16v-18.64h11.19c2.13,0,3.71,1.61,3.71,3.74v26.06c.2,1.66-3.78,3.26-5.47,4.15-21.1,11.17-63.31,33.51-63.31,33.51-1.68.89-3.69,1.74-5.64,3.27s-3.79,4.27-3.79,7.48v18.61h-18.61c-2.06,0-3.72,1.68-3.71,3.74v14.9c0,2.04,1.66,3.7,3.71,3.71h3.71v55.86c0,6.13,5.07,11.19,11.19,11.19h14.9c6.13,0,11.16-5.07,11.16-11.19v-44.66c0-4.97-7.45-4.97-7.45,0v44.66c0,2.13-1.58,3.75-3.71,3.75h-14.9c-2.13,0-3.75-1.62-3.75-3.75v-55.86h33.54c2.04,0,3.7-1.66,3.71-3.71v-14.9c0-2.06-1.65-3.73-3.71-3.74h-18.64v-18.61c0-.92.07-.94.93-1.62.86-.68,2.57-1.49,4.54-2.53l63.31-33.51c1.68-.89,3.71-1.74,5.66-3.27s3.77-4.27,3.77-7.48v-26.06c0-6.13-5.04-11.19-11.16-11.19h-11.19v-18.61c0-6.13-5.03-11.16-11.16-11.16H46.83ZM98.95,297.66h37.25v7.45h-37.25v-7.45Z" vector-effect="none"/>
          </g>
          <g id="layer1-2">
            <path id="path13027" class="cls-2" d="M257.13,171.18c-2.94,1.47-6.67,3.56-9.53,7.18-2.87,3.62-4.89,8.87-3.57,15.67l17.91,50.27-5.78,5.78c-3.65,3.51,1.75,8.92,5.26,5.26l27.5-27.5c2.06-1.88,4.59-1.32,5.91,0,1.64,1.64,1.68,4.23,0,5.91l-36.25,36.25-10.72-10.72c-4.33-4.33-11.45-4.33-15.78,0l-45.03,45c-8.63,8.63-8.63,22.7,0,31.33,8.63,8.63,22.71,8.63,31.34,0l45-45c4.18-4.18,4.28-10.94.4-15.31l36.29-36.29c4.51-4.51,4.62-12.05,0-16.44-5.28-5.02-12.13-4.15-16.44,0l-15.89,15.89-16.45-46.07c-.62-4.59.4-7.26,2.12-9.42,1.74-2.2,4.42-3.84,7.02-5.14,34.36-17.18,99.54-39.39,129.3-49.68,2.09-.72,3.32-.3,4.19.57.87.87,1.29,2.1.57,4.19-10.28,29.75-32.5,94.93-49.68,129.3-1.3,2.61-2.93,5.29-5.13,7.03-2.16,1.71-4.83,2.73-9.4,2.12l-36.11-12.89c-4.68-1.67-7.19,5.34-2.51,7.02l36.62,13.08c.23.08.47.14.71.17,6.44.94,11.69-.79,15.31-3.65,3.62-2.87,5.71-6.6,7.18-9.54,17.71-35.42,39.79-100.49,50.05-130.19,1.47-4.25.89-8.84-2.34-11.89-3.74-3.54-8.33-3.56-11.89-2.34-29.7,10.26-94.77,32.34-130.19,50.05h0ZM239.98,263.4c.94,0,1.88.38,2.63,1.13l15.53,15.54c1.5,1.5,1.5,3.78,0,5.28l-45,45c-5.81,5.81-15,5.81-20.81,0-5.81-5.81-5.81-14.98,0-20.79l45-45.03c.75-.75,1.7-1.13,2.64-1.13h0Z" vector-effect="none"/>
          </g>
        </g>
      </g>
    </g>
  </g>
</svg>