<svg width="601" height="600" viewBox="0 0 601 600" fill="none" xmlns="http://www.w3.org/2000/svg">
<path d="M440 0C429.388 0.000126383 419.211 4.21323 411.707 11.7125C404.204 19.2117 399.988 29.3828 399.988 39.9883V60.002H40.0117C29.4002 60.002 19.2233 64.2149 11.7197 71.7137C4.21611 79.2125 0.000421269 89.3832 1.66922e-09 99.9883C-4.79921e-05 105.24 1.03485 110.439 3.0456 115.291C5.05635 120.143 8.00358 124.551 11.719 128.264C15.4344 131.977 19.8453 134.923 24.6998 136.933C29.5543 138.942 34.7573 139.977 40.0117 139.977H399.988V160.014C399.988 170.619 404.204 180.79 411.707 188.289C419.211 195.789 429.388 200.002 440 200.002C450.612 200.002 460.789 195.789 468.293 188.289C475.796 180.79 480.012 170.619 480.012 160.014V139.977H559.986C565.241 139.977 570.444 138.943 575.299 136.933C580.154 134.924 584.565 131.978 588.28 128.265C591.996 124.552 594.943 120.143 596.954 115.291C598.965 110.44 600 105.24 600 99.9883C600 94.737 598.965 89.5372 596.954 84.6857C594.943 79.8342 591.995 75.4261 588.28 71.713C584.564 67.9999 580.153 65.0546 575.298 63.0452C570.444 61.0359 565.241 60.0017 559.986 60.002H480.012V39.9883C480.012 29.3828 475.796 19.2117 468.293 11.7125C460.789 4.21323 450.612 0.000126383 440 0ZM150 200C144.745 200 139.542 201.034 134.687 203.043C129.833 205.053 125.422 207.999 121.706 211.712C117.99 215.425 115.043 219.833 113.032 224.685C111.021 229.537 109.986 234.737 109.986 239.988V260H40.0234C34.769 260 29.566 261.034 24.7115 263.044C19.857 265.054 15.4462 267.999 11.7307 271.712C8.0153 275.426 5.06807 279.834 3.05732 284.686C1.04657 289.537 0.0116701 294.737 0.0117186 299.988C0.0116701 305.24 1.04657 310.439 3.05732 315.291C5.06807 320.143 8.0153 324.551 11.7307 328.264C15.4462 331.977 19.857 334.923 24.7115 336.933C29.566 338.942 34.769 339.977 40.0234 339.977H109.986V360.014C109.986 365.265 111.021 370.465 113.032 375.317C115.043 380.169 117.99 384.577 121.706 388.29C125.422 392.003 129.833 394.949 134.687 396.958C139.542 398.968 144.745 400.002 150 400.002C160.612 400.002 170.789 395.789 178.293 388.289C185.796 380.79 190.012 370.619 190.012 360.014V339.977H560C565.255 339.977 570.458 338.942 575.312 336.933C580.166 334.923 584.577 331.977 588.293 328.264C592.008 324.551 594.955 320.143 596.966 315.291C598.977 310.439 600.012 305.24 600.012 299.988C600.012 294.737 598.977 289.537 596.966 284.686C594.955 279.834 592.008 275.426 588.293 271.712C584.577 267.999 580.166 265.054 575.312 263.044C570.458 261.034 565.255 260 560 260H190.012V239.988C190.012 229.383 185.796 219.212 178.293 211.712C170.789 204.213 160.612 200 150 200ZM280 400.002C269.388 400.002 259.212 404.215 251.708 411.714C244.204 419.213 239.989 429.383 239.988 439.988V460H40.0234C34.769 460 29.566 461.034 24.7115 463.044C19.857 465.054 15.4462 467.999 11.7307 471.712C8.0153 475.426 5.06807 479.834 3.05732 484.686C1.04657 489.537 0.0116701 494.737 0.0117186 499.988C0.0121406 510.593 4.22782 520.764 11.7314 528.263C19.235 535.762 29.4119 539.975 40.0234 539.975H239.988V560.014C239.989 570.619 244.204 580.789 251.708 588.288C259.212 595.787 269.388 600 280 600C290.612 600 300.788 595.787 308.292 588.288C315.796 580.789 320.011 570.619 320.012 560.014V539.975H560C570.612 539.975 580.788 535.762 588.292 528.263C595.796 520.764 600.011 510.593 600.012 499.988C600.012 494.737 598.977 489.537 596.966 484.686C594.955 479.834 592.008 475.426 588.293 471.712C584.577 467.999 580.166 465.054 575.312 463.044C570.458 461.034 565.255 460 560 460H320.012V439.988C320.011 429.383 315.796 419.213 308.292 411.714C300.788 404.215 290.612 400.002 280 400.002Z" fill="#E20514"/>
</svg>
