<?xml version="1.0" encoding="UTF-8"?><svg id="Laag_2" xmlns="http://www.w3.org/2000/svg" viewBox="0 0 518.18 130.14"><defs><style>.cls-1{fill:#ebeced;}.cls-2{fill:#fff;}</style></defs><g id="Laag_1-2"><g id="layer_1"><g><path class="cls-2" d="M170.04,121.69h-4.12v6.44h4.34c2.58,0,4.22-1.17,4.22-3.22v-.05c0-2-1.57-3.17-4.45-3.17m3.67-4.98c0-1.83-1.38-2.99-3.75-2.99h-4.04v6.28h3.86c2.37,0,3.92-1.17,3.92-3.24v-.06Zm-9.7-4.72h6.05c1.89,0,3.43,.54,4.43,1.53,.74,.74,1.17,1.73,1.17,2.94v.05c0,2.37-1.45,3.57-2.94,4.16,2.09,.62,3.7,1.87,3.7,4.29v.08c0,3.04-2.48,4.82-6.23,4.82h-6.18v-17.88Z"/><path class="cls-2" d="M179.05,116.55h1.84v13.31h-1.84v-13.31Zm-.1-4.9h2.04v2.17h-2.04v-2.17Z"/><path class="cls-2" d="M184.58,116.55h1.84v2.94c.79-1.86,2.4-3.22,4.57-3.12v2h-.1c-2.48,0-4.47,1.74-4.47,5.16v6.33h-1.84v-13.31Z"/><path class="cls-2" d="M209.23,123.32v-.2c0-3.24-1.74-5.15-3.78-5.15s-4.03,2.02-4.03,5.13v.25c0,3.12,1.94,5.11,4.03,5.11s3.78-1.86,3.78-5.14m-7.74,4.07v2.47h-1.84v-18.44h1.84v7.69c.89-1.51,2.22-2.81,4.31-2.81,2.71,0,5.31,2.35,5.31,6.77v.25c0,4.43-2.6,6.8-5.31,6.8-2.12,0-3.45-1.28-4.31-2.73"/><path class="cls-2" d="M221.47,125.24v-1.66c-.84-.3-1.91-.54-3.22-.54-2.12,0-3.3,1.11-3.3,2.79v.07c0,1.66,1.26,2.71,2.84,2.71,2.04,.03,3.68-1.43,3.68-3.37m-8.35,.76v-.1c0-2.73,1.97-4.29,4.9-4.29,1.41,0,2.43,.23,3.43,.53v-.79c0-2.15-1.25-3.29-3.4-3.29-1.33,0-2.48,.41-3.4,.89l-.59-1.51c1.25-.61,2.55-1.08,4.19-1.08s2.86,.47,3.73,1.34c.81,.81,1.27,2.04,1.27,3.59v8.56h-1.81v-1.94c-.79,1.26-2.1,2.22-4.06,2.22-2.22,0-4.27-1.5-4.27-4.14"/><path class="cls-2" d="M226.58,116.55h1.85v2.17c.73-1.33,1.94-2.43,3.92-2.43,2.71,0,4.35,1.86,4.35,4.85v8.71h-1.84v-8.2c0-2.38-1.12-3.7-3.06-3.7s-3.37,1.53-3.37,3.8v8.1h-1.85v-13.31Z"/><path class="cls-2" d="M240.05,111.42h1.84v12.39l5.9-7.26h2.22l-4.67,5.59,4.85,7.72h-2.17l-3.93-6.26-2.2,2.58v3.68h-1.84v-18.44Z"/><path class="cls-2" d="M259.67,125.24v-1.66c-.84-.3-1.91-.54-3.22-.54-2.12,0-3.3,1.11-3.3,2.79v.07c0,1.66,1.25,2.71,2.84,2.71,2.04,.03,3.68-1.43,3.68-3.37m-8.35,.76v-.1c0-2.73,1.97-4.29,4.91-4.29,1.4,0,2.43,.23,3.42,.53v-.79c0-2.15-1.25-3.29-3.39-3.29-1.33,0-2.48,.41-3.4,.89l-.59-1.51c1.25-.61,2.55-1.08,4.19-1.08s2.86,.47,3.73,1.34c.81,.81,1.28,2.04,1.28,3.59v8.56h-1.82v-1.94c-.79,1.26-2.09,2.22-4.06,2.22-2.23,0-4.27-1.5-4.27-4.14"/><path class="cls-2" d="M273.83,123.32v-.22c0-3.14-1.92-5.13-4.02-5.13s-3.8,1.86-3.8,5.13v.2c0,3.25,1.74,5.16,3.8,5.16s4.02-1.99,4.02-5.14m-9.7,.03v-.25c0-4.42,2.6-6.79,5.31-6.79,2.12,0,3.44,1.27,4.32,2.73v-7.61h1.84v18.44h-1.84v-2.55c-.89,1.51-2.22,2.81-4.32,2.81-2.71,0-5.31-2.32-5.31-6.77"/><path class="cls-2" d="M286.6,125.24v-1.66c-.84-.3-1.92-.54-3.22-.54-2.12,0-3.3,1.11-3.3,2.79v.07c0,1.66,1.25,2.71,2.84,2.71,2.04,.03,3.68-1.43,3.68-3.37m-8.35,.76v-.1c0-2.73,1.97-4.29,4.9-4.29,1.4,0,2.43,.23,3.43,.53v-.79c0-2.15-1.25-3.29-3.4-3.29-1.33,0-2.48,.41-3.4,.89l-.58-1.51c1.25-.61,2.55-1.08,4.19-1.08s2.86,.47,3.73,1.34c.82,.81,1.27,2.04,1.27,3.59v8.56h-1.81v-1.94c-.79,1.26-2.09,2.22-4.07,2.22-2.22,0-4.26-1.5-4.26-4.14"/><path class="cls-2" d="M291.72,116.55h1.84v2.17c.73-1.33,1.94-2.43,3.93-2.43,2.71,0,4.34,1.86,4.34,4.85v8.71h-1.84v-8.2c0-2.38-1.13-3.7-3.07-3.7s-3.37,1.53-3.37,3.8v8.1h-1.84v-13.31Z"/><path class="cls-2" d="M320.59,123.32v-.22c0-3.14-1.92-5.13-4.02-5.13s-3.81,1.86-3.81,5.13v.2c0,3.25,1.74,5.16,3.81,5.16s4.02-1.99,4.02-5.14m-9.72,.03v-.25c0-4.42,2.61-6.79,5.32-6.79,2.12,0,3.44,1.27,4.31,2.73v-7.61h1.84v18.44h-1.84v-2.55c-.89,1.51-2.22,2.81-4.31,2.81-2.71,0-5.32-2.32-5.32-6.77"/><path class="cls-2" d="M333.36,125.24v-1.66c-.84-.3-1.91-.54-3.22-.54-2.11,0-3.28,1.11-3.28,2.79v.07c0,1.66,1.25,2.71,2.83,2.71,2.04,.03,3.68-1.43,3.68-3.37m-8.35,.76v-.1c0-2.73,1.97-4.29,4.9-4.29,1.4,0,2.43,.23,3.42,.53v-.79c0-2.15-1.25-3.29-3.39-3.29-1.33,0-2.48,.41-3.4,.89l-.58-1.51c1.25-.61,2.55-1.08,4.18-1.08s2.87,.47,3.73,1.34c.82,.81,1.28,2.04,1.28,3.59v8.56h-1.82v-1.94c-.79,1.26-2.09,2.22-4.06,2.22-2.22,0-4.27-1.5-4.27-4.14"/><path class="cls-2" d="M338.48,111.42h1.84v7.31c.74-1.33,1.94-2.43,3.93-2.43,2.71,0,4.34,1.86,4.34,4.85v8.71h-1.84v-8.2c0-2.38-1.13-3.7-3.07-3.7s-3.37,1.53-3.37,3.8v8.1h-1.84v-18.44Z"/><path class="cls-2" d="M359.43,125.24v-1.66c-.85-.3-1.92-.54-3.22-.54-2.12,0-3.29,1.11-3.29,2.79v.07c0,1.66,1.25,2.71,2.83,2.71,2.05,.03,3.68-1.43,3.68-3.37m-8.35,.76v-.1c0-2.73,1.96-4.29,4.9-4.29,1.41,0,2.43,.23,3.43,.53v-.79c0-2.15-1.25-3.29-3.4-3.29-1.32,0-2.47,.41-3.4,.89l-.58-1.51c1.25-.61,2.56-1.08,4.19-1.08s2.86,.47,3.73,1.34c.82,.81,1.28,2.04,1.28,3.59v8.56h-1.81v-1.94c-.79,1.26-2.1,2.22-4.06,2.22-2.22,0-4.27-1.5-4.27-4.14"/><path class="cls-2" d="M371.54,118.19h-1.63v-1.61h1.63v-1.23c0-1.37,.38-2.43,1.02-3.09,.61-.61,1.48-.94,2.58-.94,.72,0,1.25,.1,1.77,.25v1.63c-.54-.15-1-.25-1.52-.25-1.32,0-2.01,.82-2.01,2.5v1.12h3.47v1.61h-3.45v11.67h-1.86v-11.67Z"/><path class="cls-2" d="M385.97,125.24v-1.66c-.84-.3-1.91-.54-3.22-.54-2.12,0-3.3,1.11-3.3,2.79v.07c0,1.66,1.25,2.71,2.84,2.71,2.04,.03,3.67-1.43,3.67-3.37m-8.35,.76v-.1c0-2.73,1.97-4.29,4.91-4.29,1.4,0,2.42,.23,3.42,.53v-.79c0-2.15-1.25-3.29-3.4-3.29-1.33,0-2.48,.41-3.4,.89l-.59-1.51c1.25-.61,2.55-1.08,4.19-1.08s2.86,.47,3.73,1.34c.82,.81,1.27,2.04,1.27,3.59v8.56h-1.81v-1.94c-.79,1.26-2.09,2.22-4.06,2.22-2.22,0-4.27-1.5-4.27-4.14"/><path class="cls-2" d="M390.35,128.67l7.38-10.53h-7.1v-1.58h9.46v1.2l-7.39,10.53h7.36v1.58h-9.71v-1.2Z"/><path class="cls-2" d="M402.99,111.42h1.84v18.44h-1.84v-18.44Z"/><path class="cls-2" d="M416,125.24v-1.66c-.84-.3-1.91-.54-3.22-.54-2.12,0-3.3,1.11-3.3,2.79v.07c0,1.66,1.25,2.71,2.84,2.71,2.04,.03,3.68-1.43,3.68-3.37m-8.35,.76v-.1c0-2.73,1.97-4.29,4.91-4.29,1.4,0,2.42,.23,3.42,.53v-.79c0-2.15-1.25-3.29-3.4-3.29-1.32,0-2.48,.41-3.39,.89l-.59-1.51c1.25-.61,2.55-1.08,4.19-1.08s2.86,.47,3.73,1.34c.82,.81,1.28,2.04,1.28,3.59v8.56h-1.81v-1.94c-.79,1.26-2.1,2.22-4.07,2.22-2.22,0-4.27-1.5-4.27-4.14"/><path class="cls-2" d="M419.91,128.23l.98-1.35c1.25,1.04,2.56,1.61,3.88,1.61,1.45,0,2.48-.82,2.48-2.07v-.03c0-1.17-1.1-1.79-2.89-2.53-2.12-.91-3.8-1.76-3.8-3.83v-.05c0-2.17,1.76-3.63,4.13-3.63,1.51,0,3.07,.58,4.19,1.43l-.89,1.4c-1.03-.73-2.17-1.25-3.35-1.25-1.41,0-2.3,.81-2.3,1.86v.06c0,1.12,1.15,1.68,2.96,2.45,2.2,.97,3.73,1.89,3.73,3.91v.05c0,2.38-1.92,3.84-4.31,3.84-1.64,0-3.41-.65-4.81-1.87"/><path class="cls-2" d="M431.95,116.55h1.84v13.31h-1.84v-13.31Z"/><path class="cls-2" d="M118.53,79.34h-27.2l26.92-44.71s.03-.07,.03-.11v-7.64c0-.13-.1-.23-.23-.23h-35.64c-.11,0-.19,.07-.22,.17l-2.16,7.99c-.02,.05,0,.13,.04,.19,.04,.05,.1,.09,.17,.09h26.08l-27.53,45.05s-.03,.08-.03,.13v7.38c0,.11,.1,.22,.21,.22h37.06c.11,0,.2-.06,.22-.17l2.48-8.08c.02-.05,0-.13-.03-.2-.05-.05-.11-.08-.18-.08"/><path class="cls-2" d="M129.18,26.25c-3.72,0-6.64,2.95-6.64,6.73s2.9,6.63,6.46,6.63,6.73-2.98,6.73-6.63-2.95-6.73-6.55-6.73"/><path class="cls-2" d="M133.91,41.84h-.03l-9.75,1.76c-.11,.02-.19,.12-.19,.22v43.82c0,.13,.1,.23,.23,.23h9.74c.13,0,.22-.1,.22-.23V42.07c0-.07-.02-.14-.07-.17-.04-.03-.09-.05-.15-.05"/><path class="cls-2" d="M263.45,80.86s-.07-.03-.07-.03c-.06,0-.09,0-.11,.02-1.72,.63-2.81,.86-4.04,.86-4.11,0-5.23-1.48-5.23-6.89v-25.85h7.95c.07,0,.16-.06,.2-.15l2.54-6.67c.03-.07,.02-.15-.02-.22-.04-.05-.1-.08-.18-.08h-10.4v-11.98c0-.07-.03-.13-.08-.17-.04-.03-.09-.05-.15-.05h-.04l-9.57,1.7c-.11,.02-.19,.12-.19,.22v10.29h-4.69c-.12,0-.23,.1-.23,.22v6.67c0,.13,.1,.23,.23,.23h4.69v28.4c0,5.31,2.05,11.65,11.82,11.65,3.02,0,5.89-.65,8.78-1.95,.09-.05,.14-.16,.13-.26l-1.23-5.79c-.02-.06-.05-.12-.12-.15"/><path class="cls-2" d="M187.13,77.21c-1.95,2.81-4.86,4.49-7.76,4.49-3.71,0-5.92-2.47-5.92-6.62,0-4.92,2.09-8.21,12.33-8.21,.48,0,1.05,.05,1.35,.07v10.26Zm9.49-27.84c-1.97-4.93-6.72-7.52-13.73-7.52-4.56,0-8.64,.87-12.85,2.75-.07,.04-.12,.09-.13,.18l-1.74,9.3c-.02,.09,.03,.19,.1,.23,.04,.03,.07,.04,.07,.04,.1,0,.14-.02,.14-.02,.11-.07,6.76-5.02,13.09-5.02,5.04,0,5.92,2.45,5.92,7.59v3.04h-2.76c-14.51,0-22.17,5.42-22.17,15.67,0,8.63,5.45,13.57,14.97,13.57,3.86,0,6.93-.94,9.66-2.99v2.77c0,.12,.09,.22,.22,.22h9.7c.13,0,.23-.1,.23-.22v-28.63c.09-6.79,.08-9.02-.71-10.97"/><path class="cls-2" d="M225.76,77.21c-1.95,2.81-4.85,4.49-7.77,4.49-3.7,0-5.91-2.47-5.91-6.62,0-4.92,2.1-8.21,12.33-8.21,.48,0,1.06,.05,1.35,.07v10.26Zm9.48-27.84c-1.98-4.93-6.72-7.52-13.72-7.52-4.57,0-8.66,.87-12.86,2.75-.07,.04-.12,.09-.13,.18l-1.8,10.24c-.03,.09,.01,.18,.09,.23,.04,.02,.07,.04,.11,.04,.05,0,.1-.03,.15-.04,.06-.06,6.77-5.06,13.12-5.06,5.03,0,5.92,2.45,5.92,7.6v2.15h-2.76c-14.52,0-22.18,5.42-22.18,15.67,0,8.63,5.46,13.57,14.99,13.57,3.84,0,6.92-.94,9.65-2.99v2.77c0,.12,.1,.22,.22,.22h9.71c.12,0,.22-.1,.22-.22v-28.63c.08-6.79,.08-9.02-.72-10.97"/><path class="cls-2" d="M163.63,53.27h.07s.08,0,.08,0c.09-.05,.14-.11,.15-.17l1.68-9.12c.01-.1-.04-.21-.13-.25-1.07-.46-1.95-.64-3.32-.64-4.17,0-7.61,2.06-11.09,6.65v-7.67c0-.06-.03-.12-.09-.16,0,0-.09-.05-.14-.05h-.04l-8.96,1.58c-.11,.02-.19,.11-.19,.21v44c0,.13,.11,.23,.24,.23h9.66c.12,0,.22-.1,.22-.23v-29.01c.88-3.67,4.37-6.42,8.11-6.42,.9,0,2.4,.56,3.39,.92l.36,.13Z"/><path class="cls-2" d="M309.96,78.77c-2.49,2.22-6.05,2.51-8.89,2.51h-12.7v-22.24h10.49c3.49,0,7.45,0,10.31,2.18,1.45,1.11,3.9,3.84,3.9,9.47,0,4.6-1.95,7.03-3.11,8.07m-21.59-45.95h10.02c2.62,0,5.62,.17,8.21,2.25,2.2,1.84,3.46,4.68,3.46,7.81,0,2.96-1.14,5.75-3.03,7.45-2.67,2.33-6.23,2.33-7.95,2.33h-10.72v-19.84Zm27.2,25.37c-1.88-1.4-4.51-2.53-7.19-3.07,2.9-1.01,4.83-2.43,5.96-3.5,3.5-3.21,4.24-7.06,4.24-9.72,0-4.75-2.43-9.26-6.47-12.05-5.02-3.41-11.23-3.41-16.7-3.41h-14.26c-.12,0-.23,.1-.23,.22v60.77c0,.12,.1,.23,.23,.23h15.67c8.67,0,14.71-.34,19.47-4.85,3.08-2.87,4.85-7.26,4.85-12.04,0-5.31-2.03-9.89-5.58-12.58"/><path class="cls-2" d="M383.04,42.13c-2.53,0-4.99,.65-7.54,1.97-2.24,1.16-4.31,2.68-6.14,4.51v-6.44c0-.06-.02-.13-.08-.18-.03-.03-.09-.04-.14-.04h-.04l-6.82,1.2c-.11,.02-.18,.11-.18,.23v44.07c0,.12,.09,.23,.22,.23h6.91c.12,0,.23-.11,.23-.23V54.66c1.57-1.64,3.36-2.95,5.63-4.14,2.4-1.26,4.6-1.93,6.37-1.93,1.9,0,3.66,.67,4.71,1.79,1.55,1.72,1.54,4.32,1.54,6.83v30.24c0,.12,.09,.23,.22,.23h6.91c.13,0,.22-.11,.22-.23V53.95c0-1.17,0-2.79-1.08-5.23-1.4-3.04-5.1-6.59-10.92-6.59"/><path class="cls-2" d="M416.56,62.47l18.2-20.14c.07-.07,.08-.17,.05-.25-.03-.09-.11-.13-.21-.13h-8.68c-.06,0-.12,.03-.17,.07l-17.67,20.14V26.67c0-.07-.04-.13-.08-.17-.04-.04-.1-.05-.1-.05h-.08l-6.92,1.22c-.11,.03-.19,.11-.19,.23v59.55c0,.12,.11,.23,.23,.23h6.9c.13,0,.23-.11,.23-.23v-24.68l20.15,24.8c.05,.07,.11,.1,.17,.1h9.21c.09,0,.17-.07,.21-.14,.05-.08,.03-.17-.03-.24l-21.23-24.82Z"/><path class="cls-2" d="M349.36,76.49c-2.57,4.9-7.15,6.65-10.59,6.65-2.22,0-4.15-.71-5.43-1.98-.86-.86-1.89-2.56-1.89-5.77s.89-5.43,2.68-7.11c2.9-2.79,8.86-3.2,12.16-3.2,.91,0,1.68,0,2.38,.07l.69,.07v11.26Zm-5.98-34.54c-3.25,0-6.59,.56-9.65,1.6-1.21,.43-2.52,.99-3.9,1.66-.07,.03-.11,.1-.12,.17l-1.34,7.66c-.02,.09,.02,.18,.1,.23,0,0,.08,.03,.11,.03,.05,0,.1-.01,.14-.05,1.9-1.49,3.8-2.57,6.14-3.52,1.08-.41,4.37-1.66,7.81-1.66,1.74,0,3.95,.24,5.59,2.13,1.42,1.7,1.54,3.41,1.54,5.17v4.62c-.84-.07-1.74-.07-2.79-.07-5.04,0-12.12,.72-17.31,4.11-4.25,2.85-6.4,6.89-6.4,11.97,0,7.95,5.39,12.71,14.4,12.71,2.85,0,7.13-.5,11.74-4.76v4.54c0,.11,.1,.22,.22,.22h6.77c.12,0,.22-.11,.22-.22v-31.72c0-.42,0-.86,.01-1.31,.03-2.1,.07-4.52-.62-6.47-.94-2.62-3.87-7.05-12.69-7.05"/><path class="cls-2" d="M462.41,76.49c-2.57,4.9-7.15,6.65-10.58,6.65-2.23,0-4.16-.71-5.42-1.98-.86-.86-1.88-2.56-1.88-5.77s.87-5.43,2.66-7.11c2.9-2.79,8.86-3.2,12.16-3.2,.89,0,1.67,0,2.37,.07l.69,.07v11.26Zm-5.97-34.54c-3.25,0-6.58,.56-9.65,1.6-1.2,.43-2.52,.99-3.9,1.66-.06,.03-.11,.1-.12,.17l-1.35,7.66c-.02,.09,.03,.18,.11,.23,.03,.02,.07,.03,.07,.03,.1,0,.14-.01,.18-.05,1.9-1.49,3.8-2.57,6.14-3.52,1.08-.41,4.37-1.66,7.8-1.66,1.74,0,3.95,.24,5.58,2.13,1.43,1.7,1.53,3.41,1.53,5.17v4.62c-.82-.07-1.74-.07-2.78-.07-5.03,0-12.12,.72-17.3,4.11-4.25,2.85-6.4,6.89-6.4,11.97,0,7.95,5.38,12.71,14.4,12.71,2.84,0,7.13-.5,11.74-4.76v4.54c0,.11,.1,.22,.23,.22h6.78c.12,0,.22-.11,.22-.22v-31.72c0-.42,.01-.86,.01-1.31,.03-2.1,.06-4.52-.61-6.47-.97-2.62-3.88-7.05-12.7-7.05"/><path class="cls-2" d="M496.03,62.04l-5.73-1.32c-4.57-1.03-6.43-2.83-6.43-6.2,0-4.1,3.17-6.84,7.89-6.84,3.14,0,6.19,.86,10.53,3,.03,.01,.06,.02,.06,.02h.08c.08-.03,.13-.07,.16-.14l2.35-4.93c.05-.1,0-.24-.1-.29-3.88-2.18-8.65-3.38-13.45-3.38-9.39,0-15.71,5.43-15.71,13.51,0,6.47,3.65,10.64,10.57,12.03l5.37,1.07c5.18,.98,7.59,3.26,7.59,7.17,0,4.4-3.39,7.36-8.42,7.36-4.14,0-8.81-1.41-13.89-4.2-.02-.02-.06-.02-.06-.02h-.11c-.06,.02-.11,.07-.14,.12l-2.5,5.01c-.06,.11-.02,.24,.09,.3,4.95,2.82,10.77,4.42,15.99,4.42,10.24,0,17.13-5.85,17.13-14.57,0-6.25-3.9-10.43-11.27-12.11"/><path class="cls-2" d="M518.11,42s-.09-.05-.09-.05h-.09l-6.91,1.21c-.11,.02-.19,.11-.19,.22v44.07c0,.12,.1,.23,.22,.23h6.91c.12,0,.22-.11,.22-.23V42.17c0-.07-.03-.13-.08-.17"/><path class="cls-1" d="M22.52,56.48c1.18-1.04,.55-2.38-.16-3.29-.4-.5-.79-.88-.92-.98l-5.07,4.25,3.09,2.59,3.06-2.57Z"/><path class="cls-2" d="M9.25,67.62h0l12.82,10.75c.13,.13,.29,.23,.47,.31,.16,.08,.36,.11,.56,.11,.19,0,.38-.03,.56-.11,.18-.08,.33-.18,.45-.31,.14-.13,.24-.28,.32-.46,.07-.17,.11-.35,.11-.56v-11.34c0-.82-.16-1.59-.47-2.3-.29-.7-.73-1.33-1.26-1.88L2.47,44.78c-.12-.14-.29-.25-.46-.31-.17-.08-.36-.12-.56-.12s-.39,.04-.56,.12c-.17,.06-.33,.17-.45,.31-.14,.13-.24,.27-.31,.45-.07,.17-.12,.37-.12,.57v11.32c0,.82,.17,1.6,.47,2.31,.29,.68,.73,1.34,1.26,1.87l4.44,3.73,3.08,2.59Z"/><path class="cls-1" d="M6.17,65.03h0l-4.14,3.48c-.44,.38-.63,.8-.66,1.23h0v.19s0,.07,0,.1c0,.04,.01,.07,.02,.1,0,.03,.01,.05,.02,.09,.02,.12,.05,.24,.1,.36,0,.01,.01,.03,.01,.06,.05,.11,.1,.23,.16,.36,.01,.01,.01,.03,.02,.05,.07,.12,.13,.24,.2,.35,.01,.01,.02,.02,.03,.03,.08,.12,.17,.25,.25,.35,.09,.11,.17,.22,.25,.31,.02,.02,.05,.05,.06,.06,.08,.09,.15,.17,.22,.24,.22,.22,.38,.36,.41,.4l6.13-5.15-3.08-2.59Z"/><path class="cls-2" d="M24.08,91.16c-.3-.7-.74-1.35-1.27-1.88,0,0-19.71-16.53-19.73-16.54-.05-.06-.18-.17-.35-.35,0,0-.02-.02-.03-.03-.07-.08-.14-.14-.22-.24-.01-.01-.04-.04-.06-.06-.08-.09-.16-.2-.25-.31-.08-.11-.17-.23-.25-.35,0,0,0-.01-.02-.03-.06-.11-.14-.23-.2-.35,0-.01-.01-.03-.02-.05-.06-.12-.11-.23-.16-.35,0-.02-.01-.05-.02-.06-.04-.12-.07-.24-.09-.36,0,0,0-.03-.01-.04v-.03c-.01-.05-.02-.08-.02-.11,0-.04,0-.07,0-.11v-.18c.03-.43,.22-.84,.66-1.23l-.17,.15s-.06,.06-.09,.09c-.24,.23-.57,.64-.87,1.31,0,0,0,0-.01,.01-.35,.78-.69,1.9-.82,3.46-.02,.18-.02,.38-.05,.58,0,.19-.01,.4-.02,.6,0,.06,0,13.29,0,13.29,0,.81,.17,1.59,.47,2.29,.3,.71,.73,1.34,1.26,1.88l20.35,17.06c.13,.14,.29,.25,.45,.31,.17,.08,.36,.12,.56,.12s.39-.04,.56-.12c.18-.06,.34-.17,.47-.31,.13-.13,.24-.28,.31-.45,.07-.17,.11-.37,.11-.57v-14.76c0-.82-.16-1.6-.46-2.31"/><path class="cls-2" d="M24.07,34.64c-.29-.7-.73-1.33-1.26-1.88L2.47,15.7c-.12-.13-.29-.24-.46-.31-.17-.08-.36-.11-.56-.11s-.39,.03-.56,.11c-.18,.07-.33,.17-.46,.31-.13,.13-.24,.28-.31,.45-.07,.17-.12,.36-.12,.56v14.75c0,.82,.17,1.6,.47,2.32,.29,.7,.74,1.34,1.26,1.87,0,0,19.7,16.53,19.72,16.54,.06,.07,.19,.17,.37,.34,.16,.18,.36,.39,.56,.65,.35,.45,.69,1.02,.78,1.59,.1,.58-.03,1.18-.62,1.69,0,0,.62-.44,1.12-1.57,0,0,0-.02,0-.03,.35-.78,.69-1.9,.83-3.45,.01-.21,.02-.39,.03-.58,0-.19,.02-.4,.02-.6v-6.7c0-3.3,0-6.59,0-6.59,0-.82-.17-1.6-.47-2.31"/><path class="cls-1" d="M30.73,78.6v10.35l3.97-3.32v-10.3l-.25,.21-3.36,2.83c-.11,.09-.22,.18-.35,.24"/><path class="cls-1" d="M34.7,49.66l-.21,.17-3.41,2.86c-.1,.09-.21,.17-.32,.23l-.03,.03v8.54l3.97-3.33v-8.49Z"/><path class="cls-2" d="M52.35,53.32c.48-.64,.82-1.42,.82-2.48V16.65c0-.2-.04-.4-.12-.57-.07-.17-.18-.33-.3-.46-.13-.13-.3-.23-.47-.32-.17-.07-.36-.11-.57-.11s-.38,.04-.56,.11c-.17,.08-.33,.18-.46,.32l-20.36,17.09c-.53,.52-.97,1.17-1.26,1.88-.3,.7-.47,1.47-.47,2.29v14.79c0,.21,.03,.39,.12,.56,.06,.18,.16,.33,.3,.46,.13,.13,.29,.23,.45,.31,.18,.07,.37,.11,.57,.11,.2,0,.39-.04,.56-.11,.05-.03,.09-.06,.14-.09,.11-.05,.23-.13,.32-.23l3.41-2.86,12.12-10.17c.13-.13,.29-.24,.46-.32,.17-.07,.35-.12,.56-.12,.2,0,.38,.05,.56,.11,.17,.08,.34,.18,.46,.31,.14,.14,.24,.29,.31,.46,.07,.18,.11,.37,.11,.56v2.7c0,.82-.15,1.59-.46,2.29-.3,.71-.72,1.36-1.26,1.89l-12.64,10.61-3.97,3.33-.38,.32c-.53,.54-.97,1.17-1.26,1.88-.3,.7-.46,1.49-.46,2.3v11.36c0,.2,.03,.39,.12,.56,.06,.17,.17,.33,.3,.46,.13,.13,.29,.23,.45,.3,.18,.08,.37,.12,.57,.12,.2,0,.39-.04,.56-.12,.03-.01,.07-.03,.1-.05,.13-.06,.25-.15,.35-.25l3.36-2.82,12.17-10.2c.13-.13,.29-.24,.46-.31,.17-.08,.35-.12,.56-.12,.2,0,.38,.04,.56,.12,.17,.06,.34,.18,.46,.31,.13,.13,.24,.28,.31,.45,.07,.17,.11,.36,.11,.56v4.48c0,.82-.15,1.6-.46,2.31-.3,.7-.72,1.35-1.26,1.88l-16.99,14.26c-.53,.53-.97,1.17-1.26,1.88-.3,.71-.46,1.49-.46,2.3v14.78c0,.2,.03,.4,.12,.56,.06,.17,.17,.33,.3,.46,.13,.13,.29,.25,.45,.31,.18,.08,.37,.12,.57,.12,.2,0,.39-.03,.56-.12,.17-.06,.32-.17,.45-.31l20.35-17.09c.54-.53,.97-1.16,1.27-1.88,.3-.71,.47-1.49,.47-2.31V55.87c-.02-.16-.07-.31-.13-.46-.08-.15-.18-.27-.28-.38-.13-.13-.28-.23-.47-.31-.17-.07-.35-.11-.56-.11s-.38,.03-.56,.11c-.17,.07-.31,.15-.31,.15,.54-.54,.99-.91,1.48-1.54"/><path class="cls-2" d="M24.47,8.35c-.04-.09-.1-.18-.18-.24L14.77,.16c-.06-.05-.13-.09-.21-.13-.07-.02-.14-.03-.22-.03-.05,0-.1,0-.15,.01-.05,.01-.1,.03-.15,.06-.11,.05-.22,.14-.29,.25-.07,.11-.11,.23-.11,.37V6.65c0,.1,.03,.19,.07,.29,.04,.09,.1,.17,.17,.22l3.01,2.49v5.57l-1.14-.93c-.05-.05-.13-.09-.2-.12-.07-.03-.16-.04-.22-.04-.05,0-.1,0-.15,.01-.05,.02-.1,.03-.14,.06-.12,.05-.22,.14-.29,.24-.06,.11-.1,.25-.1,.37v5.56c0,.1,.02,.2,.06,.28,.04,.09,.11,.17,.18,.23l6.85,5.72c.06,.05,.13,.09,.2,.11s.15,.05,.23,.05c.05,0,.1,0,.15-.02,.05,0,.1-.03,.14-.05,.12-.05,.22-.13,.29-.25,.07-.11,.11-.24,.11-.37v-5.52c0-.1-.03-.2-.06-.28-.05-.1-.12-.18-.19-.25l-1.3-1.11v-5.51l2.09,1.76c.06,.05,.13,.09,.21,.12,.07,.02,.16,.03,.24,.03,.04,0,.09,0,.15-.02,.04,0,.09-.01,.14-.05,.11-.05,.21-.13,.29-.25,.07-.11,.1-.23,.1-.37v-6c0-.09-.02-.2-.06-.28"/><path class="cls-2" d="M39.16,7.27c.08-.07,.15-.14,.19-.23,.03-.09,.06-.19,.06-.29V.74c0-.13-.03-.26-.11-.37-.07-.11-.17-.19-.29-.25-.05-.04-.09-.04-.14-.05-.05-.01-.1-.03-.15-.03-.07,0-.16,.02-.22,.03-.08,.04-.15,.09-.21,.13l-9.43,7.95c-.07,.07-.13,.15-.18,.23-.04,.09-.06,.19-.06,.28V27.47c0,.14,.03,.26,.11,.37,.07,.11,.17,.2,.29,.25,.04,.03,.09,.04,.15,.05,.05,.02,.09,.03,.14,.03,.08,0,.15-.03,.23-.05,.07-.03,.14-.07,.21-.12l9.42-7.93c.07-.06,.14-.14,.18-.23,.03-.09,.06-.19,.06-.29v-5.6c0-.13-.03-.25-.11-.37-.07-.11-.17-.19-.29-.25-.05-.01-.09-.03-.14-.05-.05,0-.1-.01-.15-.01-.07,0-.16,.01-.22,.04-.08,.03-.15,.07-.21,.11l-5.19,4.37v-5.42l6.06-5.1Z"/></g></g></g></svg>