<svg width="567" height="600" viewBox="0 0 567 600" fill="none" xmlns="http://www.w3.org/2000/svg">
<path fill-rule="evenodd" clip-rule="evenodd" d="M100 0C44.7717 0 0 44.7717 0 100V500C0 555.23 44.7717 600 100 600H466.667C485.077 600 500 585.077 500 566.667C500 548.257 485.077 533.333 466.667 533.333H100C81.5907 533.333 66.6667 518.41 66.6667 500V100C66.6667 81.5907 81.5907 66.6667 100 66.6667H466.667C485.077 66.6667 500 51.7427 500 33.3333C500 14.924 485.077 0 466.667 0H100ZM423.57 143.096C410.553 130.079 389.447 130.079 376.43 143.096C363.413 156.114 363.413 177.219 376.43 190.237L452.86 266.667H166.667C148.257 266.667 133.333 281.59 133.333 300C133.333 318.41 148.257 333.333 166.667 333.333H452.86L376.43 409.763C363.413 422.78 363.413 443.887 376.43 456.903C389.447 469.92 410.553 469.92 423.57 456.903L556.903 323.57C569.92 310.553 569.92 289.447 556.903 276.43L423.57 143.096Z" fill="#E20514"/>
</svg>
