<svg width="584" height="584" viewBox="0 0 584 584" fill="none" xmlns="http://www.w3.org/2000/svg">
<path d="M308.667 258.667V308.667L275.333 325.333M392 158.667V225.333M192 158.667V225.333M192 558.667H58.6667C40.2574 558.667 25.3334 543.743 25.3334 525.333V392M558.667 392V525.333C558.667 543.743 543.743 558.667 525.333 558.667H392M558.667 192V58.6667C558.667 40.2573 543.743 25.3333 525.333 25.3333H392M25.3334 192V58.6667C25.3334 40.2573 40.2574 25.3333 58.6667 25.3333H192M192 425.333C192 425.333 225.333 458.667 292 458.667C358.667 458.667 392 425.333 392 425.333" stroke="#E20514" stroke-width="50" stroke-linecap="round" stroke-linejoin="round"/>
</svg>
