<svg width="758" height="758" viewBox="0 0 758 758" fill="none" xmlns="http://www.w3.org/2000/svg">
<path d="M0 615.2C0 654.667 13.8667 688.267 41.6 716C69.3333 743.733 102.933 757.6 142.4 757.6H616C654.933 757.6 688.267 743.733 716 716C743.733 688.267 757.6 654.667 757.6 615.2V410.4L663.2 489.6V615.2C663.2 628.533 658.667 639.733 649.6 648.8C640.533 657.867 629.333 662.667 616 663.2H142.4C129.067 663.2 117.867 658.4 108.8 648.8C99.7333 639.2 95.2 628 95.2 615.2V141.6C95.2 128.8 99.7333 117.6 108.8 108C117.867 98.4 129.067 93.8667 142.4 94.4H379.2V0H142.4C102.933 0 69.3333 13.8667 41.6 41.6C13.8667 69.3333 0 102.667 0 141.6L0 615.2ZM142.4 473.6C142.4 519.467 151.467 563.467 169.6 605.6C178.133 556.533 196.8 512 225.6 472C254.4 432 290.133 399.733 332.8 375.2C375.467 350.667 422.4 336.8 473.6 333.6V473.6L757.6 236.8L473.6 0V141.6C428.8 141.6 385.867 150.4 344.8 168C303.733 185.6 268.533 209.333 239.2 239.2C209.867 269.067 186.133 304.267 168 344.8C149.867 385.333 141.333 428.267 142.4 473.6Z" fill="white"/>
</svg>
