<svg width="668" height="654" viewBox="0 0 668 654" fill="none" xmlns="http://www.w3.org/2000/svg">
<path d="M201 274H201.333" stroke="#E20514" stroke-width="66.6667" stroke-linecap="round" stroke-linejoin="round"/>
<path d="M334.333 274H334.667" stroke="#E20514" stroke-width="66.6667" stroke-linecap="round" stroke-linejoin="round"/>
<path d="M467.667 274H468" stroke="#E20514" stroke-width="66.6667" stroke-linecap="round" stroke-linejoin="round"/>
<path d="M634 367.333V167.333C634 104.479 634 73.0523 614.473 53.5263C594.947 34 563.52 34 500.667 34H167.333C104.479 34 73.0523 34 53.5263 53.5263C34 73.0523 34 104.479 34 167.333V367.333C34 430.187 34 461.613 53.5263 481.14C73.0523 500.667 104.479 500.667 167.333 500.667H184C193.205 500.667 200.667 508.13 200.667 517.333V600.667V605.663C200.667 617.457 214.046 624.27 223.583 617.333L370.52 510.47C379.28 504.1 389.833 500.667 400.667 500.667H500.667C563.52 500.667 594.947 500.667 614.473 481.14C634 461.613 634 430.187 634 367.333Z" stroke="#E20514" stroke-width="66.6667" stroke-linejoin="round"/>
</svg>
