<?xml version="1.0" encoding="UTF-8"?>
<svg id="Laag_2" data-name="Laag 2" xmlns="http://www.w3.org/2000/svg" viewBox="0 0 179.66 31.87">
  <defs>
    <style>
      .cls-1 {
        fill: #37f826;
      }

      .cls-1, .cls-2, .cls-3 {
        stroke-width: 0px;
      }

      .cls-2 {
        fill: #261230;
      }

      .cls-3 {
        fill: #eef0f4;
      }
    </style>
  </defs>
  <g id="Laag_1-2" data-name="Laag 1">
    <path class="cls-1" d="M7.97,29.73c7.62,4.4,17.36,1.79,21.76-5.83,4.4-7.62,1.79-17.36-5.83-21.76C16.28-2.26,6.54.35,2.14,7.97-2.26,15.59.35,25.33,7.97,29.73Z"/>
    <path class="cls-2" d="M27.97,8.57l-1.83-1.06c-.17-.1-.37-.14-.57-.13-.8.07-2.91.13-2.47-1.36.04-.14-.01-.29-.13-.38-.26-.18-.53-.35-.81-.51-4-2.31-8.74-2.15-12.47,0-1.09.63-.5,1.36,0,1.29,3.35-.46,7.03.37,6.5,3-.08.38-.29.81-.54,1.26l-9.38,14.66c-.11.17-.09.4.06.54.79.76,1.68,1.43,2.67,2,.46.27.93.5,1.41.71.21.09.45,0,.55-.2l9.2-17.4c.08-.15.17-.28.29-.4,1.04-1,2.02.81,2.35,1.52.08.18.22.33.39.43l1.83,1.06c.18.11.42.04.53-.14l2.54-4.4c.11-.18.04-.42-.14-.53h0Z"/>
    <path class="cls-3" d="M179.66,11.36v4.03h-4.15v7h3.96v4.03h-3.57c-1.5,0-2.71-.46-3.63-1.38-.92-.92-1.38-2.14-1.38-3.67v-5.98h-2.82v-4.03h2.82v-4.39h4.63v4.39h4.15ZM159.62,26.72c-1.58,0-2.98-.31-4.21-.93-1.2-.64-2.15-1.54-2.85-2.7-.68-1.18-1.02-2.56-1.02-4.15s.34-3.01,1.02-4.18c.7-1.18,1.65-2.09,2.85-2.73,1.22-.64,2.62-.96,4.21-.96s2.98.32,4.18.96c1.22.64,2.17,1.55,2.85,2.73.7,1.16,1.05,2.55,1.05,4.18s-.35,2.96-1.05,4.15c-.68,1.16-1.63,2.06-2.85,2.7-1.2.62-2.6.93-4.18.93ZM159.62,22.6c1.3,0,2.2-.29,2.71-.87.52-.58.78-1.51.78-2.79s-.26-2.25-.78-2.85c-.5-.6-1.4-.9-2.71-.9s-2.18.3-2.7.9c-.52.6-.78,1.55-.78,2.85s.26,2.21.78,2.79c.52.58,1.42.87,2.7.87ZM144.44,11.06c1.96,0,3.43.72,4.39,2.16.98,1.42,1.47,3.33,1.47,5.71s-.52,4.23-1.56,5.65c-1.02,1.42-2.56,2.13-4.63,2.13-1.28,0-2.37-.34-3.27-1.02-.9-.68-1.57-1.67-2.01-2.97v8.8h-4.6V11.36h4.6v3.82c.46-1.36,1.17-2.38,2.13-3.06.96-.7,2.12-1.05,3.49-1.05ZM142.25,22.6c1.26,0,2.15-.29,2.68-.87.52-.58.78-1.51.78-2.79s-.26-2.27-.78-2.85c-.52-.6-1.41-.9-2.68-.9s-2.19.3-2.73.9c-.52.58-.78,1.53-.78,2.85s.26,2.21.78,2.79c.54.58,1.45.87,2.73.87ZM125.4,26.72c-2.18,0-3.92-.43-5.2-1.29-1.28-.86-1.96-2.03-2.04-3.52l4.45-.75c.1.8.38,1.38.84,1.74.46.34,1.15.51,2.07.51,1.52,0,2.28-.45,2.28-1.35,0-.42-.16-.73-.48-.93-.32-.22-.9-.38-1.74-.48l-2.43-.3c-1.58-.2-2.74-.67-3.46-1.41-.72-.74-1.08-1.77-1.08-3.09,0-1.54.58-2.72,1.74-3.55,1.18-.82,2.79-1.23,4.84-1.23s3.73.39,4.93,1.17c1.22.76,1.87,1.86,1.95,3.31l-4.42.72c-.08-.76-.32-1.29-.72-1.59-.38-.3-.96-.45-1.74-.45-1.4,0-2.1.43-2.1,1.29,0,.46.14.79.42.99.28.2.81.34,1.59.42l2.4.27c1.66.2,2.88.65,3.64,1.35.76.7,1.14,1.7,1.14,3,0,1.62-.6,2.89-1.8,3.82-1.18.9-2.88,1.35-5.08,1.35h0Z"/>
    <path class="cls-3" d="M118.82,26.42h-5.44l-3.12-5.74-2.1,2.28v3.46h-4.6V5.38h4.6v12.83l1.68-2.79,3.43-4.06h5.53l-5.65,6.16,5.68,8.89ZM100.14,11.12c.32,0,.65.02.99.06.36.04.66.12.9.24v4.21c-.32-.1-.64-.17-.96-.21-.3-.04-.66-.06-1.08-.06-1.4,0-2.49.38-3.27,1.14-.76.74-1.14,1.94-1.14,3.61v6.31h-4.6v-15.05h4.6v4.45c.16-.9.41-1.7.75-2.4.34-.72.82-1.28,1.44-1.68.62-.4,1.41-.6,2.37-.6ZM81.56,11.06c1.76,0,3.2.38,4.33,1.14,1.12.76,1.94,1.83,2.46,3.21s.74,2.99.66,4.84h-10.52c.14,1.04.47,1.77.99,2.19.52.4,1.3.6,2.34.6.82,0,1.44-.14,1.86-.42.42-.28.79-.8,1.11-1.56l3.91,1.35c-1.02,2.86-3.36,4.3-7,4.3-1.58,0-2.96-.32-4.15-.96-1.18-.64-2.1-1.54-2.76-2.7-.66-1.16-.99-2.5-.99-4.03,0-1.6.32-2.99.96-4.18.66-1.2,1.57-2.13,2.73-2.79,1.16-.66,2.51-.99,4.06-.99ZM81.68,14.61c-1.02,0-1.78.23-2.28.69-.48.46-.78,1.19-.9,2.19h6.04c-.02-1.06-.27-1.8-.75-2.22-.46-.44-1.16-.66-2.1-.66ZM66.41,19.2l2.52-13.82h5.44l-5.14,21.03h-6.55l-3.52-12.71-.63-2.73-.63,2.7-3.55,12.74h-6.55l-5.14-21.03h5.44l2.52,13.82.45,3,.63-3,3.7-13.82h6.25l3.67,13.82.63,3s.45-3,.45-3Z"/>
  </g>
</svg>