<svg
  width="237"
  height="32"
  viewBox="0 0 237 32"
  fill="none"
  xmlns="http://www.w3.org/2000/svg"
>
  <path
    d="M8.46852 29.765c7.61988 4.3989 17.36298 1.7886 21.76218-5.8311 4.399-7.6199 1.7887-17.3631-5.8312-21.76215C16.7796-2.22779 7.03646.382988 2.63741 8.00285-1.76164 15.6227.84866 25.366 8.46852 29.765Z"
    fill="#37F826"
  />
  <path
    d="m28.471 8.60412-1.8271-1.05518c-.1722-.09952-.3712-.14422-.5687-.12643-.7965.07162-2.9146.12787-2.4729-1.35707.0423-.14181-.0106-.29468-.1326-.37785-.2607-.17786-.5298-.34707-.8071-.50763-3.9953-2.3065-8.7376-2.14834-12.4656.00241-1.09216.63009-.49751 1.36234 0 1.2936 3.3497-.46341 7.0325.3692 6.5032 3.00449-.077.38217-.2854.80594-.5379 1.25704L6.78346 25.3981c-.11105.1734-.08509.4018.06345.5445.78886.7572 1.68106 1.4325 2.67086 2.0036.46149.2664.93213.503 1.40943.7101.2067.0899.4476.0033.5529-.1956l9.1956-17.3987c.0774-.1466.1746-.2826.2942-.3975 1.0442-1.00185 2.0244.8105 2.3542 1.5229.083.1793.2196.3283.3912.4273l1.8296 1.0567c.1841.1062.4192.0432.5254-.1409l2.5415-4.40193c.1063-.18411.0433-.41918-.1408-.52542v.00097Z"
    fill="#261230"
  />
  <path
    d="M180.163 11.3967v4.0261h-4.147v7.0008h3.965v4.0261h-3.575c-1.502 0-2.714-.4607-3.635-1.382-.921-.9215-1.382-2.1433-1.382-3.6656v-5.9793h-2.824v-4.0261h2.824V7.00998h4.627v4.38672h4.147ZM160.119 26.7501c-1.582 0-2.983-.3105-4.206-.9314-1.202-.6411-2.153-1.5424-2.854-2.7042-.682-1.1818-1.022-2.5639-1.022-4.1463 0-1.6225.34-3.0146 1.022-4.1764.701-1.1818 1.652-2.0932 2.854-2.7342 1.223-.641 2.624-.9615 4.206-.9615 1.583 0 2.976.3205 4.178.9615 1.221.641 2.172 1.5524 2.854 2.7342.7 1.1618 1.051 2.5539 1.051 4.1764 0 1.5824-.351 2.9645-1.051 4.1463-.682 1.1618-1.633 2.0631-2.854 2.7042-1.202.6209-2.595.9314-4.178.9314Zm0-4.1163c1.302 0 2.204-.2905 2.705-.8714.52-.5809.781-1.5123.781-2.7942 0-1.3021-.261-2.2534-.781-2.8543-.501-.601-1.403-.9015-2.705-.9015-1.281 0-2.183.3005-2.704.9015-.52.6009-.781 1.5522-.781 2.8543 0 1.2819.261 2.2133.781 2.7942.521.5809 1.423.8714 2.704.8714ZM144.941 11.0961c1.963 0 3.426.7211 4.388 2.1633.981 1.4222 1.472 3.3251 1.472 5.7088 0 2.3435-.521 4.2265-1.563 5.6486-1.022 1.4222-2.564 2.1333-4.627 2.1333-1.282 0-2.374-.3406-3.275-1.0215-.901-.6811-1.572-1.6727-2.013-2.9746v8.8035h-4.597V11.3966h4.597v3.8158c.461-1.362 1.172-2.3836 2.133-3.0647.962-.701 2.123-1.0516 3.485-1.0516Zm-2.193 11.5377c1.262 0 2.154-.2905 2.675-.8714.52-.5809.781-1.5123.781-2.7942 0-1.3221-.261-2.2734-.781-2.8543-.521-.601-1.413-.9015-2.675-.9015-1.282 0-2.193.3005-2.734.9015-.521.5809-.781 1.5322-.781 2.8543 0 1.2819.26 2.2133.781 2.7942.541.5809 1.452.8714 2.734.8714ZM125.905 26.7501c-2.183 0-3.916-.4307-5.198-1.292-1.282-.8614-1.963-2.0331-2.043-3.5153l4.447-.7512c.1.8012.38 1.3821.841 1.7426.461.3406 1.152.5108 2.073.5108 1.523 0 2.284-.4507 2.284-1.352 0-.4207-.16-.7311-.481-.9315-.32-.2203-.901-.3805-1.743-.4807l-2.433-.3004c-1.583-.2004-2.735-.6712-3.456-1.4122-.721-.7412-1.081-1.7727-1.081-3.0948 0-1.5423.581-2.7241 1.742-3.5454 1.182-.8212 2.795-1.2319 4.838-1.2319 2.083 0 3.726.3906 4.927 1.1718 1.222.7612 1.873 1.8629 1.953 3.3051l-4.416.721c-.081-.761-.321-1.2919-.722-1.5923-.38-.3005-.961-.4507-1.742-.4507-1.402 0-2.103.4306-2.103 1.2919 0 .4607.14.7912.42.9916.281.2002.811.3404 1.593.4206l2.403.2704c1.663.2004 2.875.651 3.636 1.3521.761.7011 1.142 1.7026 1.142 3.0045 0 1.6225-.601 2.8946-1.803 3.8159-1.182.9014-2.875 1.3521-5.078 1.3521Z"
    fill="#261230"
  />
  <path
    d="M119.319 26.4497h-5.438l-3.125-5.7388-2.103 2.2835v3.4553h-4.597V5.41751h4.597V18.2472l1.682-2.7944 3.425-4.0561h5.529l-5.649 6.1593 5.679 8.8937ZM100.643 11.1562c.32 0 .651.0201.991.0601.361.0401.661.1202.901.2404v4.2064c-.32-.1001-.641-.1702-.961-.2103-.301-.04-.661-.0601-1.082-.0601-1.4019 0-2.4935.3806-3.2747 1.1418-.7611.7412-1.1418 1.9429-1.1418 3.6055v6.3096h-4.5971v-15.053h4.5971v4.4469c.1603-.9015.4107-1.7027.7511-2.4038.3406-.7211.8214-1.2819 1.4423-1.6825.621-.4006 1.4122-.601 2.3741-.601ZM82.0569 11.0961c1.7627 0 3.2049.3806 4.3266 1.1418 1.1218.7611 1.9431 1.8328 2.4639 3.2149.5208 1.3821.741 2.9946.661 4.8373H78.9922c.1403 1.0416.4708 1.7729.9916 2.1935.5208.4006 1.3019.6009 2.3435.6009.8213 0 1.4423-.1402 1.8629-.4207.4206-.2804.7912-.8012 1.1117-1.5624l3.906 1.3521c-1.0216 2.8644-3.3551 4.2966-7.0007 4.2966-1.5824 0-2.9646-.3206-4.1464-.9614-1.1817-.641-2.1032-1.5425-2.7641-2.7042-.6611-1.1618-.9916-2.5039-.9916-4.0262 0-1.6025.3204-2.9946.9615-4.1764.661-1.2018 1.5724-2.1332 2.7341-2.7943 1.1618-.661 2.5139-.9915 4.0562-.9915Zm.1202 3.5455c-1.0215 0-1.7826.2303-2.2835.691-.4807.4607-.7811 1.1918-.9014 2.1934h6.0393c-.0201-1.0617-.2705-1.8028-.7512-2.2234-.4607-.4408-1.1618-.661-2.1032-.661ZM66.9063 19.2386l2.5239-13.82109h5.4382L69.7306 26.4497h-6.55l-3.5153-12.7095-.6311-2.7341-.6309 2.7041-3.5454 12.7395h-6.55L43.17 5.41751h5.4383l2.5238 13.82109.4507 3.0047.6309-3.0047 3.6957-13.82109h6.2496l3.6657 13.82109.6309 3.0047.4507-3.0047Z"
    fill="#261230"
  />
</svg>